<svg width="40" height="40" viewBox="0 0 40 40" fill="none" xmlns="http://www.w3.org/2000/svg">
<path d="M20 0C8.9543 0 0 8.9543 0 20C0 31.0457 8.9543 40 20 40C31.0457 40 40 31.0457 40 20C40 8.9543 31.0457 0 20 0ZM25.108 25.6947C25.108 25.8867 25.0317 26.0709 24.8959 26.2066C24.7602 26.3424 24.576 26.4187 24.384 26.4188H12.1207C11.1715 26.4188 10.2611 26.0417 9.58992 25.3705C8.91872 24.6993 8.54164 23.7889 8.54164 22.8397V14.3053C8.54164 14.1133 8.61793 13.9291 8.75371 13.7933C8.8895 13.6575 9.07367 13.5812 9.2657 13.5812H21.529C22.4782 13.5812 23.3885 13.9583 24.0597 14.6295C24.7309 15.3007 25.108 16.211 25.108 17.1602V25.6947ZM31.4584 25.9474C31.4584 26.0079 31.4417 26.0672 31.4103 26.1188C31.3789 26.1705 31.3338 26.2125 31.2801 26.2402C31.2264 26.268 31.1661 26.2805 31.1058 26.2762C31.0454 26.272 30.9874 26.2513 30.9381 26.2163L25.7306 22.5262V17.4737L30.9381 13.7836C30.9875 13.7487 31.0455 13.7279 31.1058 13.7237C31.1661 13.7195 31.2264 13.732 31.2801 13.7598C31.3338 13.7875 31.3788 13.8295 31.4103 13.8812C31.4417 13.9328 31.4583 13.9921 31.4584 14.0526V25.9474Z" fill="url(#paint0_linear_1216_1520)"/>
<defs>
<linearGradient id="paint0_linear_1216_1520" x1="0.074377" y1="39.9256" x2="38.8388" y2="1.16109" gradientUnits="userSpaceOnUse">
<stop stop-color="#0079FF"/>
<stop offset="1" stop-color="#00C2FF"/>
</linearGradient>
</defs>
</svg>
