<svg width="50" height="40" viewBox="0 0 50 40" fill="none" xmlns="http://www.w3.org/2000/svg">
<path d="M32.7192 11.2518L39.0094 6.25168L37.9027 4.87164C35.3915 2.68234 32.3682 1.16263 29.1131 0.453448C25.8579 -0.255735 22.4764 -0.131419 19.2822 0.814867C16.1002 1.77605 13.2144 3.52934 10.8951 5.91042C8.5758 8.29151 6.89899 11.2224 6.0218 14.4286C5.9218 14.8052 7.06183 14.1019 7.56518 14.2419L16.2587 12.8152C16.2587 12.8152 16.6821 12.4018 16.9288 12.1318C20.7955 7.91173 27.349 7.35838 31.8125 10.9518L32.7192 11.2518Z" fill="#EA4335"/>
<path d="M43.792 14.3323C42.7906 10.6707 40.7396 7.38217 37.8918 4.87207L31.7917 10.9389C33.0601 11.968 34.0775 13.2725 34.7665 14.7534C35.4556 16.2343 35.7982 17.8527 35.7684 19.4858V20.5625C38.7685 20.5625 41.2019 22.9792 41.2019 25.9626C41.2019 28.9394 38.7685 31.3595 35.7684 31.3595L24.9115 31.3495L23.8281 31.4661V39.823L24.9115 39.9997H35.7684C38.7944 40.0294 41.7497 39.0857 44.1985 37.3079C46.6473 35.5302 48.4599 33.0124 49.3688 30.1261C50.2662 27.2438 50.2077 24.1487 49.2021 21.3024C48.1964 18.456 46.2975 16.0111 43.7887 14.3323H43.792Z" fill="#4285F4"/>
<path d="M14.0347 39.9961H24.8983V31.3492H14.0314C13.258 31.3492 12.4947 31.1292 11.7913 30.8125L10.2646 31.2792L5.88782 35.6026L5.50781 37.0927C7.95853 38.9596 10.9506 39.9776 14.0314 39.9927L14.0347 39.9961Z" fill="#34A853"/>
<path d="M14.0364 11.9054C11.1005 11.9176 8.24142 12.8451 5.85743 14.5587C3.47345 16.2723 1.6832 18.6867 0.736014 21.4657C-0.201185 24.2429 -0.244412 27.244 0.612412 30.0471C1.46924 32.8502 3.18302 35.3142 5.51281 37.0928L11.813 30.8126C10.7425 30.3353 9.85679 29.522 9.29003 28.4961C8.72327 27.4702 8.50637 26.2875 8.67218 25.1272C8.83799 23.9669 9.37747 22.8923 10.2089 22.0661C11.0403 21.24 12.1184 20.7074 13.2797 20.549C14.4412 20.3824 15.6255 20.5963 16.6554 21.1587C17.6853 21.7211 18.5055 22.6018 18.9932 23.6691L25.2933 17.4089C23.966 15.6874 22.2596 14.2953 20.3066 13.3408C18.3536 12.3863 16.2101 11.8951 14.0364 11.9054Z" fill="#FBBC05"/>
</svg>
