<svg width="40" height="40" viewBox="0 0 40 40" fill="none" xmlns="http://www.w3.org/2000/svg">
<path fill-rule="evenodd" clip-rule="evenodd" d="M6.288 37.6237L1.70219 31.9108C0.59884 30.5364 0 28.8461 0 27.1065V6.41999C0 3.81419 2.08479 1.65196 4.77428 1.46834L26.0428 0.0162428C27.588 -0.0892478 29.1237 0.321456 30.3931 1.1796L37.8656 6.23188C39.2033 7.13626 40 8.61466 40 10.1923V33.7109C40 36.2611 37.9501 38.3724 35.3168 38.5345L11.7111 39.9876C9.60977 40.1169 7.57865 39.2316 6.288 37.6237Z" fill="white"/>
<path d="M13.6628 16.7711V16.5003C13.6628 15.8137 14.2127 15.2444 14.9214 15.1971L20.0831 14.8524L27.2214 25.3641V16.1383L25.384 15.8933V15.7648C25.384 15.0701 25.9464 14.4971 26.6642 14.4603L31.3608 14.2197V14.8956C31.3608 15.2128 31.1248 15.4843 30.8015 15.5389L29.6712 15.7301V30.6711L28.2528 31.1588C27.0677 31.5664 25.7486 31.1301 25.0702 30.1065L18.1402 19.6491V29.6301L20.2731 30.0383L20.2435 30.2361C20.1503 30.8559 19.6152 31.3247 18.968 31.3535L13.6628 31.5896C13.5927 30.9231 14.0922 30.3269 14.7812 30.2545L15.4791 30.1812V16.8731L13.6628 16.7711Z" fill="#1B0947"/>
<path fill-rule="evenodd" clip-rule="evenodd" d="M26.2254 2.62205L4.95682 4.07414C3.68285 4.16113 2.69531 5.18534 2.69531 6.41966V27.1062C2.69531 28.2659 3.09454 29.3927 3.8301 30.3091L8.41593 36.0219C9.15736 36.9455 10.3242 37.4542 11.5313 37.3799L35.137 35.9269C36.3469 35.8523 37.2887 34.8822 37.2887 33.7106V10.192C37.2887 9.46713 36.9227 8.78788 36.3081 8.37236L28.8355 3.32006C28.0739 2.80518 27.1525 2.55876 26.2254 2.62205ZM6.01149 6.74234C5.71567 6.52333 5.85646 6.06708 6.22806 6.04042L26.3685 4.59582C27.0102 4.5498 27.6478 4.7265 28.1667 5.09418L32.2078 7.95718C32.3611 8.06588 32.2893 8.30052 32.0993 8.31085L10.7707 9.47082C10.1252 9.50593 9.4881 9.3163 8.97487 8.93634L6.01149 6.74234ZM9.77028 13.1073C9.77028 12.4143 10.3301 11.842 11.0459 11.803L33.5962 10.5749C34.2939 10.537 34.8811 11.0735 34.8811 11.7488V32.1134C34.8811 32.805 34.3234 33.3767 33.609 33.4174L11.2014 34.6923C10.425 34.7366 9.77028 34.1399 9.77028 33.3883V13.1073Z" fill="#1B0947"/>
</svg>
