<svg width="40" height="40" viewBox="0 0 40 40" fill="none" xmlns="http://www.w3.org/2000/svg">
<path d="M32.226 7.77734H7.78125V32.2221H32.226V7.77734Z" fill="white"/>
<path d="M21.8672 16.5786L22.9872 18.1786L24.7472 16.8986V26.1787H26.6672V14.0186H25.0672L21.8672 16.5786Z" fill="#1E88E5"/>
<path d="M18.8222 19.717C19.5166 19.0792 19.9477 18.1947 19.9477 17.218C19.9477 15.2769 18.2444 13.698 16.151 13.698C14.371 13.698 12.8488 14.8191 12.451 16.4236L14.2921 16.8914C14.4754 16.1536 15.2566 15.618 16.151 15.618C17.1977 15.618 18.0499 16.3358 18.0499 17.218C18.0499 18.1003 17.1977 18.8181 16.151 18.8181H15.0432V20.7381H16.151C17.3521 20.7381 18.3655 21.5725 18.3655 22.5603C18.3655 23.5648 17.4033 24.3826 16.2199 24.3826C15.151 24.3826 14.2377 23.7048 14.0932 22.807L12.2188 23.1137C12.5099 24.9315 14.2299 26.3026 16.2188 26.3026C18.4488 26.3026 20.2633 24.6237 20.2633 22.5603C20.2633 21.4236 19.7033 20.4036 18.8222 19.717Z" fill="#1E88E5"/>
<path d="M31.1148 40.0003H8.89237L7.78125 35.5558L8.89237 31.1113H31.1148L32.226 35.5558L31.1148 40.0003Z" fill="#FBC02D"/>
<path d="M35.5617 32.2221L40.0062 31.1109V8.88847L35.5617 7.77734L31.1172 8.88847V31.1109L35.5617 32.2221Z" fill="#4CAF50"/>
<path d="M31.1115 8.88899L32.2226 4.44449L31.1115 0H3.33337C1.49224 0 0 1.49224 0 3.33337V31.1115L4.44449 32.2226L8.88899 31.1115V8.88899H31.1115Z" fill="#1E88E5"/>
<path d="M31.1172 31.1113V40.0003L40.0062 31.1113H31.1172Z" fill="#E53935"/>
<path d="M36.6728 0H31.1172V8.88899H40.0062V3.33337C40.0062 1.49224 38.5139 0 36.6728 0Z" fill="#1565C0"/>
<path d="M3.33337 40.0003H8.88899V31.1113H0V36.6669C0 38.5081 1.49224 40.0003 3.33337 40.0003Z" fill="#1565C0"/>
</svg>
