<svg width="40" height="40" viewBox="0 0 40 40" fill="none" xmlns="http://www.w3.org/2000/svg">
<path fill-rule="evenodd" clip-rule="evenodd" d="M15.7375 0C12.5988 0 10.0545 2.46357 10.0545 5.50255V9.31202H19.8904V10.3702H5.68297C2.54434 10.3702 0 12.8338 0 15.8727V24.1266C0 27.1656 2.54434 29.6291 5.68297 29.6291H8.9616V24.9732C8.9616 21.9342 11.506 19.4705 14.6446 19.4705H25.1362C27.792 19.4705 29.9448 17.386 29.9448 14.8146V5.50255C29.9448 2.46357 27.4006 0 24.2619 0H15.7375ZM14.4261 6.77238C15.5125 6.77238 16.3932 5.91959 16.3932 4.86765C16.3932 3.8157 15.5125 2.96291 14.4261 2.96291C13.3395 2.96291 12.4588 3.8157 12.4588 4.86765C12.4588 5.91959 13.3395 6.77238 14.4261 6.77238Z" fill="url(#paint0_linear_1216_1496)"/>
<path fill-rule="evenodd" clip-rule="evenodd" d="M24.2699 40.0002C27.4085 40.0002 29.9529 37.5367 29.9529 34.4977V30.6882H20.1169V29.6301H34.3244C37.4631 29.6301 40.0073 27.1664 40.0073 24.1275V15.8736C40.0073 12.8347 37.4631 10.3711 34.3244 10.3711H31.0457V15.027C31.0457 18.0661 28.5014 20.5297 25.3628 20.5297H14.8712C12.2153 20.5297 10.0625 22.6142 10.0625 25.1856V34.4977C10.0625 37.5367 12.6069 40.0002 15.7454 40.0002H24.2699ZM25.5814 33.2279C24.4949 33.2279 23.6142 34.0806 23.6142 35.1326C23.6142 36.1846 24.4949 37.0373 25.5814 37.0373C26.6678 37.0373 27.5485 36.1846 27.5485 35.1326C27.5485 34.0806 26.6678 33.2279 25.5814 33.2279Z" fill="url(#paint1_linear_1216_1496)"/>
<defs>
<linearGradient id="paint0_linear_1216_1496" x1="14.9725" y1="0" x2="14.9725" y2="29.6291" gradientUnits="userSpaceOnUse">
<stop stop-color="#327EBD"/>
<stop offset="1" stop-color="#1565A7"/>
</linearGradient>
<linearGradient id="paint1_linear_1216_1496" x1="25.035" y1="10.3711" x2="25.035" y2="40.0002" gradientUnits="userSpaceOnUse">
<stop stop-color="#FFDA4B"/>
<stop offset="1" stop-color="#F9C600"/>
</linearGradient>
</defs>
</svg>
