<svg width="54" height="40" viewBox="0 0 54 40" fill="none" xmlns="http://www.w3.org/2000/svg">
<path d="M41.1389 8.4533L41.6389 7.69664L42.5122 8.22663L42.8989 8.5033C43.8322 9.2233 45.7955 11.0633 46.2189 14.1166C46.9622 13.9833 47.7122 13.9166 48.4622 13.9166C50.2422 13.9166 51.4389 14.3299 52.1189 14.6733L52.4689 14.8633L52.6955 15.0133L53.3322 15.5333L53.1122 16.1999C52.7702 17.1139 52.236 17.9437 51.5455 18.6333C50.5789 19.6299 48.8789 20.8066 46.1822 20.9599L45.5889 20.9766H45.0955C43.8622 24.2332 42.2056 27.9032 39.4222 31.1965C37.7708 33.1535 35.8118 34.8288 33.6223 36.1565C30.9973 37.7139 28.1227 38.8055 25.1256 39.3832C22.979 39.7998 20.799 40.0065 18.6157 39.9998C13.7823 39.9998 9.51569 39.0398 6.89236 37.3599C4.54904 35.8632 2.74905 33.4199 1.53905 30.1032C0.480142 27.0726 -0.0399317 23.8799 0.00238985 20.6699C-0.00309461 20.2584 0.139191 19.8585 0.403412 19.5429C0.667633 19.2273 1.03627 19.0169 1.44238 18.9499L1.66905 18.9333H36.8022L37.1089 18.9099L37.6056 18.8566C38.4589 18.7433 39.7589 18.4899 40.6722 17.9566C39.5789 16.1466 39.2689 14.0299 39.7789 11.7766C39.9925 10.8367 40.3287 9.92893 40.7789 9.07663L41.1389 8.4533ZM9.63235 12.6133L9.76569 12.6366C9.82659 12.6594 9.88142 12.6959 9.92593 12.7433C9.97044 12.7907 10.0034 12.8477 10.0224 12.91L10.0424 13.0433V17.4266L10.0224 17.5633C10.0031 17.6258 9.96959 17.6831 9.92448 17.7305C9.87937 17.7779 9.82387 17.8142 9.76235 17.8366L9.63235 17.8566H4.9257C4.83798 17.8554 4.75291 17.8264 4.6828 17.7736C4.61268 17.7209 4.56117 17.6472 4.53571 17.5633L4.51237 17.4299V13.04L4.53571 12.9066C4.55451 12.8434 4.58781 12.7855 4.63295 12.7375C4.67809 12.6895 4.73382 12.6526 4.7957 12.63L4.9257 12.61L9.63235 12.6133ZM16.1223 12.6133L16.2523 12.6366C16.3138 12.659 16.3693 12.6953 16.4145 12.7427C16.4596 12.7901 16.4931 12.8474 16.5123 12.91L16.5323 13.0433V17.4266L16.509 17.5633C16.4897 17.6258 16.4562 17.6831 16.4111 17.7305C16.366 17.7779 16.3105 17.8142 16.249 17.8366L16.119 17.8566H11.4123C11.3248 17.8549 11.2399 17.8257 11.1699 17.773C11.0999 17.7203 11.0483 17.647 11.0223 17.5633L10.999 17.4333V13.0433C10.9983 12.9541 11.0251 12.8669 11.0758 12.7935C11.1265 12.7201 11.1987 12.6642 11.2823 12.6333L11.4123 12.61L16.1223 12.6133ZM22.709 12.6133L22.839 12.6366C22.8999 12.6594 22.9547 12.6959 22.9992 12.7433C23.0437 12.7907 23.0767 12.8477 23.0956 12.91L23.119 13.0433V17.4266L23.0956 17.5633C23.0764 17.6258 23.0429 17.6831 22.9978 17.7305C22.9526 17.7779 22.8972 17.8142 22.8356 17.8366L22.7056 17.8566H17.999C17.9113 17.8554 17.8262 17.8264 17.7561 17.7736C17.686 17.7209 17.6344 17.6472 17.609 17.5633L17.589 17.4299V13.04L17.609 12.9066C17.6278 12.8434 17.6611 12.7855 17.7062 12.7375C17.7514 12.6895 17.8071 12.6526 17.869 12.63L17.999 12.61L22.709 12.6133ZM29.2156 12.6133L29.3456 12.6366C29.4071 12.659 29.4626 12.6953 29.5077 12.7427C29.5529 12.7901 29.5864 12.8474 29.6056 12.91L29.6289 13.0433V17.4266C29.6297 17.5158 29.6028 17.603 29.5521 17.6764C29.5014 17.7498 29.4293 17.8057 29.3456 17.8366L29.2123 17.8566H24.509C24.4212 17.8554 24.3362 17.8264 24.2661 17.7736C24.1959 17.7209 24.1444 17.6472 24.119 17.5633L24.099 17.4299V13.04L24.119 12.9066C24.1378 12.8434 24.1711 12.7855 24.2162 12.7375C24.2613 12.6895 24.3171 12.6526 24.379 12.63L24.5123 12.61H29.2189L29.2156 12.6133ZM35.7822 12.6133L35.9123 12.6366C35.9738 12.659 36.0293 12.6953 36.0744 12.7427C36.1195 12.7901 36.153 12.8474 36.1722 12.91L36.1922 13.0433V17.4266C36.193 17.5158 36.1661 17.603 36.1154 17.6764C36.0647 17.7498 35.9926 17.8057 35.9089 17.8366L35.7789 17.8566H31.0723C30.9845 17.8554 30.8995 17.8264 30.8294 17.7736C30.7592 17.7209 30.7077 17.6472 30.6823 17.5633L30.6623 17.4299V13.04L30.6823 12.9066C30.7011 12.8434 30.7344 12.7855 30.7795 12.7375C30.8247 12.6895 30.8804 12.6526 30.9423 12.63L31.0756 12.61H35.7789L35.7822 12.6133ZM16.1157 6.30664L16.249 6.32998C16.3095 6.35243 16.3641 6.38843 16.4086 6.43522C16.4531 6.48202 16.4863 6.53838 16.5057 6.59997L16.529 6.73664V11.12C16.5297 11.2091 16.5029 11.2964 16.4522 11.3698C16.4015 11.4431 16.3293 11.4991 16.2457 11.53L16.1157 11.5533H11.4123C11.3239 11.5512 11.2385 11.5209 11.1683 11.467C11.0982 11.4131 11.0471 11.3382 11.0223 11.2533L10.999 11.12V6.73664C10.999 6.64802 11.0261 6.56152 11.0768 6.4888C11.1275 6.41609 11.1992 6.36065 11.2823 6.32998L11.4123 6.30664H16.1157ZM22.7023 6.30664L22.8356 6.32998C22.8962 6.35243 22.9508 6.38843 22.9953 6.43522C23.0397 6.48202 23.0729 6.53838 23.0923 6.59997L23.1156 6.73664V11.12C23.1163 11.2091 23.0895 11.2964 23.0388 11.3698C22.9881 11.4431 22.916 11.4991 22.8323 11.53L22.7023 11.5533H17.999C17.9106 11.5512 17.8251 11.5209 17.755 11.467C17.6849 11.4131 17.6337 11.3382 17.609 11.2533L17.589 11.12V6.73664L17.609 6.60331C17.6282 6.54075 17.6617 6.48351 17.7069 6.43608C17.752 6.38865 17.8075 6.35233 17.869 6.32998L17.999 6.30664H22.7023ZM29.2123 6.30664C29.3923 6.30664 29.5456 6.42998 29.6023 6.59997L29.6256 6.73664V11.12C29.6263 11.2091 29.5995 11.2964 29.5488 11.3698C29.4981 11.4431 29.426 11.4991 29.3423 11.53L29.2089 11.5533H24.509C24.4205 11.5512 24.3351 11.5209 24.2649 11.467C24.1948 11.4131 24.1437 11.3382 24.119 11.2533L24.099 11.12V6.73664L24.119 6.60331C24.1382 6.54075 24.1717 6.48351 24.2168 6.43608C24.2619 6.38865 24.3174 6.35233 24.379 6.32998L24.5123 6.30664H29.2189H29.2123ZM29.2123 0C29.3923 0 29.5456 0.123333 29.6023 0.293332L29.6256 0.426665V4.81331C29.6263 4.90251 29.5995 4.98974 29.5488 5.06312C29.4981 5.1365 29.426 5.19244 29.3423 5.22331L29.2089 5.24331H24.509C24.4212 5.24214 24.3362 5.21308 24.2661 5.16035C24.1959 5.10761 24.1444 5.03394 24.119 4.94998L24.099 4.81665V0.426665L24.119 0.293332C24.1382 0.230773 24.1717 0.173531 24.2168 0.126104C24.2619 0.0786772 24.3174 0.0423582 24.379 0.0200001L24.509 0H29.2156H29.2123Z" fill="#2396ED"/>
</svg>
