<svg width="40" height="40" viewBox="0 0 40 40" fill="none" xmlns="http://www.w3.org/2000/svg">
<path d="M36.1546 18.4608C38.2786 18.4608 40.0005 16.7389 40.0005 14.615C40.0005 12.491 38.2785 10.7691 36.1545 10.7691C34.0303 10.7691 32.3082 12.4911 32.3082 14.6153V18.4608H36.1546ZM25.3852 18.4608C27.5093 18.4608 29.2313 16.7388 29.2313 14.6147V3.84612C29.2313 1.72197 27.5093 0 25.3852 0C23.261 0 21.5391 1.72197 21.5391 3.84612V14.6147C21.5391 16.7388 23.261 18.4608 25.3852 18.4608Z" fill="#2EB67D"/>
<path d="M3.8458 21.5391C1.72182 21.5391 0 23.2609 0 25.3849C0 27.5089 1.72199 29.2307 3.84595 29.2307C5.97011 29.2307 7.69225 27.5087 7.69225 25.3846V21.5391H3.8458ZM14.6153 21.5391C12.4911 21.5391 10.7691 23.261 10.7691 25.3852V36.1537C10.7691 38.2778 12.4911 39.9998 14.6153 39.9998C16.7394 39.9998 18.4614 38.2778 18.4614 36.1537V25.3852C18.4614 23.261 16.7394 21.5391 14.6153 21.5391Z" fill="#E01E5A"/>
<path d="M21.5391 36.1546C21.5391 38.2786 23.2609 40.0005 25.3849 40.0005C27.5089 40.0005 29.2307 38.2785 29.2307 36.1545C29.2307 34.0303 27.5087 32.3082 25.3846 32.3082H21.5391V36.1546ZM21.5391 25.3852C21.5391 27.5093 23.261 29.2313 25.3852 29.2313H36.1537C38.2778 29.2313 39.9998 27.5093 39.9998 25.3852C39.9998 23.261 38.2778 21.5391 36.1537 21.5391H25.3852C23.261 21.5391 21.5391 23.261 21.5391 25.3852Z" fill="#ECB22E"/>
<path d="M18.4608 3.8458C18.4608 1.72182 16.7389 0 14.615 0C12.491 0 10.7691 1.72199 10.7691 3.84595C10.7691 5.97012 12.4911 7.69225 14.6153 7.69225H18.4608V3.8458ZM18.4608 14.6153C18.4608 12.4911 16.7388 10.7691 14.6147 10.7691H3.84612C1.72197 10.7691 0 12.4911 0 14.6153C0 16.7394 1.72197 18.4614 3.84612 18.4614H14.6147C16.7388 18.4614 18.4608 16.7394 18.4608 14.6153Z" fill="#36C5F0"/>
</svg>
