<svg width="46" height="40" viewBox="0 0 46 40" fill="none" xmlns="http://www.w3.org/2000/svg">
<path d="M11.4297 30H45.7154V37.1429C45.7154 38.7209 44.4363 40 42.8583 40H14.2868C12.7089 40 11.4297 38.7209 11.4297 37.1429V30Z" fill="#5D29A1"/>
<path d="M45.7154 20H11.4297V30H45.7154V20Z" fill="#7F32CC"/>
<path d="M45.7154 10H11.4297V20H45.7154V10Z" fill="#9A40D6"/>
<path d="M14.2868 0C12.7089 0 11.4297 1.27919 11.4297 2.85714V37.1429C11.4297 38.7209 12.7089 40 14.2868 40H34.2868V10H45.7154V2.85714C45.7154 1.27919 44.4363 0 42.8583 0H14.2868Z" fill="url(#paint0_linear_1216_1487)"/>
<path d="M11.4297 14.2857C11.4297 11.9187 13.3485 10 15.7154 10H24.2868C26.6538 10 28.5725 11.9187 28.5725 14.2857V31.4286C28.5725 33.7956 26.6538 35.7143 24.2868 35.7143H11.4297V14.2857Z" fill="black" fill-opacity="0.3"/>
<path d="M22.8571 7.14355H2.85714C1.27919 7.14355 0 8.42274 0 10.0007V30.0007C0 31.5787 1.27919 32.8578 2.85714 32.8578H22.8571C24.4351 32.8578 25.7143 31.5787 25.7143 30.0007V10.0007C25.7143 8.42274 24.4351 7.14355 22.8571 7.14355Z" fill="url(#paint1_linear_1216_1487)"/>
<path d="M18.577 27.1422V12.8564H15.5617V21.183L9.95287 12.8564H7.14844V27.1422H10.1216V18.5094L15.9413 27.1422H18.577Z" fill="white"/>
<defs>
<linearGradient id="paint0_linear_1216_1487" x1="11.4297" y1="20" x2="35.0011" y2="20" gradientUnits="userSpaceOnUse">
<stop stop-color="#8C42AC"/>
<stop offset="1" stop-color="#C36DEF"/>
</linearGradient>
<linearGradient id="paint1_linear_1216_1487" x1="0" y1="20.0007" x2="27.1429" y2="20.0007" gradientUnits="userSpaceOnUse">
<stop stop-color="#44176C"/>
<stop offset="1" stop-color="#621F9C"/>
</linearGradient>
</defs>
</svg>
