<svg width="47" height="40" viewBox="0 0 47 40" fill="none" xmlns="http://www.w3.org/2000/svg">
<path d="M20.8365 0.50473L3.43864 7.88122C2.47114 8.29149 2.48116 9.6996 3.45473 10.095L20.9253 17.1939C22.4605 17.8177 24.1699 17.8177 25.7048 17.1939L43.1757 10.095C44.149 9.6996 44.1593 8.29149 43.1915 7.88122L25.794 0.50473C24.2066 -0.168243 22.4235 -0.168243 20.8365 0.50473Z" fill="#FFBF00"/>
<path d="M24.8672 21.0701V38.8041C24.8672 39.6476 25.6973 40.2252 26.4625 39.9144L45.93 32.1717C46.3745 31.9911 46.666 31.5511 46.666 31.0614V13.3273C46.666 12.4838 45.8359 11.9063 45.0707 12.2171L25.6031 19.9598C25.1589 20.1403 24.8672 20.5803 24.8672 21.0701Z" fill="#26B5F8"/>
<path d="M20.3201 21.9851L14.5425 24.8435L13.9559 25.134L1.75985 31.1219C0.986753 31.504 0 30.9267 0 30.0467V13.4018C0 13.0835 0.159315 12.8086 0.372967 12.6016C0.46212 12.5099 0.563143 12.4345 0.668122 12.3748C0.959585 12.1956 1.37528 12.1478 1.72873 12.291L20.223 19.7994C21.1631 20.1816 21.2369 21.5313 20.3201 21.9851Z" fill="#ED3049"/>
<path d="M20.3221 21.9851L14.5446 24.8435L0.375 12.6016C0.464153 12.5099 0.565176 12.4345 0.670156 12.3748C0.961618 12.1956 1.37732 12.1478 1.73076 12.291L20.2251 19.7994C21.1651 20.1816 21.239 21.5313 20.3221 21.9851Z" fill="black" fill-opacity="0.25"/>
</svg>
