<svg width="40" height="40" viewBox="0 0 40 40" fill="none" xmlns="http://www.w3.org/2000/svg">
<path d="M20 40C31.0457 40 40 31.0457 40 20C40 8.9543 31.0457 0 20 0C8.9543 0 0 8.9543 0 20C0 31.0457 8.9543 40 20 40Z" fill="#0077B5"/>
<path fill-rule="evenodd" clip-rule="evenodd" d="M14.7747 10.2829C14.7747 11.528 13.8267 12.5356 12.3442 12.5356C10.9194 12.5356 9.97126 11.528 10.0007 10.2829C9.97126 8.97732 10.9193 7.99902 12.3726 7.99902C13.8267 7.99902 14.7463 8.97732 14.7747 10.2829ZM10.1199 28.8181V14.3152H14.6271V28.8171L10.1199 28.8181Z" fill="white"/>
<path fill-rule="evenodd" clip-rule="evenodd" d="M18.2442 18.9441C18.2442 17.1352 18.1846 15.593 18.125 14.3177H22.04L22.2481 16.3045H22.3371C22.9303 15.3849 24.4128 13.9922 26.815 13.9922C29.7801 13.9922 32.0044 15.9497 32.0044 20.2185V28.8205H27.4971V20.7833C27.4971 18.9139 26.8453 17.6394 25.2142 17.6394C23.9682 17.6394 23.2273 18.4994 22.9312 19.3292C22.812 19.6263 22.7533 20.0407 22.7533 20.4569V28.8205H18.246V18.9441H18.2442Z" fill="white"/>
</svg>
