<svg width="12" height="17" viewBox="0 0 12 17" fill="none" xmlns="http://www.w3.org/2000/svg">
<path fill-rule="evenodd" clip-rule="evenodd" d="M7.33357 0.378966C7.64731 0.48047 7.86111 0.782849 7.86111 1.12506V6.13085H11C11.2785 6.13085 11.5341 6.29162 11.6638 6.54839C11.7934 6.80515 11.7758 7.11562 11.618 7.3547L5.50692 16.614C5.32081 16.896 4.98017 17.019 4.66643 16.9174C4.35269 16.8159 4.13889 16.5136 4.13889 16.1714V11.1656H1C0.721482 11.1656 0.4659 11.0048 0.336235 10.748C0.206571 10.4913 0.224181 10.1808 0.38197 9.94172L6.49308 0.682458C6.6792 0.400463 7.01984 0.277462 7.33357 0.378966ZM2.42577 9.60307H4.88889C5.3031 9.60307 5.63889 9.95285 5.63889 10.3843V13.656L9.57423 7.69335H7.11111C6.6969 7.69335 6.36111 7.34357 6.36111 6.9121V3.64043L2.42577 9.60307Z" fill="#475569"/>
</svg>
