<svg width="12" height="16" viewBox="0 0 12 16" fill="none" xmlns="http://www.w3.org/2000/svg">
<path d="M10.5833 6.33366C10.5833 7.83366 9.86242 9.16699 8.74659 10.0028L9.24659 10.6695C9.92075 10.1655 10.468 9.51109 10.8447 8.75837C11.2214 8.00565 11.4172 7.17539 11.4166 6.33366H10.5833ZM5.99992 1.75033C7.2155 1.75033 8.38129 2.23321 9.24083 3.09275C10.1004 3.95229 10.5833 5.11808 10.5833 6.33366H11.4166C11.4166 4.89707 10.8459 3.51932 9.83008 2.5035C8.81426 1.48767 7.43651 0.916992 5.99992 0.916992V1.75033ZM1.41659 6.33366C1.41659 5.11808 1.89947 3.95229 2.75901 3.09275C3.61856 2.23321 4.78434 1.75033 5.99992 1.75033V0.916992C4.56333 0.916992 3.18558 1.48767 2.16976 2.5035C1.15394 3.51932 0.583254 4.89707 0.583254 6.33366H1.41659ZM3.25325 10.0028C2.68259 9.57645 2.21938 9.0227 1.90051 8.38569C1.58164 7.74869 1.41594 7.04602 1.41659 6.33366H0.583254C0.582604 7.17539 0.778433 8.00565 1.15515 8.75837C1.53188 9.51109 2.07909 10.1655 2.75325 10.6695L3.25325 10.0028ZM4.74742 14.4612C4.72197 13.2426 4.47019 12.0394 4.00492 10.9128L3.23492 11.2303C3.65992 12.2587 3.89159 13.3612 3.91492 14.4787L4.74742 14.4612ZM7.30409 14.382C6.89915 14.5844 6.45264 14.6898 5.99992 14.6898C5.5472 14.6898 5.1007 14.5844 4.69575 14.382L4.32325 15.1278C4.84386 15.3881 5.4179 15.5235 5.99992 15.5235C6.58194 15.5235 7.15598 15.3881 7.67659 15.1278L7.30409 14.382ZM7.99575 10.9128C7.5301 12.0396 7.27804 13.2431 7.25242 14.462L8.08575 14.4787C8.10825 13.3612 8.33992 12.2595 8.76492 11.2312L7.99575 10.9128ZM7.67659 15.1278C7.79734 15.0671 7.89921 14.9745 7.97117 14.8601C8.04314 14.7457 8.08247 14.6138 8.08492 14.4787L7.25159 14.462C7.25212 14.4451 7.25731 14.4287 7.26657 14.4146C7.27583 14.4005 7.28882 14.3892 7.30409 14.382L7.67659 15.1278ZM3.91492 14.4787C3.91737 14.6138 3.9567 14.7457 4.02867 14.8601C4.10063 14.9745 4.2025 15.0671 4.32325 15.1278L4.69575 14.382C4.71075 14.3893 4.72348 14.4005 4.73258 14.4144C4.74168 14.4284 4.74681 14.4445 4.74742 14.4612L3.91492 14.4787ZM2.75325 10.6703C3.01825 10.8687 3.07825 10.9178 3.10325 10.9503L3.76159 10.4395C3.64909 10.2945 3.46742 10.1645 3.25325 10.0028L2.75325 10.6703ZM4.00492 10.9128C3.93242 10.7378 3.87159 10.582 3.76159 10.4395L3.10325 10.9503C3.12992 10.9853 3.14825 11.0212 3.23492 11.2303L4.00492 10.9128ZM8.74659 10.0037C8.53242 10.1637 8.35075 10.2953 8.23825 10.4395L8.89659 10.9503C8.92159 10.9178 8.98075 10.8687 9.24659 10.6695L8.74659 10.0037ZM8.76492 11.2312C8.85159 11.022 8.86992 10.9853 8.89742 10.9503L8.23909 10.4395C8.12825 10.582 8.06742 10.7378 7.99492 10.9128L8.76492 11.2312Z" fill="#475569"/>
<path d="M8.08317 11.75C6.74582 12.2851 5.25386 12.2851 3.9165 11.75" stroke="#475569"/>
<path d="M5.16659 9.66732V6.12565C5.16659 5.55065 4.69992 5.08398 4.12492 5.08398C3.54992 5.08398 3.08325 5.55065 3.08325 6.12565C3.08325 6.70065 3.54992 7.16732 4.12492 7.16732H7.87492C8.44992 7.16732 8.91659 6.70065 8.91659 6.12565C8.91659 5.55065 8.44992 5.08398 7.87492 5.08398C7.29992 5.08398 6.83325 5.55065 6.83325 6.12565V9.66732" stroke="#475569" stroke-linecap="round"/>
</svg>
