<svg width="14" height="15" viewBox="0 0 14 15" fill="none" xmlns="http://www.w3.org/2000/svg">
<path d="M7.198 0.536133C8.18624 0.577043 9.14282 0.923526 9.87573 1.53613C10.6613 2.19296 11.1364 3.11594 11.1365 4.11328V5.38574H12.321L12.3982 5.38965C12.7762 5.42818 13.0709 5.7476 13.071 6.13574V13.416C13.0709 13.8301 12.7352 14.166 12.321 14.166H1.67749C1.26336 14.166 0.927628 13.8301 0.92749 13.416V6.13574L0.931396 6.05859C0.970107 5.68072 1.28939 5.38574 1.67749 5.38574H2.86304V4.11328C2.86314 3.1159 3.33814 2.19297 4.12378 1.53613C4.90561 0.882577 5.94184 0.532252 6.99976 0.532227L7.198 0.536133ZM2.42749 12.666H11.571V6.88574H2.42749V12.666ZM6.99976 2.03223C6.26143 2.03225 5.57403 2.27832 5.08569 2.68652C4.60139 3.09139 4.36314 3.60924 4.36304 4.11328V5.38574H9.63647V4.11328C9.63637 3.60927 9.39806 3.09138 8.91382 2.68652C8.48659 2.32945 7.90678 2.09673 7.27417 2.04395L6.99976 2.03223Z" fill="#475569"/>
</svg>
