<svg width="18" height="14" viewBox="0 0 18 14" fill="none" xmlns="http://www.w3.org/2000/svg">
<path d="M9.26562 0.416016C9.67974 0.416127 10.0156 0.751871 10.0156 1.16602V2.5752H12.334C13.8526 2.5754 15.084 3.80654 15.084 5.3252V5.48438H15.2734C16.2399 5.48441 17.0234 6.2679 17.0234 7.23438V9.11328C17.0234 10.0797 16.2399 10.8632 15.2734 10.8633H15.084V11.0225C15.0838 12.5409 13.8525 13.7723 12.334 13.7725H5.66699C4.14834 13.7725 2.9172 12.5411 2.91699 11.0225V10.8633H2.72754C1.76114 10.8633 0.977699 10.0796 0.977539 9.11328V7.23438C0.97754 6.26788 1.76104 5.48438 2.72754 5.48438H2.91699V5.3252C2.91699 3.80641 4.14821 2.5752 5.66699 2.5752H8.51562V1.16602C8.51562 0.751802 8.85141 0.416016 9.26562 0.416016ZM5.66699 4.0752C4.97664 4.0752 4.41699 4.63484 4.41699 5.3252V11.0225C4.4172 11.7126 4.97676 12.2725 5.66699 12.2725H12.334C13.024 12.2723 13.5838 11.7125 13.584 11.0225V5.3252C13.584 4.63497 13.0242 4.0754 12.334 4.0752H5.66699ZM2.72754 6.98438C2.58947 6.98438 2.47754 7.0963 2.47754 7.23438V9.11328C2.4777 9.25121 2.58957 9.36328 2.72754 9.36328H2.91699V6.98438H2.72754ZM15.084 9.36328H15.2734C15.4114 9.36325 15.5234 9.25128 15.5234 9.11328V7.23438C15.5234 7.09632 15.4115 6.98441 15.2734 6.98438H15.084V9.36328ZM7.32617 6.23438C7.74032 6.23446 8.07617 6.57021 8.07617 6.98438V8.39355L8.07227 8.46973C8.03398 8.84799 7.71452 9.14348 7.32617 9.14355C6.93777 9.14355 6.61838 8.84803 6.58008 8.46973L6.57617 8.39355V6.98438C6.57617 6.57016 6.91196 6.23438 7.32617 6.23438ZM11.2051 6.23438C11.6193 6.23438 11.9551 6.57016 11.9551 6.98438V8.39355L11.9512 8.46973C11.913 8.84812 11.5935 9.14355 11.2051 9.14355C10.8166 9.14355 10.4972 8.84812 10.459 8.46973L10.4551 8.39355V6.98438C10.4551 6.57016 10.7909 6.23438 11.2051 6.23438Z" fill="#475569"/>
</svg>
