<svg width="16" height="16" viewBox="0 0 16 16" fill="none" xmlns="http://www.w3.org/2000/svg">
<path d="M12.9619 9.53125C13.3761 9.53125 13.7119 9.86704 13.7119 10.2812V11.835H15.1729L15.25 11.8389C15.628 11.8774 15.9229 12.1968 15.9229 12.585C15.9228 12.9732 15.628 13.2925 15.25 13.3311L15.1729 13.335H13.7119V14.8887C13.7118 15.3028 13.3761 15.6387 12.9619 15.6387C12.5478 15.6387 12.212 15.3028 12.2119 14.8887V13.335H10.75C10.3358 13.3349 10 12.9991 10 12.585C10 12.1708 10.3358 11.835 10.75 11.835H12.2119V10.2812C12.2119 9.86705 12.5477 9.53127 12.9619 9.53125ZM12.3457 0.125C12.7678 0.126273 13.1819 0.289467 13.4951 0.59375C13.8101 0.899729 13.9985 1.32641 14 1.78418V7.34082C13.9998 7.77214 13.6641 8.12207 13.25 8.12207C12.8359 8.12205 12.5002 7.77213 12.5 7.34082V5.40918H1.50586V11.8057C1.50586 11.8057 1.5088 11.8116 1.51465 11.8174C1.52923 11.8316 1.55998 11.8486 1.60156 11.8486H8.19434C8.60855 11.8486 8.94434 12.1984 8.94434 12.6299C8.94422 13.0613 8.60848 13.4111 8.19434 13.4111H1.60156C1.19459 13.4111 0.794802 13.2539 0.492188 12.96C0.187854 12.6642 0.00585938 12.251 0.00585938 11.8076V1.78809C0.00738298 1.32925 0.195984 0.901472 0.511719 0.594727C0.82572 0.289679 1.2409 0.126338 1.66406 0.125H12.3457ZM1.66797 1.6875C1.60914 1.68786 1.56224 1.71111 1.53516 1.7373C1.51018 1.76157 1.50602 1.78288 1.50586 1.79297V3.84668H12.5V1.78906C12.4999 1.78015 12.4966 1.75972 12.4727 1.73633C12.4465 1.71091 12.4004 1.68794 12.3428 1.6875H1.66797Z" fill="#475569"/>
</svg>
