<svg width="24" height="24" viewBox="0 0 24 24" fill="none" xmlns="http://www.w3.org/2000/svg">
<g clip-path="url(#clip0_129_2278)">
<path d="M22.0334 2.4397H1.96712C1.21857 2.4397 0.609619 3.04865 0.609619 3.7972V20.2042C0.609619 20.9519 1.21862 21.5603 1.96712 21.5603H22.0334C22.7819 21.5603 23.3909 20.9519 23.3909 20.2042V3.7972C23.3909 3.04865 22.7819 2.4397 22.0334 2.4397ZM1.96712 3.0022H22.0334C22.4717 3.0022 22.8284 3.35882 22.8284 3.7972V5.7681H1.17212V3.7972C1.17212 3.35882 1.52874 3.0022 1.96712 3.0022ZM22.0334 20.9979H1.96712C1.52874 20.9979 1.17212 20.6418 1.17212 20.2042V6.33065H22.8284V20.2042C22.8284 20.6418 22.4717 20.9979 22.0334 20.9979ZM5.30884 4.38585C5.30884 4.20379 5.45767 4.05632 5.63837 4.05632C5.68165 4.05632 5.7245 4.06484 5.76448 4.08139C5.80447 4.09795 5.8408 4.12222 5.8714 4.15283C5.902 4.18343 5.92627 4.21976 5.94283 4.25974C5.95939 4.29972 5.96791 4.34258 5.9679 4.38585C5.9679 4.56656 5.82043 4.71538 5.63837 4.71538C5.45767 4.71538 5.30884 4.56656 5.30884 4.38585ZM3.6692 4.38585C3.6692 4.20379 3.81667 4.05632 3.99873 4.05632C4.18079 4.05632 4.32826 4.20379 4.32826 4.38585C4.32826 4.56656 4.18079 4.71538 3.99873 4.71538C3.81667 4.71538 3.6692 4.56656 3.6692 4.38585ZM6.94984 4.38585C6.94983 4.34258 6.95834 4.29972 6.9749 4.25973C6.99145 4.21975 7.01573 4.18341 7.04633 4.15281C7.07693 4.12221 7.11326 4.09794 7.15325 4.08138C7.19323 4.06482 7.23609 4.05631 7.27937 4.05632C7.46007 4.05632 7.6089 4.20379 7.6089 4.38585C7.6089 4.56656 7.46007 4.71538 7.27937 4.71538C7.09735 4.71538 6.94984 4.56656 6.94984 4.38585ZM10.482 4.38585C10.482 4.31126 10.5116 4.23972 10.5643 4.18698C10.6171 4.13424 10.6886 4.1046 10.7632 4.1046H20.0018C20.0764 4.1046 20.1479 4.13424 20.2006 4.18698C20.2534 4.23972 20.283 4.31126 20.283 4.38585C20.283 4.46045 20.2534 4.53198 20.2006 4.58473C20.1479 4.63747 20.0764 4.6671 20.0018 4.6671H10.7632C10.6886 4.6671 10.6171 4.63747 10.5643 4.58473C10.5116 4.53198 10.482 4.46045 10.482 4.38585ZM7.3892 7.60931V19.7205C7.3892 19.7951 7.35957 19.8667 7.30682 19.9194C7.25408 19.9722 7.18254 20.0018 7.10795 20.0018C7.03335 20.0018 6.96182 19.9722 6.90907 19.9194C6.85633 19.8667 6.8267 19.7951 6.8267 19.7205V7.60931C6.8267 7.53471 6.85633 7.46318 6.90907 7.41043C6.96182 7.35769 7.03335 7.32806 7.10795 7.32806C7.18254 7.32806 7.25408 7.35769 7.30682 7.41043C7.35957 7.46318 7.3892 7.53471 7.3892 7.60931ZM20.8572 12.6861L19.8277 12.2101L19.4745 11.3556L19.8658 10.2921C19.8843 10.2417 19.8881 10.1871 19.8765 10.1346C19.865 10.0822 19.8387 10.0341 19.8007 9.99613L18.7776 8.97299C18.7397 8.93503 18.6916 8.90873 18.6392 8.89719C18.5868 8.88565 18.5321 8.88936 18.4817 8.90788L17.417 9.29915L16.5624 8.94487L16.0876 7.91662C16.0651 7.86785 16.0291 7.82654 15.9838 7.79759C15.9386 7.76864 15.886 7.75326 15.8323 7.75326H14.384C14.3303 7.75326 14.2777 7.76864 14.2324 7.79759C14.1872 7.82654 14.1512 7.86785 14.1287 7.91662L13.6539 8.94487L12.7994 9.29915L11.736 8.90793C11.6856 8.88939 11.631 8.88565 11.5786 8.89716C11.5261 8.90867 11.4781 8.93496 11.4401 8.9729L10.4157 9.99604C10.3777 10.034 10.3513 10.0822 10.3398 10.1347C10.3282 10.1872 10.332 10.2419 10.3506 10.2924L10.743 11.3556L10.3888 12.2101L9.35907 12.6861C9.31034 12.7087 9.26907 12.7447 9.24015 12.7899C9.21122 12.8352 9.19585 12.8877 9.19585 12.9414V14.3884C9.19585 14.4421 9.21122 14.4947 9.24015 14.5399C9.26907 14.5852 9.31034 14.6212 9.35907 14.6437L10.3888 15.1198L10.743 15.9742L10.3506 17.0375C10.332 17.0879 10.3282 17.1426 10.3398 17.1952C10.3513 17.2477 10.3777 17.2958 10.4157 17.3338L11.4401 18.3569C11.4781 18.3949 11.5261 18.4212 11.5786 18.4327C11.631 18.4442 11.6856 18.4405 11.736 18.4219L12.7994 18.0307L13.6539 18.385L14.1287 19.4132C14.1512 19.462 14.1872 19.5033 14.2324 19.5323C14.2777 19.5612 14.3303 19.5766 14.384 19.5766H15.8323C15.942 19.5766 16.0416 19.5128 16.0876 19.4132L16.5624 18.385L17.4169 18.0307L18.4817 18.422C18.5321 18.4405 18.5867 18.4442 18.6392 18.4327C18.6916 18.4211 18.7396 18.3948 18.7776 18.3569L19.8007 17.3337C19.8386 17.2957 19.8649 17.2477 19.8765 17.1952C19.888 17.1428 19.8843 17.0881 19.8657 17.0377L19.4745 15.9742L19.8276 15.1197L20.8572 14.6437C20.9059 14.6212 20.9472 14.5852 20.9761 14.5399C21.005 14.4947 21.0204 14.4421 21.0204 14.3884V12.9414C21.0204 12.8877 21.005 12.8352 20.9761 12.7899C20.9472 12.7447 20.9059 12.7087 20.8572 12.6861H20.8572ZM20.4579 14.2086L19.4918 14.6553C19.4275 14.685 19.3769 14.7378 19.3499 14.8032L18.9127 15.8608C18.8857 15.9261 18.8843 15.9991 18.9087 16.0654L19.2758 17.0632L18.507 17.832L17.5078 17.4648C17.4415 17.4405 17.3684 17.4419 17.3031 17.469L16.2454 17.9075C16.1801 17.9345 16.1274 17.9852 16.0978 18.0494L15.6524 19.0141H14.5639L14.1185 18.0494C14.0889 17.9852 14.0362 17.9345 13.9709 17.9075L12.9133 17.469C12.8479 17.4419 12.7748 17.4404 12.7084 17.4649L11.7105 17.832L10.9408 17.0632L11.3089 16.0657C11.3334 15.9992 11.332 15.926 11.3049 15.8606L10.8664 14.8029C10.8393 14.7377 10.7887 14.685 10.7246 14.6554L9.75845 14.2087V13.1213L10.7246 12.6746C10.7887 12.6449 10.8394 12.5923 10.8664 12.527L11.3049 11.4694C11.332 11.404 11.3334 11.3307 11.3089 11.2643L10.9408 10.2667L11.7105 9.49795L12.7084 9.86507C12.7748 9.88953 12.8479 9.88806 12.9133 9.86095L13.9709 9.42248C14.0362 9.39542 14.0889 9.34476 14.1185 9.28059L14.5639 8.31585H15.6524L16.0978 9.28059C16.1274 9.34476 16.1801 9.39542 16.2454 9.42248L17.3031 9.86095C17.3684 9.888 17.4414 9.88949 17.5078 9.86512L18.507 9.49795L19.2758 10.2667L18.9087 11.2646C18.8843 11.3308 18.8857 11.4039 18.9127 11.4691L19.3499 12.5268C19.3769 12.5922 19.4275 12.645 19.4918 12.6746L20.4579 13.1213V14.2087V14.2086ZM15.1081 10.1994C13.1976 10.1994 11.6432 11.7537 11.6432 13.6642C11.6432 15.5748 13.1976 17.1304 15.1081 17.1304C17.0186 17.1304 18.5743 15.5755 18.5743 13.6642C18.5743 11.753 17.0194 10.1994 15.1081 10.1994ZM15.1081 16.5679C14.2972 16.5679 13.5633 16.2331 13.0362 15.6949V15.6148C13.0362 15.0291 14.104 14.7131 15.1088 14.7131C15.6783 14.7131 16.2264 14.812 16.6123 14.9844C16.8719 15.1004 17.1813 15.3038 17.1813 15.6148V15.6944C16.6539 16.2329 15.9196 16.5679 15.1081 16.5679ZM15.1081 14.05C14.4956 14.05 14.2201 13.3054 14.2201 12.7767C14.2201 12.2863 14.6185 11.8873 15.1081 11.8873C15.5977 11.8873 15.9975 12.2863 15.9975 12.7767C15.9975 13.1921 15.7801 14.05 15.1081 14.05ZM17.62 15.118C17.3654 14.6453 16.7446 14.3557 16.0207 14.2279C16.3745 13.8703 16.5599 13.3135 16.5599 12.7767C16.5599 11.9761 15.9086 11.3249 15.1081 11.3249C14.3075 11.3249 13.6576 11.9761 13.6576 12.7767C13.6576 13.3135 13.8428 13.8704 14.1964 14.228C13.4726 14.3558 12.8519 14.6455 12.5974 15.1182C12.3405 14.6767 12.2053 14.175 12.2057 13.6643C12.2057 12.0639 13.5077 10.7619 15.1081 10.7619C16.7085 10.7619 18.0118 12.0639 18.0118 13.6643C18.0122 14.175 17.877 14.6767 17.62 15.118V15.118ZM5.79606 8.2431C5.79606 8.3177 5.76643 8.38923 5.71368 8.44198C5.66094 8.49472 5.5894 8.52435 5.51481 8.52435H2.48265C2.40806 8.52435 2.33652 8.49472 2.28378 8.44198C2.23103 8.38923 2.2014 8.3177 2.2014 8.2431C2.2014 8.16851 2.23103 8.09697 2.28378 8.04423C2.33652 7.99149 2.40806 7.96185 2.48265 7.96185H5.51481C5.5894 7.96185 5.66094 7.99149 5.71368 8.04423C5.76643 8.09697 5.79606 8.16851 5.79606 8.2431ZM5.79606 10.0501C5.79606 10.1247 5.76643 10.1963 5.71368 10.249C5.66094 10.3018 5.5894 10.3314 5.51481 10.3314H2.48265C2.40806 10.3314 2.33652 10.3018 2.28378 10.249C2.23103 10.1963 2.2014 10.1247 2.2014 10.0501C2.2014 9.97554 2.23103 9.90401 2.28378 9.85126C2.33652 9.79852 2.40806 9.76888 2.48265 9.76888H5.51481C5.5894 9.76888 5.66094 9.79852 5.71368 9.85126C5.76643 9.90401 5.79606 9.97554 5.79606 10.0501ZM5.79606 11.8572C5.79606 11.9318 5.76643 12.0033 5.71368 12.0561C5.66094 12.1088 5.5894 12.1385 5.51481 12.1385H2.48265C2.40806 12.1385 2.33652 12.1088 2.28378 12.0561C2.23103 12.0033 2.2014 11.9318 2.2014 11.8572C2.2014 11.7826 2.23103 11.7111 2.28378 11.6583C2.33652 11.6056 2.40806 11.576 2.48265 11.576H5.51481C5.5894 11.576 5.66094 11.6056 5.71368 11.6583C5.76643 11.7111 5.79606 11.7826 5.79606 11.8572ZM5.79606 13.6642C5.79606 13.7388 5.76643 13.8104 5.71368 13.8631C5.66094 13.9159 5.5894 13.9455 5.51481 13.9455H2.48265C2.40806 13.9455 2.33652 13.9159 2.28378 13.8631C2.23103 13.8104 2.2014 13.7388 2.2014 13.6642C2.2014 13.5897 2.23103 13.5181 2.28378 13.4654C2.33652 13.4126 2.40806 13.383 2.48265 13.383H5.51481C5.5894 13.383 5.66094 13.4126 5.71368 13.4654C5.76643 13.5181 5.79606 13.5897 5.79606 13.6642ZM5.79606 15.4726C5.79606 15.5472 5.76643 15.6188 5.71368 15.6715C5.66094 15.7243 5.5894 15.7539 5.51481 15.7539H2.48265C2.40806 15.7539 2.33652 15.7243 2.28378 15.6715C2.23103 15.6188 2.2014 15.5472 2.2014 15.4726C2.2014 15.398 2.23103 15.3265 2.28378 15.2738C2.33652 15.221 2.40806 15.1914 2.48265 15.1914H5.51481C5.5894 15.1914 5.66094 15.221 5.71368 15.2738C5.76643 15.3265 5.79606 15.398 5.79606 15.4726ZM5.79606 17.2797C5.79606 17.3543 5.76643 17.4258 5.71368 17.4785C5.66094 17.5313 5.5894 17.5609 5.51481 17.5609H2.48265C2.40806 17.5609 2.33652 17.5313 2.28378 17.4785C2.23103 17.4258 2.2014 17.3543 2.2014 17.2797C2.2014 17.2051 2.23103 17.1335 2.28378 17.0808C2.33652 17.028 2.40806 16.9984 2.48265 16.9984H5.51481C5.5894 16.9984 5.66094 17.028 5.71368 17.0808C5.76643 17.1335 5.79606 17.2051 5.79606 17.2797ZM5.79606 19.0867C5.79606 19.1613 5.76643 19.2329 5.71368 19.2856C5.66094 19.3384 5.5894 19.368 5.51481 19.368H2.48265C2.40806 19.368 2.33652 19.3384 2.28378 19.2856C2.23103 19.2329 2.2014 19.1613 2.2014 19.0867C2.2014 19.0122 2.23103 18.9406 2.28378 18.8879C2.33652 18.8351 2.40806 18.8055 2.48265 18.8055H5.51481C5.5894 18.8055 5.66094 18.8351 5.71368 18.8879C5.76643 18.9406 5.79606 19.0122 5.79606 19.0867Z" fill="black"/>
</g>
<defs>
<clipPath id="clip0_129_2278">
<rect width="24" height="24" fill="white" transform="translate(0.000244141)"/>
</clipPath>
</defs>
</svg>
