<svg width="24" height="24" viewBox="0 0 24 24" fill="none" xmlns="http://www.w3.org/2000/svg">
<path d="M22.0002 11.5H19.5002V9.8H21.1002C21.3802 9.8 21.6002 9.58 21.6002 9.3C21.6002 9.02 21.3802 8.8 21.1002 8.8H19.5002V7.75C19.5002 6.51 18.4902 5.5 17.2502 5.5H16.5002V3.9C16.5002 3.62 16.2802 3.4 16.0002 3.4C15.7202 3.4 15.5002 3.62 15.5002 3.9V5.5H14.5002V3C14.5002 2.72 14.2802 2.5 14.0002 2.5C13.7202 2.5 13.5002 2.72 13.5002 3V5.5H12.5002V4.02C12.5002 2.63 11.3602 1.5 9.96023 1.5C8.92023 1.5 8.01023 2.13 7.62023 3.05C7.08435 2.93489 6.52746 2.96486 6.00703 3.13682C5.4866 3.30879 5.02149 3.61652 4.65969 4.02825C4.2979 4.43998 4.05253 4.9408 3.94891 5.47902C3.84529 6.01725 3.88717 6.57337 4.07023 7.09C3.27683 7.6404 2.62798 8.37417 2.17882 9.22898C1.72965 10.0838 1.49344 11.0344 1.49023 12C1.49344 12.9656 1.72965 13.9162 2.17882 14.771C2.62798 15.6258 3.27683 16.3596 4.07023 16.91C3.88717 17.4266 3.84529 17.9828 3.94891 18.521C4.05253 19.0592 4.2979 19.56 4.65969 19.9717C5.02149 20.3835 5.4866 20.6912 6.00703 20.8632C6.52746 21.0351 7.08435 21.0651 7.62023 20.95C8.00023 21.87 8.92023 22.5 9.96023 22.5C11.3602 22.5 12.5002 21.37 12.5002 19.98V18.5H13.5002V21C13.5002 21.28 13.7202 21.5 14.0002 21.5C14.2802 21.5 14.5002 21.28 14.5002 21V18.5H15.5002V20.1C15.5002 20.38 15.7202 20.6 16.0002 20.6C16.2802 20.6 16.5002 20.38 16.5002 20.1V18.5H17.2502C18.4902 18.5 19.5002 17.49 19.5002 16.25V15.2H21.1002C21.3802 15.2 21.6002 14.98 21.6002 14.7C21.6002 14.42 21.3802 14.2 21.1002 14.2H19.5002V12.5H22.0002C22.2802 12.5 22.5002 12.28 22.5002 12C22.5002 11.72 22.2802 11.5 22.0002 11.5ZM11.5002 19.98C11.5002 20.82 10.8102 21.5 9.96023 21.5C9.28023 21.5 8.72023 21.06 8.52024 20.43L9.39023 19.3C9.56024 19.08 9.52024 18.77 9.30023 18.6C9.08024 18.43 8.77024 18.47 8.60023 18.69L7.68023 19.88C7.45023 19.96 7.21023 20.01 6.97023 20.01C5.82023 20.01 4.89023 19.08 4.89023 17.94C4.89023 17.64 4.97023 17.35 5.09023 17.08L6.24023 16.42C6.48023 16.28 6.56023 15.98 6.42023 15.74C6.28023 15.5 5.97023 15.42 5.74023 15.56L4.74023 16.14C3.35023 15.22 2.49023 13.66 2.49023 12C2.49023 10.34 3.35023 8.78 4.74023 7.86L5.74023 8.44C5.82023 8.48 5.90023 8.51 5.99023 8.51C6.16023 8.51 6.33023 8.42 6.42023 8.26C6.56023 8.02 6.47023 7.72 6.24023 7.58L5.09023 6.92C4.97023 6.65 4.89023 6.36 4.89023 6.06C4.89023 4.92 5.82023 3.99 6.97023 3.99C7.22023 3.99 7.45023 4.04 7.68023 4.12L8.60023 5.31C8.70023 5.44 8.85023 5.5 9.00023 5.5C9.09372 5.50153 9.18573 5.47661 9.26566 5.42811C9.34559 5.37961 9.41019 5.30951 9.452 5.22588C9.49382 5.14226 9.51114 5.04852 9.50198 4.95547C9.49282 4.86243 9.45755 4.77387 9.40023 4.7L8.53023 3.57C8.73023 2.95 9.29024 2.5 9.97023 2.5C10.8202 2.5 11.5102 3.18 11.5102 4.02V19.97L11.5002 19.98ZM18.5002 16.25C18.5002 16.94 17.9402 17.5 17.2502 17.5H12.5002V13.5H15.2002V14.19C14.6202 14.4 14.2002 14.95 14.2002 15.6C14.2002 16.43 14.8702 17.1 15.7002 17.1C16.5302 17.1 17.2002 16.43 17.2002 15.6C17.2002 14.95 16.7802 14.4 16.2002 14.19V13C16.2002 12.72 15.9802 12.5 15.7002 12.5H12.5002V11.7H15.7002C15.9802 11.7 16.2002 11.48 16.2002 11.2V10.01C16.7802 9.8 17.2002 9.25 17.2002 8.6C17.2002 7.77 16.5302 7.1 15.7002 7.1C14.8702 7.1 14.2002 7.77 14.2002 8.6C14.2002 9.25 14.6202 9.8 15.2002 10.01V10.7H12.5002V6.5H17.2502C17.9402 6.5 18.5002 7.06 18.5002 7.75V16.25ZM15.7002 15.1C15.9802 15.1 16.2002 15.32 16.2002 15.6C16.2002 15.88 15.9802 16.1 15.7002 16.1C15.4202 16.1 15.2002 15.88 15.2002 15.6C15.2002 15.32 15.4202 15.1 15.7002 15.1ZM15.7002 9.1C15.4202 9.1 15.2002 8.88 15.2002 8.6C15.2002 8.32 15.4202 8.1 15.7002 8.1C15.9802 8.1 16.2002 8.32 16.2002 8.6C16.2002 8.88 15.9802 9.1 15.7002 9.1Z" fill="black"/>
</svg>
