<svg width="24" height="24" viewBox="0 0 24 24" fill="none" xmlns="http://www.w3.org/2000/svg">
<g clip-path="url(#clip0_129_2266)">
<path fill-rule="evenodd" clip-rule="evenodd" d="M5.69298 21.2707L5.96771 21.7561L5.96827 21.7571C6.21175 22.1902 6.05731 22.7429 5.62667 22.9862L4.62441 23.5542L4.62328 23.5549C4.19015 23.7984 3.63745 23.644 3.39406 23.2131L0.446813 18.0053C0.201072 17.5718 0.355519 17.0185 0.786766 16.775L1.79015 16.2069L1.79048 16.2067C2.2215 15.9633 2.77439 16.1163 3.01985 16.5473L3.02032 16.5481L3.24135 16.9387L5.84738 15.4299C6.64187 14.9704 7.45397 14.672 8.32658 14.9553C9.16973 15.2288 10.5462 15.8183 11.951 16.0721C11.9677 16.0751 11.984 16.0792 12.0001 16.0844C12.7204 16.3177 13.1579 17.0462 12.9612 17.7777C12.9366 17.8705 12.9037 17.9608 12.863 18.0477C12.9986 18.0054 13.1316 17.9467 13.2625 17.8704L16.8362 15.789C18.1381 15.0306 19.0064 15.116 19.4977 15.4456C19.923 15.731 20.1206 16.2181 20.1078 16.6964C20.095 17.1798 19.864 17.6413 19.4849 17.8748L13.0003 21.8673C12.3129 22.2915 11.5601 22.3912 10.7801 22.1831L10.7797 22.183L6.22644 20.9627L5.69298 21.2707ZM5.31199 22.1262L2.3655 16.9198C2.32451 16.848 2.2326 16.8218 2.16079 16.8623L1.15768 17.4302L1.15735 17.4304C1.08601 17.4707 1.06121 17.5624 1.10183 17.634L1.10197 17.6342L4.04935 22.8422L4.0495 22.8425C4.09001 22.9142 4.18206 22.939 4.25406 22.8986L5.25538 22.3311L5.2559 22.3308C5.32757 22.2904 5.35241 22.1983 5.31199 22.1262ZM5.32215 20.6154L5.98498 20.2327C6.02779 20.2079 6.07506 20.1919 6.12408 20.1854C6.1731 20.179 6.22292 20.1823 6.27067 20.1951L10.9743 21.4556C11.547 21.6084 12.1002 21.5381 12.6048 21.2266L12.6052 21.2264L19.0901 17.2337C19.2656 17.1256 19.3492 16.9002 19.3551 16.6764C19.3622 16.4113 19.2516 16.1305 18.9713 16.0138C18.6026 15.8604 18.0369 15.9609 17.2152 16.4396L13.6416 18.5209C13.0641 18.8575 12.4589 18.9506 11.7993 18.8457C11.7989 18.8456 11.7984 18.8455 11.798 18.8455L11.355 18.7734C11.3548 18.7733 9.78347 18.361 8.95307 18.1378C8.75241 18.0839 8.63326 17.8772 8.68719 17.6766C8.74112 17.4759 8.9478 17.3568 9.14846 17.4107C9.95844 17.6283 10.6886 17.8671 11.4748 18.0297C11.8613 18.0721 12.1452 17.9136 12.2341 17.5824L12.2341 17.5822C12.3241 17.2477 12.1142 16.924 11.7895 16.808C10.3567 16.5448 8.95434 15.9505 8.0942 15.6715L8.09406 15.6715C7.43232 15.4566 6.82686 15.7332 6.22437 16.0817L3.61223 17.594L5.32215 20.6154ZM2.00794 17.4569C2.23538 17.4231 2.44663 17.5801 2.48046 17.8076C2.51298 18.0351 2.3559 18.2477 2.12841 18.2801C1.90098 18.314 1.68973 18.1556 1.6559 17.9281C1.62338 17.7007 1.78046 17.4894 2.00794 17.4569ZM4.26903 5.20726C6.44498 5.20726 8.20846 6.97079 8.20846 9.14674C8.20846 11.3226 6.44498 13.0862 4.26903 13.0862C2.09312 13.0862 0.32959 11.3226 0.32959 9.14674C0.32959 6.97079 2.09312 5.20726 4.26903 5.20726ZM6.9255 10.9073C7.26041 10.4029 7.45552 9.79766 7.45552 9.14674C7.45552 7.38669 6.02907 5.9602 4.26903 5.9602C2.50898 5.9602 1.08253 7.38669 1.08253 9.14674C1.08253 9.79766 1.27764 10.4029 1.61255 10.9073C1.88912 10.2223 2.42272 9.66862 3.09368 9.36598C2.80959 9.07154 2.6343 8.67154 2.6343 8.23238C2.6343 7.333 3.36964 6.59766 4.26903 6.59766C5.16846 6.59766 5.9038 7.333 5.9038 8.23238C5.9038 8.67154 5.72851 9.07154 5.44437 9.36598C6.11538 9.66862 6.64898 10.2223 6.9255 10.9073ZM2.19801 11.5686C2.75495 12.0453 3.47834 12.3332 4.26903 12.3332C5.05975 12.3332 5.7831 12.0453 6.34008 11.5686C6.14931 10.5988 5.2943 9.86716 4.26903 9.86716C3.2438 9.86716 2.38879 10.5988 2.19801 11.5686ZM4.26903 9.11422C4.7542 9.11422 5.15086 8.71756 5.15086 8.23238C5.15086 7.74726 4.7542 7.3506 4.26903 7.3506C3.7839 7.3506 3.38724 7.74726 3.38724 8.23238C3.38724 8.71756 3.7839 9.11422 4.26903 9.11422ZM12.9926 0.983538C13.2104 1.04918 13.4212 1.13652 13.6216 1.24424L14.0254 1.06471C14.0949 1.03379 14.1722 1.02468 14.2471 1.03856C14.3219 1.05245 14.3907 1.08869 14.4446 1.1425L15.126 1.82391C15.1797 1.87767 15.2159 1.94643 15.2299 2.02116C15.2438 2.09589 15.2348 2.17309 15.204 2.2426L15.025 2.6465C15.133 2.84738 15.2205 3.05863 15.2861 3.27704L15.6977 3.43549C15.7687 3.46281 15.8298 3.51101 15.8729 3.57373C15.9159 3.63645 15.939 3.71075 15.939 3.78683V4.75069C15.939 4.82678 15.916 4.90109 15.8729 4.96382C15.8298 5.02655 15.7687 5.07475 15.6977 5.10208L15.2859 5.26057C15.2199 5.47841 15.1325 5.68916 15.0249 5.8897L15.204 6.29399C15.2348 6.36349 15.2438 6.44069 15.2299 6.51542C15.2159 6.59015 15.1797 6.65892 15.126 6.71267L14.4446 7.39408C14.3908 7.44783 14.322 7.48406 14.2473 7.49799C14.1726 7.51191 14.0954 7.50289 14.0259 7.4721L13.6222 7.29323C13.4215 7.4011 13.2105 7.48848 12.9924 7.55408L12.834 7.96584C12.8066 8.03686 12.7584 8.09793 12.6957 8.141C12.633 8.18407 12.5587 8.20712 12.4826 8.20711H11.5187C11.4426 8.20711 11.3683 8.18406 11.3056 8.14099C11.2429 8.09791 11.1947 8.03685 11.1674 7.96584L11.0089 7.55413C10.7907 7.48826 10.5796 7.40078 10.3788 7.293L9.97448 7.4721C9.90498 7.50289 9.82778 7.51191 9.75305 7.49799C9.67832 7.48406 9.60955 7.44783 9.5558 7.39408L8.87439 6.71267C8.82058 6.65885 8.78434 6.58999 8.77045 6.51516C8.75656 6.44033 8.76568 6.36306 8.7966 6.29351L8.97604 5.88999C8.86829 5.68942 8.7808 5.47862 8.71486 5.26071L8.30263 5.10208C8.23161 5.07475 8.17054 5.02655 8.12747 4.96382C8.0844 4.90109 8.06135 4.82678 8.06135 4.75069V3.78683C8.06136 3.71075 8.08441 3.63645 8.12748 3.57373C8.17055 3.51101 8.23162 3.46281 8.30263 3.43549L8.71472 3.2769C8.78069 3.05872 8.86824 2.84765 8.97608 2.64683L8.7966 2.24307C8.76568 2.17353 8.75656 2.09625 8.77045 2.02142C8.78434 1.94659 8.82058 1.87773 8.87439 1.82391L9.5558 1.1425C9.60962 1.08869 9.67848 1.05245 9.75331 1.03856C9.82813 1.02468 9.90541 1.03379 9.97495 1.06471L10.3787 1.24424C10.5792 1.13647 10.7901 1.0491 11.0081 0.983444L11.1675 0.570409C11.1949 0.499481 11.2431 0.4385 11.3058 0.395493C11.3685 0.352485 11.4427 0.329467 11.5187 0.329468H12.4826C12.5587 0.32946 12.633 0.352532 12.6958 0.39564C12.7585 0.438747 12.8067 0.499864 12.834 0.570927L12.9926 0.983538ZM12.3583 1.4321L12.2239 1.08241H11.777L11.6418 1.43262C11.6198 1.48962 11.5843 1.54042 11.5383 1.58061C11.4922 1.62081 11.4371 1.64921 11.3777 1.66335C11.1022 1.72878 10.839 1.83786 10.598 1.98646C10.5459 2.01856 10.4868 2.03748 10.4257 2.04157C10.3646 2.04566 10.3035 2.0348 10.2476 2.00994L9.90535 1.85775L9.58964 2.17347L9.74183 2.51568C9.76669 2.5716 9.77755 2.63274 9.77346 2.69381C9.76937 2.75487 9.75045 2.81402 9.71834 2.86613C9.56953 3.10777 9.46007 3.37153 9.39406 3.64754C9.37982 3.70688 9.35137 3.76187 9.31116 3.80778C9.27095 3.85369 9.22019 3.88913 9.16324 3.91107L8.8143 4.04533V4.4922L9.16324 4.6265C9.22015 4.64841 9.27089 4.68381 9.31109 4.72967C9.35128 4.77553 9.37974 4.83046 9.39401 4.88975C9.46037 5.16537 9.56912 5.42918 9.71801 5.66994C9.75025 5.72208 9.76927 5.78131 9.77342 5.84247C9.77757 5.90363 9.76672 5.96488 9.74183 6.0209L9.58964 6.36311L9.90564 6.67907L10.248 6.5274C10.3038 6.50271 10.3647 6.49193 10.4255 6.49597C10.4863 6.50001 10.5452 6.51876 10.5972 6.5506C10.8389 6.69869 11.1018 6.80862 11.3784 6.87413C11.4379 6.88825 11.4932 6.91668 11.5393 6.95695C11.5854 6.99722 11.621 7.04811 11.643 7.10523L11.7772 7.45417H12.2241L12.3584 7.10523C12.3804 7.04816 12.4159 6.99729 12.462 6.95704C12.508 6.91679 12.5632 6.88836 12.6227 6.87422C12.898 6.80901 13.1611 6.70003 13.4018 6.55144C13.4539 6.51925 13.513 6.50023 13.5741 6.49604C13.6352 6.49185 13.6963 6.50261 13.7523 6.5274L14.0947 6.67907L14.411 6.36283L14.2593 6.02043C14.2346 5.9647 14.2238 5.90381 14.2279 5.84299C14.2319 5.78216 14.2506 5.72323 14.2825 5.67126C14.4306 5.42956 14.5406 5.1666 14.6061 4.89079C14.6203 4.83128 14.6487 4.77612 14.6889 4.73007C14.7292 4.68402 14.78 4.64848 14.8371 4.6265L15.1861 4.4922V4.04533L14.8371 3.91107C14.78 3.88907 14.7291 3.85348 14.6888 3.80738C14.6486 3.76128 14.6201 3.70606 14.606 3.6465C14.5408 3.37078 14.4317 3.1073 14.283 2.86613C14.2509 2.81409 14.232 2.75504 14.2279 2.69407C14.2238 2.6331 14.2345 2.57203 14.2593 2.51615L14.411 2.17375L14.095 1.85775L13.7528 2.00994C13.6969 2.0348 13.6357 2.04566 13.5747 2.04157C13.5136 2.03748 13.4544 2.01856 13.4023 1.98646C13.1613 1.83786 12.8981 1.72878 12.6227 1.66335C12.5631 1.64919 12.5079 1.62073 12.4619 1.58044C12.4158 1.54015 12.3803 1.48923 12.3583 1.4321ZM12.0002 2.21064C13.1371 2.21064 14.0588 3.1314 14.0588 4.26829C14.0588 5.40514 13.137 6.32693 12.0002 6.32693C10.8633 6.32693 9.94253 5.40519 9.94253 4.26829C9.94253 3.13135 10.8632 2.21064 12.0002 2.21064ZM12.0002 2.96359C11.2793 2.96359 10.6955 3.5474 10.6955 4.26829C10.6955 4.98928 11.2792 5.57399 12.0002 5.57399C12.7212 5.57399 13.3059 4.98933 13.3059 4.26829C13.3059 3.5473 12.7212 2.96359 12.0002 2.96359ZM19.7319 13.0862C17.5626 13.0862 15.7931 11.3167 15.7931 9.14735C15.7931 6.97799 17.5626 5.20853 19.7319 5.20853C21.9013 5.20853 23.6708 6.97799 23.6708 9.14735C23.6708 11.3167 21.9013 13.0862 19.7319 13.0862ZM19.7319 12.3332C21.4866 12.3332 22.9178 10.902 22.9178 9.14735C22.9178 7.39267 21.4866 5.96147 19.7319 5.96147C17.9773 5.96147 16.5461 7.39267 16.5461 9.14735C16.5461 10.902 17.9773 12.3332 19.7319 12.3332ZM19.3555 7.06697V6.8938C19.3555 6.68603 19.5242 6.51733 19.7319 6.51733C19.9397 6.51733 20.1084 6.68603 20.1084 6.8938V7.06269C20.5341 7.16086 20.9256 7.43653 21.1285 7.9201C21.1671 8.01218 21.1676 8.11581 21.1298 8.20822C21.092 8.30064 21.0191 8.37427 20.927 8.41295C20.835 8.45152 20.7313 8.45197 20.6389 8.41419C20.5465 8.3764 20.4729 8.30348 20.4342 8.21144C20.2539 7.78166 19.7715 7.69624 19.4257 7.83229C19.2316 7.90867 19.0734 8.06321 19.0847 8.29102L19.0847 8.29196C19.093 8.46758 19.2091 8.56627 19.3448 8.63253C19.4837 8.70034 19.6444 8.73798 19.796 8.76269L19.7967 8.76278C20.4435 8.86928 21.1495 9.16744 21.242 9.93629C21.3323 10.682 20.7392 11.1184 20.1084 11.2395V11.4021C20.1084 11.6098 19.9397 11.7785 19.7319 11.7785C19.5242 11.7785 19.3555 11.6098 19.3555 11.4021V11.234C18.8228 11.1197 18.3659 10.7657 18.2244 10.1973C18.2003 10.1004 18.2157 9.99792 18.2671 9.91237C18.3186 9.82683 18.4019 9.7652 18.4988 9.74104C18.5957 9.71697 18.6981 9.73234 18.7837 9.78379C18.8692 9.83523 18.9309 9.91854 18.955 10.0154C19.0453 10.378 19.4145 10.53 19.769 10.5212H19.7699C19.9627 10.5169 20.1776 10.4697 20.3358 10.3607C20.441 10.2881 20.513 10.1797 20.4945 10.0267L20.4944 10.0263C20.4702 9.8241 20.3306 9.7146 20.1706 9.64194C20.0155 9.57144 19.8392 9.53286 19.675 9.50584C19.0408 9.40255 18.3682 9.07954 18.3326 8.32754C18.3044 7.75036 18.6581 7.32514 19.15 7.13163C19.2169 7.10535 19.2856 7.08375 19.3555 7.06697ZM12.3766 12.1068C12.3766 12.3146 12.2079 12.4833 12.0002 12.4833C11.7924 12.4833 11.6237 12.3146 11.6237 12.1068V9.54608C11.6237 9.33831 11.7924 9.16961 12.0002 9.16961C12.2079 9.16961 12.3766 9.33831 12.3766 9.54608V12.1068ZM13.3684 13.5079C13.2901 13.5698 13.1904 13.5981 13.0912 13.5865C12.992 13.575 12.9015 13.5245 12.8396 13.4462C12.7777 13.3679 12.7494 13.2682 12.7609 13.169C12.7725 13.0699 12.8229 12.9794 12.9012 12.9174L15.1017 11.1764C15.18 11.1145 15.2797 11.0862 15.3788 11.0977C15.478 11.1093 15.5685 11.1598 15.6305 11.238C15.6924 11.3163 15.7207 11.416 15.7091 11.5152C15.6976 11.6144 15.6471 11.7049 15.5688 11.7668L13.3684 13.5079ZM11.0991 12.9174C11.1774 12.9794 11.2279 13.0699 11.2394 13.169C11.251 13.2682 11.2227 13.3679 11.1608 13.4462C11.0988 13.5245 11.0083 13.575 10.9092 13.5865C10.81 13.5981 10.7103 13.5698 10.632 13.5079L8.43152 11.7668C8.35325 11.7049 8.30278 11.6144 8.29122 11.5152C8.27966 11.416 8.30795 11.3163 8.36987 11.238C8.43184 11.1598 8.52235 11.1093 8.62151 11.0977C8.72067 11.0862 8.82036 11.1145 8.89867 11.1764L11.0991 12.9174Z" fill="black"/>
</g>
<defs>
<clipPath id="clip0_129_2266">
<rect width="24" height="24" fill="white" transform="translate(0.000244141)"/>
</clipPath>
</defs>
</svg>
