<svg width="24" height="24" viewBox="0 0 24 24" fill="none" xmlns="http://www.w3.org/2000/svg">
<g clip-path="url(#clip0_129_2275)">
<path d="M4.12525 15.75C3.3094 15.75 2.51187 15.9919 1.83352 16.4452C1.15517 16.8984 0.626454 17.5427 0.314243 18.2964C0.00203145 19.0502 -0.0796573 19.8796 0.0795067 20.6797C0.238671 21.4799 0.631539 22.2149 1.20843 22.7918C1.78532 23.3687 2.52033 23.7616 3.3205 23.9207C4.12067 24.0799 4.95007 23.9982 5.70381 23.686C6.45756 23.3738 7.1018 22.8451 7.55506 22.1667C8.00832 21.4884 8.25025 20.6908 8.25025 19.875C8.24905 18.7813 7.81408 17.7328 7.04075 16.9595C6.26742 16.1862 5.2189 15.7512 4.12525 15.75ZM4.12525 23.25C3.45773 23.25 2.80521 23.0521 2.2502 22.6812C1.69518 22.3104 1.2626 21.7833 1.00715 21.1666C0.751707 20.5499 0.684871 19.8713 0.815096 19.2166C0.945321 18.5619 1.26676 17.9605 1.73876 17.4885C2.21076 17.0165 2.81213 16.6951 3.46682 16.5648C4.1215 16.4346 4.8001 16.5015 5.4168 16.7569C6.0335 17.0124 6.56061 17.4449 6.93146 17.9999C7.30231 18.555 7.50025 19.2075 7.50025 19.875C7.49925 20.7698 7.14336 21.6277 6.51064 22.2604C5.87792 22.8931 5.02005 23.249 4.12525 23.25Z" fill="black"/>
<path d="M4.77962 18.5426C4.83492 18.5948 4.86897 18.6656 4.87524 18.7414C4.87287 18.8391 4.90879 18.934 4.97535 19.0056C5.0419 19.0773 5.13381 19.1201 5.23149 19.125C5.33005 19.1268 5.42559 19.091 5.49863 19.0248C5.57166 18.9586 5.61668 18.867 5.62449 18.7687C5.62643 18.4916 5.51858 18.2249 5.32449 18.027C5.10031 17.8114 4.80984 17.678 4.50024 17.6483V17.625C4.50024 17.5255 4.46074 17.4302 4.39041 17.3598C4.32008 17.2895 4.2247 17.25 4.12524 17.25C4.02579 17.25 3.93041 17.2895 3.86008 17.3598C3.78975 17.4302 3.75024 17.5255 3.75024 17.625V17.6569C3.43923 17.6975 3.15361 17.8499 2.94668 18.0856C2.73975 18.3213 2.62564 18.6242 2.62564 18.9379C2.62564 19.2515 2.73975 19.5545 2.94668 19.7902C3.15361 20.0259 3.43923 20.1783 3.75024 20.2189V21.3401C3.64699 21.3215 3.55056 21.2756 3.47087 21.2074C3.418 21.1571 3.38421 21.09 3.37524 21.0176C3.38002 20.9183 3.34513 20.8211 3.27825 20.7475C3.21137 20.6738 3.11798 20.6298 3.01862 20.625C2.91926 20.6202 2.82208 20.6551 2.74845 20.722C2.67482 20.7889 2.63077 20.8823 2.62599 20.9816C2.62415 21.2587 2.732 21.5252 2.92599 21.723C3.15017 21.9386 3.44064 22.0721 3.75024 22.1017V22.125C3.75024 22.2245 3.78975 22.3198 3.86008 22.3902C3.93041 22.4605 4.02579 22.5 4.12524 22.5C4.2247 22.5 4.32008 22.4605 4.39041 22.3902C4.46074 22.3198 4.50024 22.2245 4.50024 22.125V22.0931C4.81126 22.0525 5.09687 21.9001 5.30381 21.6644C5.51074 21.4287 5.62485 21.1258 5.62485 20.8121C5.62485 20.4985 5.51074 20.1955 5.30381 19.9598C5.09687 19.7241 4.81126 19.5717 4.50024 19.5311V18.4103C4.60348 18.4288 4.69992 18.4744 4.77962 18.5426ZM3.37524 18.9375C3.37526 18.8238 3.41167 18.713 3.47914 18.6215C3.54661 18.5299 3.64161 18.4623 3.75024 18.4286V19.4471C3.64162 19.4132 3.54668 19.3455 3.47929 19.2538C3.41189 19.1621 3.37557 19.0513 3.37562 18.9375H3.37524ZM4.87449 20.8125C4.87445 20.9261 4.83811 21.0367 4.77079 21.1281C4.70346 21.2196 4.60867 21.2872 4.50024 21.321V20.3025C4.60886 20.3364 4.7038 20.4041 4.7712 20.4958C4.8386 20.5875 4.87492 20.6983 4.87487 20.8121L4.87449 20.8125ZM23.6252 21.375H21.7502V5.625C21.7502 5.52554 21.7107 5.43016 21.6404 5.35984C21.5701 5.28951 21.4747 5.25 21.3752 5.25H18.3752C18.2758 5.25 18.1804 5.28951 18.1101 5.35984C18.0398 5.43016 18.0002 5.52554 18.0002 5.625V21.375H16.5002V7.875C16.5002 7.77554 16.4607 7.68016 16.3904 7.60983C16.3201 7.53951 16.2247 7.5 16.1252 7.5H13.1252C13.0258 7.5 12.9304 7.53951 12.8601 7.60983C12.7898 7.68016 12.7502 7.77554 12.7502 7.875V21.375H11.2502V10.125C11.2502 10.0255 11.2107 9.93016 11.1404 9.85983C11.0701 9.78951 10.9747 9.75 10.8752 9.75H7.87524C7.77579 9.75 7.68041 9.78951 7.61008 9.85983C7.53975 9.93016 7.50024 10.0255 7.50024 10.125V16.2038C7.50024 16.3032 7.53975 16.3986 7.61008 16.4689C7.68041 16.5392 7.77579 16.5788 7.87524 16.5788C7.9747 16.5788 8.07008 16.5392 8.14041 16.4689C8.21074 16.3986 8.25024 16.3032 8.25024 16.2038V10.5H10.5002V21.375H9.02649C8.92704 21.375 8.83166 21.4145 8.76133 21.4848C8.691 21.5552 8.65149 21.6505 8.65149 21.75C8.65149 21.8495 8.691 21.9448 8.76133 22.0152C8.83166 22.0855 8.92704 22.125 9.02649 22.125H23.2502V23.25H7.79649C7.69704 23.25 7.60166 23.2895 7.53133 23.3598C7.461 23.4302 7.42149 23.5255 7.42149 23.625C7.42149 23.7245 7.461 23.8198 7.53133 23.8902C7.60166 23.9605 7.69704 24 7.79649 24H23.6252C23.7247 24 23.8201 23.9605 23.8904 23.8902C23.9607 23.8198 24.0002 23.7245 24.0002 23.625V21.75C24.0002 21.6505 23.9607 21.5552 23.8904 21.4848C23.8201 21.4145 23.7247 21.375 23.6252 21.375ZM18.7502 6H21.0002V21.375H18.7502V6ZM13.5002 8.25H15.7502V21.375H13.5002V8.25ZM2.62524 15.2175C2.7247 15.2175 2.82008 15.178 2.89041 15.1077C2.96074 15.0373 3.00024 14.942 3.00024 14.8425V12.375H5.25024V14.8425C5.25024 14.942 5.28975 15.0373 5.36008 15.1077C5.43041 15.178 5.52579 15.2175 5.62524 15.2175C5.7247 15.2175 5.82008 15.178 5.89041 15.1077C5.96074 15.0373 6.00024 14.942 6.00024 14.8425V12C6.00024 11.9005 5.96074 11.8052 5.89041 11.7348C5.82008 11.6645 5.7247 11.625 5.62524 11.625H2.62524C2.52579 11.625 2.43041 11.6645 2.36008 11.7348C2.28975 11.8052 2.25024 11.9005 2.25024 12V14.8425C2.25024 14.942 2.28975 15.0373 2.36008 15.1077C2.43041 15.178 2.52579 15.2175 2.62524 15.2175ZM4.12487 9.375L4.14287 9.37463C10.8629 9.05438 17.4452 3.25238 19.5002 1.2765V3.75C19.5002 3.84946 19.5398 3.94484 19.6101 4.01516C19.6804 4.08549 19.7758 4.125 19.8752 4.125C19.9747 4.125 20.0701 4.08549 20.1404 4.01516C20.2107 3.94484 20.2502 3.84946 20.2502 3.75V0.375L20.2495 0.3705C20.2461 0.272679 20.2054 0.179852 20.1359 0.110989C20.0663 0.0421265 19.9731 0.0024258 19.8752 0L16.5002 0C16.4008 0 16.3054 0.0395088 16.2351 0.109835C16.1648 0.180161 16.1252 0.275544 16.1252 0.375C16.1252 0.474456 16.1648 0.569839 16.2351 0.640165C16.3054 0.710491 16.4008 0.75 16.5002 0.75H18.958C16.9371 2.66963 10.4702 8.32237 4.10762 8.62537C4.00967 8.62976 3.91733 8.67233 3.85039 8.74396C3.78345 8.8156 3.74722 8.91061 3.74948 9.00863C3.75173 9.10665 3.79229 9.19989 3.86246 9.26837C3.93262 9.33685 4.02682 9.37513 4.12487 9.375Z" fill="black"/>
</g>
<defs>
<clipPath id="clip0_129_2275">
<rect width="24" height="24" fill="white" transform="translate(0.000244141)"/>
</clipPath>
</defs>
</svg>
