<svg width="24" height="24" viewBox="0 0 24 24" fill="none" xmlns="http://www.w3.org/2000/svg">
<g clip-path="url(#clip0_129_2269)">
<path d="M21.7502 13.5V11.25C21.7502 9.80287 20.5727 8.625 19.1252 8.625H16.8752V6.35175C16.8752 5.697 16.5359 5.10487 15.9674 4.767C15.3865 4.42275 14.6856 4.41 14.1047 4.72725L13.5002 5.02837V3.80587C13.5002 3.03075 13.0712 2.35425 12.3809 2.04112C11.7171 1.74037 10.9615 1.85437 10.4091 2.3385L3.23424 8.625H3.00024C1.55274 8.625 0.375244 9.80287 0.375244 11.25V21C0.375244 22.4471 1.55274 23.625 3.00024 23.625H19.1252C20.5727 23.625 21.7502 22.4471 21.7502 21V18.75C22.7841 18.75 23.6252 17.9089 23.6252 16.875V15.375C23.6252 14.3411 22.7841 13.5 21.7502 13.5ZM14.4516 5.39175C14.6257 5.2956 14.8219 5.24686 15.0208 5.25041C15.2196 5.25397 15.414 5.30969 15.5845 5.412C15.7491 5.50753 15.8856 5.64463 15.9805 5.80956C16.0754 5.97449 16.1253 6.16146 16.1252 6.35175V8.625H7.96749L14.4516 5.39175ZM10.9034 2.9025C11.2364 2.61075 11.6729 2.54362 12.0711 2.72437C12.2772 2.81907 12.4512 2.97182 12.5719 3.16391C12.6925 3.356 12.7545 3.57909 12.7502 3.80587V5.40225L6.28712 8.625H4.37237L10.9034 2.9025ZM21.0002 21C21.0002 22.0339 20.1591 22.875 19.1252 22.875H3.00024C1.96637 22.875 1.12524 22.0339 1.12524 21V11.25C1.12524 10.2161 1.96637 9.375 3.00024 9.375H19.1252C20.1591 9.375 21.0002 10.2161 21.0002 11.25V13.5H17.2502C15.3752 13.5 15.3752 15.4759 15.3752 16.125C15.3752 16.7741 15.3752 18.75 17.2502 18.75H21.0002V21ZM22.8752 16.875C22.8752 17.4952 22.3705 18 21.7502 18H17.2502C16.5749 18 16.1252 17.6809 16.1252 16.125C16.1252 14.5691 16.5749 14.25 17.2502 14.25H21.7502C22.3705 14.25 22.8752 14.7547 22.8752 15.375V16.875Z" fill="black"/>
<path d="M18.3752 14.6251C17.548 14.6251 16.8752 15.2978 16.8752 16.1251C16.8752 16.9523 17.548 17.6251 18.3752 17.6251C19.2025 17.6251 19.8752 16.9523 19.8752 16.1251C19.8752 15.2978 19.2025 14.6251 18.3752 14.6251ZM18.3752 16.8751C17.9616 16.8751 17.6252 16.5387 17.6252 16.1251C17.6252 15.7114 17.9616 15.3751 18.3752 15.3751C18.7889 15.3751 19.1252 15.7114 19.1252 16.1251C19.1252 16.5387 18.7889 16.8751 18.3752 16.8751ZM18.4165 6.28805L18.1821 6.42868C18.1293 6.46029 18.0852 6.50439 18.0535 6.55711C18.0218 6.60982 18.0035 6.66953 18.0003 6.73096C17.9971 6.79239 18.0091 6.85366 18.0352 6.90938C18.0613 6.96509 18.1006 7.01353 18.1499 7.05043L19.6499 8.17543C19.7119 8.222 19.7869 8.24816 19.8645 8.25031C19.9421 8.25246 20.0184 8.23049 20.083 8.18743L20.149 8.14355C20.8201 7.69728 21.3798 7.10296 21.7851 6.40634C22.1904 5.70973 22.4305 4.9294 22.4867 4.12543H22.9802C23.2397 4.12543 23.4715 3.97055 23.5705 3.73093C23.617 3.61943 23.6308 3.49702 23.6103 3.37798C23.5899 3.25893 23.536 3.14815 23.455 3.05855L21.7427 0.755302C21.6563 0.637897 21.5433 0.542568 21.4131 0.477078C21.2828 0.411587 21.1389 0.377786 20.9931 0.378427C20.8473 0.377841 20.703 0.411747 20.5728 0.477375C20.4426 0.543003 20.3298 0.638494 20.2435 0.756052L18.5417 3.0473C18.4598 3.13774 18.4053 3.24962 18.3846 3.36987C18.3639 3.49012 18.3778 3.61379 18.4247 3.72643C18.4734 3.8446 18.5561 3.94562 18.6623 4.01662C18.7686 4.08761 18.8936 4.12536 19.0214 4.12505H19.5419C19.5718 4.55427 19.4825 4.98341 19.2839 5.3651C19.0853 5.74679 18.7851 6.06619 18.4165 6.28805ZM20.2499 3.7493C20.248 3.70718 20.2389 3.66569 20.2229 3.62668L20.2157 3.60943L20.2154 3.60868C20.1816 3.52505 20.1205 3.46018 20.0466 3.42005C19.9727 3.37993 20.0466 3.41968 20.0462 3.41968C20.0253 3.40855 20.0033 3.39938 19.9806 3.3923C19.9417 3.38127 19.9015 3.37547 19.861 3.37505H19.2325L20.8457 1.20268C20.8934 1.13818 20.9586 1.12843 20.9931 1.12843C21.0276 1.12843 21.0929 1.13818 21.1412 1.20268L22.7567 3.37505H22.1252C22.0258 3.37505 21.9304 3.41456 21.8601 3.48489C21.7898 3.55521 21.7502 3.6506 21.7502 3.75005C21.7502 5.20618 21.0561 6.56218 19.8846 7.4138L19.0352 6.7763C19.5003 6.43559 19.8605 5.97142 20.0752 5.43641C20.2899 4.9014 20.3504 4.31695 20.2499 3.7493Z" fill="black"/>
</g>
<defs>
<clipPath id="clip0_129_2269">
<rect width="24" height="24" fill="white" transform="translate(0.000244141)"/>
</clipPath>
</defs>
</svg>
