<svg width="24" height="24" viewBox="0 0 24 24" fill="none" xmlns="http://www.w3.org/2000/svg">
<g clip-path="url(#clip0_129_2263)">
<path d="M9.00024 10C6.24324 10 4.00024 7.757 4.00024 5C4.00024 2.243 6.24324 0 9.00024 0C11.7572 0 14.0002 2.243 14.0002 5C14.0002 7.757 11.7572 10 9.00024 10ZM9.00024 1C6.79424 1 5.00024 2.794 5.00024 5C5.00024 7.206 6.79424 9 9.00024 9C11.2062 9 13.0002 7.206 13.0002 5C13.0002 2.794 11.2062 1 9.00024 1ZM8.50024 21H0.500244C0.367636 21 0.240459 20.9473 0.146691 20.8536C0.0529226 20.7598 0.000244141 20.6326 0.000244141 20.5V16.5C0.000244141 14.019 2.01924 12 4.50024 12H10.5002C10.6329 12 10.76 12.0527 10.8538 12.1464C10.9476 12.2402 11.0002 12.3674 11.0002 12.5C11.0002 12.6326 10.9476 12.7598 10.8538 12.8536C10.76 12.9473 10.6329 13 10.5002 13H4.50024C2.57024 13 1.00024 14.57 1.00024 16.5V20H8.50024C8.63285 20 8.76003 20.0527 8.8538 20.1464C8.94757 20.2402 9.00024 20.3674 9.00024 20.5C9.00024 20.6326 8.94757 20.7598 8.8538 20.8536C8.76003 20.9473 8.63285 21 8.50024 21ZM17.0002 20C15.6222 20 14.5002 18.878 14.5002 17.5C14.5002 16.122 15.6222 15 17.0002 15C18.3782 15 19.5002 16.122 19.5002 17.5C19.5002 18.878 18.3782 20 17.0002 20ZM17.0002 16C16.1732 16 15.5002 16.673 15.5002 17.5C15.5002 18.327 16.1732 19 17.0002 19C17.8272 19 18.5002 18.327 18.5002 17.5C18.5002 16.673 17.8272 16 17.0002 16Z" fill="#4919DD"/>
<path d="M17.7973 24H16.2023C15.954 24.0009 15.7143 23.909 15.5303 23.7423C15.3462 23.5756 15.231 23.3462 15.2073 23.099L15.0803 21.828C14.7749 21.6916 14.4849 21.523 14.2153 21.325L13.0473 21.852C12.8215 21.955 12.5652 21.9699 12.3289 21.8936C12.0927 21.8174 11.8934 21.6556 11.7703 21.44L10.9733 20.059C10.8489 19.8444 10.8088 19.5911 10.8609 19.3485C10.913 19.1059 11.0537 18.8915 11.2553 18.747L12.2843 18.007C12.2643 17.852 12.2503 17.68 12.2503 17.5C12.2503 17.32 12.2643 17.147 12.2843 16.993L11.2553 16.253C11.0537 16.1085 10.913 15.894 10.8609 15.6515C10.8088 15.4089 10.8489 15.1556 10.9733 14.941L11.7703 13.56C11.8936 13.3445 12.0928 13.1829 12.3291 13.1067C12.5653 13.0305 12.8214 13.0452 13.0473 13.148L14.2153 13.675C14.4883 13.475 14.7773 13.307 15.0803 13.172L15.2073 11.901C15.2313 11.654 15.3465 11.4248 15.5306 11.2583C15.7146 11.0918 15.9542 11.0001 16.2023 11.001H17.7973C18.3133 11.001 18.7413 11.388 18.7923 11.902L18.9193 13.173C19.2233 13.308 19.5123 13.477 19.7843 13.676L20.9523 13.149C21.1783 13.0467 21.4343 13.0322 21.6704 13.1083C21.9065 13.1845 22.1058 13.3459 22.2293 13.561L23.0263 14.942C23.1508 15.1566 23.1909 15.4099 23.1388 15.6525C23.0866 15.895 22.946 16.1095 22.7443 16.254L21.7153 16.994C21.7353 17.149 21.7493 17.321 21.7493 17.501C21.7493 17.681 21.7353 17.854 21.7153 18.008L22.7443 18.748C23.1623 19.049 23.2843 19.613 23.0263 20.06L22.2303 21.44C22.1071 21.6554 21.9079 21.8171 21.6716 21.8933C21.4354 21.9695 21.1793 21.9548 20.9533 21.852L19.7853 21.325C19.5123 21.525 19.2233 21.693 18.9203 21.828L18.7923 23.1C18.7684 23.347 18.6532 23.5762 18.4691 23.7426C18.2851 23.9091 18.0455 24.0009 17.7973 24ZM14.2853 20.245C14.4028 20.2451 14.5164 20.2865 14.6063 20.362C14.9453 20.646 15.3203 20.863 15.7193 21.009C15.8077 21.0412 15.8851 21.0978 15.9428 21.1721C16.0005 21.2464 16.036 21.3354 16.0453 21.429L16.2033 23H17.7983L17.9553 21.429C17.9647 21.3354 18.0002 21.2464 18.0579 21.1721C18.1156 21.0978 18.193 21.0412 18.2813 21.009C18.6869 20.8592 19.0635 20.6403 19.3943 20.362C19.4664 20.3018 19.554 20.2631 19.647 20.2504C19.74 20.2377 19.8348 20.2514 19.9203 20.29L21.3643 20.942L22.1613 19.561L20.8833 18.643C20.8071 18.5878 20.7478 18.5124 20.7123 18.4253C20.6767 18.3381 20.6664 18.2427 20.6823 18.15C20.7193 17.939 20.7493 17.724 20.7493 17.502C20.7493 17.28 20.7193 17.065 20.6823 16.854C20.6663 16.7612 20.6766 16.6658 20.7121 16.5786C20.7477 16.4915 20.807 16.416 20.8833 16.361L22.1613 15.443L21.3643 14.062L19.9203 14.713C19.8346 14.7517 19.7397 14.7654 19.6465 14.7527C19.5533 14.74 19.4656 14.7012 19.3933 14.641C19.0632 14.3617 18.6864 14.1427 18.2803 13.994C18.192 13.9617 18.1146 13.9052 18.0569 13.8309C17.9992 13.7566 17.9637 13.6676 17.9543 13.574L17.7973 12H16.2023L16.0453 13.571C16.036 13.6646 16.0005 13.7536 15.9428 13.8279C15.8851 13.9022 15.8077 13.9587 15.7193 13.991C15.3138 14.1408 14.9372 14.3597 14.6063 14.638C14.5344 14.6985 14.4469 14.7374 14.3538 14.7501C14.2607 14.7628 14.1659 14.7489 14.0803 14.71L12.6363 14.058L11.8393 15.439L13.1173 16.357C13.1936 16.4121 13.2529 16.4876 13.2884 16.5747C13.324 16.6619 13.3343 16.7572 13.3183 16.85C13.2813 17.061 13.2513 17.276 13.2513 17.498C13.2513 17.72 13.2813 17.935 13.3183 18.146C13.3344 18.2387 13.3241 18.3341 13.2886 18.4213C13.253 18.5085 13.1937 18.5839 13.1173 18.639L11.8393 19.557L12.6363 20.938L14.0803 20.287C14.1451 20.2593 14.2149 20.245 14.2853 20.245Z" fill="#4919DD"/>
</g>
<defs>
<clipPath id="clip0_129_2263">
<rect width="24" height="24" fill="white" transform="translate(0.000244141)"/>
</clipPath>
</defs>
</svg>
