<svg width="22" height="20" viewBox="0 0 22 20" fill="none" xmlns="http://www.w3.org/2000/svg">
<path d="M21.1477 4.28279C20.9763 4.04217 20.7495 3.84629 20.4865 3.71166C20.2235 3.57702 19.932 3.50757 19.6365 3.50917H4.88662L4.21387 0.818918C4.19363 0.737756 4.14683 0.665692 4.08092 0.614187C4.01501 0.562681 3.93377 0.534691 3.85012 0.534668H0.875244C0.775788 0.534668 0.680405 0.574177 0.610079 0.644503C0.539753 0.714829 0.500244 0.810212 0.500244 0.909668C0.500244 1.00912 0.539753 1.10451 0.610079 1.17483C0.680405 1.24516 0.775788 1.28467 0.875244 1.28467H3.55724L6.34537 12.4345H5.33774C4.87687 12.4349 4.43251 12.6061 4.09055 12.9151C3.74859 13.2241 3.53332 13.6489 3.48635 14.1073C3.43938 14.5658 3.56406 15.0254 3.83627 15.3973C4.10848 15.7692 4.5089 16.027 4.96012 16.1208C4.70939 16.4136 4.54732 16.7718 4.49293 17.1534C4.43854 17.535 4.49408 17.9242 4.65303 18.2754C4.81198 18.6266 5.06776 18.9251 5.39037 19.1361C5.71298 19.3471 6.08906 19.4617 6.4745 19.4665C6.85994 19.4714 7.23877 19.3662 7.56657 19.1634C7.89436 18.9606 8.15754 18.6685 8.32524 18.3214C8.49294 17.9743 8.55822 17.5866 8.51341 17.2038C8.4686 16.8209 8.31556 16.4588 8.07224 16.1598H13.0252C13.1247 16.1598 13.2201 16.1203 13.2904 16.05C13.3607 15.9796 13.4002 15.8842 13.4002 15.7848C13.4002 15.6853 13.3607 15.59 13.2904 15.5196C13.2201 15.4493 13.1247 15.4098 13.0252 15.4098H5.33774C5.19163 15.4098 5.04695 15.381 4.91196 15.3251C4.77697 15.2692 4.65432 15.1872 4.551 15.0839C4.44768 14.9806 4.36573 14.8579 4.30981 14.7229C4.2539 14.588 4.22512 14.4433 4.22512 14.2972C4.22512 14.1511 4.2539 14.0064 4.30981 13.8714C4.36573 13.7364 4.44768 13.6137 4.551 13.5104C4.65432 13.4071 4.77697 13.3252 4.91196 13.2692C5.04695 13.2133 5.19163 13.1845 5.33774 13.1845H17.6531C18.0441 13.1849 18.4253 13.0621 18.7425 12.8335C19.0597 12.6049 19.2968 12.2821 19.4201 11.911L21.4031 5.96092C21.4982 5.68121 21.5246 5.38276 21.4801 5.09071C21.4357 4.79866 21.3217 4.52157 21.1477 4.28279ZM6.49912 16.1598C6.75192 16.1597 6.99906 16.2346 7.20928 16.375C7.4195 16.5154 7.58336 16.715 7.68014 16.9485C7.77692 17.1821 7.80226 17.4391 7.75296 17.687C7.70366 17.935 7.58193 18.1627 7.40318 18.3415C7.22442 18.5202 6.99667 18.642 6.74873 18.6913C6.50078 18.7406 6.24379 18.7152 6.01025 18.6184C5.77671 18.5217 5.57712 18.3578 5.43672 18.1476C5.29632 17.9374 5.22142 17.6902 5.22149 17.4374C5.22199 17.0987 5.35676 16.774 5.59625 16.5345C5.83574 16.2951 6.16042 16.1603 6.49912 16.1598ZM20.6921 5.72354L18.7091 11.6737C18.6354 11.8954 18.4937 12.0883 18.3042 12.225C18.1146 12.3616 17.8868 12.4351 17.6531 12.4349H7.11787L5.07412 4.25917H19.6365C19.8128 4.25922 19.9866 4.30116 20.1435 4.38153C20.3004 4.46189 20.436 4.57839 20.5391 4.72143C20.6422 4.86446 20.7098 5.02994 20.7364 5.20423C20.763 5.37853 20.7478 5.55627 20.6921 5.72354ZM16.9455 15.4098C16.5444 15.4099 16.1523 15.5289 15.8189 15.7518C15.4854 15.9747 15.2255 16.2915 15.0721 16.6621C14.9187 17.0327 14.8786 17.4404 14.9569 17.8338C15.0352 18.2272 15.2284 18.5885 15.5121 18.8721C15.7958 19.1556 16.1572 19.3487 16.5506 19.4269C16.944 19.5051 17.3518 19.4648 17.7223 19.3113C18.0928 19.1577 18.4095 18.8977 18.6323 18.5642C18.8551 18.2306 18.9739 17.8385 18.9739 17.4374C18.9732 16.8997 18.7592 16.3843 18.379 16.0042C17.9987 15.624 17.4832 15.4103 16.9455 15.4098ZM16.9455 18.7154C16.6927 18.7153 16.4457 18.6403 16.2356 18.4999C16.0255 18.3594 15.8617 18.1598 15.765 17.9262C15.6684 17.6927 15.6431 17.4357 15.6925 17.1879C15.7418 16.94 15.8636 16.7123 16.0423 16.5336C16.2211 16.3549 16.4488 16.2332 16.6967 16.1839C16.9446 16.1347 17.2015 16.16 17.435 16.2567C17.6685 16.3535 17.8681 16.5173 18.0085 16.7274C18.1489 16.9376 18.2239 17.1847 18.2239 17.4374C18.2234 17.7763 18.0885 18.1011 17.8489 18.3407C17.6092 18.5803 17.2844 18.715 16.9455 18.7154Z" fill="black"/>
<path d="M18.5002 6.81482H8.85742C8.75797 6.81482 8.66258 6.85433 8.59226 6.92465C8.52193 6.99498 8.48242 7.09036 8.48242 7.18982C8.48242 7.28928 8.52193 7.38466 8.59226 7.45498C8.66258 7.52531 8.75797 7.56482 8.85742 7.56482H18.5002C18.5996 7.56482 18.695 7.52531 18.7653 7.45498C18.8357 7.38466 18.8752 7.28928 18.8752 7.18982C18.8752 7.09036 18.8357 6.99498 18.7653 6.92465C18.695 6.85433 18.5996 6.81482 18.5002 6.81482ZM18.5002 9.32732H10.4643C10.3648 9.32732 10.2695 9.36683 10.1991 9.43715C10.1288 9.50748 10.0893 9.60286 10.0893 9.70232C10.0893 9.80177 10.1288 9.89716 10.1991 9.96748C10.2695 10.0378 10.3648 10.0773 10.4643 10.0773H18.5002C18.5996 10.0773 18.695 10.0378 18.7653 9.96748C18.8357 9.89716 18.8752 9.80177 18.8752 9.70232C18.8752 9.60286 18.8357 9.50748 18.7653 9.43715C18.695 9.36683 18.5996 9.32732 18.5002 9.32732Z" fill="black"/>
</svg>
