<svg width="161" height="27" viewBox="0 0 161 27" fill="none" xmlns="http://www.w3.org/2000/svg">
<g clip-path="url(#clip0_129_2886)">
<mask id="mask0_129_2886" style="mask-type:luminance" maskUnits="userSpaceOnUse" x="0" y="-1" width="161" height="28">
<path d="M0.372803 -0.194515H160.662V26.6993H0.372803V-0.194515Z" fill="white"/>
</mask>
<g mask="url(#mask0_129_2886)">
<mask id="mask1_129_2886" style="mask-type:luminance" maskUnits="userSpaceOnUse" x="0" y="-1" width="161" height="28">
<path d="M0.372803 26.6992H160.662V-0.194637H0.372803V26.6992Z" fill="white"/>
</mask>
<g mask="url(#mask1_129_2886)">
<path d="M63.23 2.74898C63.23 2.11022 63.4866 1.49762 63.9434 1.04595C64.4002 0.594275 65.0198 0.340527 65.6658 0.340527C66.3117 0.340527 66.9312 0.594275 67.388 1.04595C67.8448 1.49762 68.1014 2.11022 68.1014 2.74898C68.0779 3.37219 67.811 3.96212 67.3568 4.3948C66.9025 4.82748 66.2965 5.06921 65.6658 5.06921C65.0351 5.06921 64.4289 4.82748 63.9746 4.3948C63.5204 3.96212 63.2535 3.37219 63.23 2.74898Z" fill="#273B7D"/>
<path d="M101.66 18.8115C101.66 17.4748 102.749 16.3946 104.091 16.3946C104.739 16.3946 105.36 16.6491 105.818 17.102C106.276 17.555 106.534 18.1693 106.534 18.8098C106.534 19.4504 106.276 20.0647 105.818 20.5176C105.36 20.9705 104.739 21.225 104.091 21.225C102.751 21.225 101.66 20.1432 101.66 18.8098" fill="#499FDD"/>
<path d="M23.2562 17.7665C21.1597 17.7665 19.701 16.1195 19.701 13.7648C19.701 11.4116 21.1597 9.76631 23.2578 9.76631C25.3662 9.76631 26.8402 11.4116 26.8402 13.7648C26.8402 16.1564 25.3985 17.7665 23.2562 17.7665ZM23.2562 6.24924C18.819 6.24924 15.5979 9.41075 15.5979 13.7648C15.5979 18.1204 18.8207 21.2803 23.2562 21.2803C27.712 21.2803 30.9449 18.1204 30.9449 13.7664C30.9449 9.41075 27.7103 6.24924 23.2562 6.24924ZM58.5129 14.1421C58.3585 13.8468 58.1633 13.5741 57.9328 13.332L57.7971 13.1928L57.9397 13.0587C58.1432 12.8456 58.3518 12.5941 58.5519 12.3022L62.4701 6.5461H57.7141L54.7711 11.0494C54.6049 11.2909 54.2691 11.4116 53.7654 11.4116H53.0953V2.89819C53.0953 1.19584 52.0217 0.964386 50.8632 0.964386H48.8786L48.8837 21.0589H53.097V15.031H53.4923C53.9723 15.031 54.2979 15.0864 54.4489 15.3447L56.7726 19.6819C57.4223 20.8593 58.0685 21.0589 59.2863 21.0589H62.5142L60.1091 17.1275L58.5147 14.1421M78.9655 6.21569C76.8215 6.21569 75.4544 7.15827 74.6877 7.95494L74.4333 8.20988L74.3417 7.8627C74.1178 7.00901 73.3579 6.54107 72.2164 6.54107H70.3285L70.3404 21.0539H74.5248V14.3652C74.5248 13.7111 74.6096 13.1442 74.786 12.6259C75.2508 11.0578 76.5501 10.0833 78.1733 10.0833C79.4794 10.0833 79.99 10.7659 79.99 12.527V18.8483C79.99 20.3511 80.6938 21.0539 82.2153 21.0539H84.2067L84.1999 11.8226C84.1999 8.15621 82.3901 6.21569 78.9655 6.21569ZM65.7166 6.5461H63.7337L63.7473 17.7682V21.0589H65.8625L65.9371 21.0622L66.9243 21.0589H67.9047V21.0539H67.9115L67.9199 8.75161C67.9199 7.26729 67.2025 6.54778 65.7184 6.54778M39.6904 17.7665C37.5939 17.7665 36.1335 16.1195 36.1335 13.7648C36.1335 11.4116 37.594 9.76631 39.6922 9.76631C41.7954 9.76631 43.2745 11.4116 43.2745 13.7648C43.2745 16.1564 41.8328 17.7665 39.6922 17.7665H39.6904ZM39.6904 6.24924C35.2498 6.24924 32.0271 9.41075 32.0271 13.7648C32.0271 18.1204 35.2499 21.2803 39.6922 21.2803C44.1413 21.2803 47.3809 18.1204 47.3809 13.7664C47.3809 9.41075 44.1413 6.24924 39.6922 6.24924" fill="#273B7D"/>
</g>
</g>
<mask id="mask2_129_2886" style="mask-type:luminance" maskUnits="userSpaceOnUse" x="0" y="-1" width="161" height="28">
<path d="M0.372803 -0.194515H160.662V26.6993H0.372803V-0.194515Z" fill="white"/>
</mask>
<g mask="url(#mask2_129_2886)">
<mask id="mask3_129_2886" style="mask-type:luminance" maskUnits="userSpaceOnUse" x="0" y="0" width="161" height="27">
<path d="M0.372803 0.335426H160.628V26.6641H0.372803V0.335426Z" fill="white"/>
</mask>
<g mask="url(#mask3_129_2886)">
<mask id="mask4_129_2886" style="mask-type:luminance" maskUnits="userSpaceOnUse" x="0" y="-1" width="161" height="28">
<path d="M0.372803 26.6993H160.662V-0.194515H0.372803V26.6993Z" fill="white"/>
</mask>
<g mask="url(#mask4_129_2886)">
<path d="M129.376 17.7665C127.279 17.7665 125.817 16.1195 125.817 13.7648C125.817 11.4116 127.279 9.76631 129.376 9.76631C131.482 9.76631 132.96 11.4116 132.96 13.7648C132.96 16.1564 131.518 17.7665 129.376 17.7665ZM129.376 6.24924C124.935 6.24924 121.714 9.41075 121.714 13.7648C121.714 18.1204 124.935 21.2803 129.376 21.2803C133.826 21.2803 137.065 18.1204 137.065 13.7664C137.065 9.41075 133.825 6.24924 129.376 6.24924Z" fill="#499FDD"/>
<path d="M93.0215 17.1275C90.7334 17.1275 89.9192 15.1552 89.9192 13.3052C89.9192 12.4901 90.1278 9.83509 92.8027 9.83509C94.1308 9.83509 95.8999 10.2108 95.8999 13.4411C95.8999 16.4885 94.3344 17.1275 93.0215 17.1275ZM98.0727 6.50753C97.2789 6.50753 96.6683 6.82117 96.3613 7.3931L96.246 7.61448L96.0526 7.44676C95.3775 6.86981 94.1664 6.18383 92.2006 6.18383C88.2875 6.18383 85.6533 9.09042 85.6533 13.4126C85.6533 17.733 88.3791 20.752 92.2786 20.752C93.6101 20.752 94.6634 20.4434 95.4979 19.8194L95.8202 19.5796V19.9821C95.8202 21.921 94.5531 22.991 92.2548 22.991C91.137 22.991 90.1211 22.7227 89.4392 22.4778C88.5538 22.2128 88.0313 22.4325 87.6734 23.313L87.341 24.1248L86.8711 25.3123L87.1612 25.4649C88.6335 26.2364 90.5485 26.6976 92.2786 26.6976C95.8406 26.6976 100.003 24.8946 100.003 19.8194L100.018 6.50753H98.0727Z" fill="#273B7D"/>
</g>
</g>
</g>
<mask id="mask5_129_2886" style="mask-type:luminance" maskUnits="userSpaceOnUse" x="0" y="-1" width="161" height="28">
<path d="M0.372803 -0.194515H160.662V26.6993H0.372803V-0.194515Z" fill="white"/>
</mask>
<g mask="url(#mask5_129_2886)">
<mask id="mask6_129_2886" style="mask-type:luminance" maskUnits="userSpaceOnUse" x="0" y="-1" width="161" height="28">
<path d="M0.372803 26.6992H160.662V-0.194637H0.372803V26.6992Z" fill="white"/>
</mask>
<g mask="url(#mask6_129_2886)">
<path d="M7.67485 17.6004L4.26892 17.5971V13.5718C4.26892 12.7097 4.60646 12.2636 5.35109 12.1596H7.67485C9.33202 12.1596 10.404 13.1928 10.4057 14.8649C10.404 16.5824 9.35915 17.5988 7.67485 17.5988V17.6004ZM4.26892 6.73891V5.67892C4.26892 4.75143 4.66585 4.31033 5.53599 4.2533H7.27969C8.77402 4.2533 9.6696 5.13718 9.6696 6.61815C9.6696 7.74522 9.05556 9.06183 7.33393 9.06183H4.26892V6.73891ZM12.0239 10.7575L11.4081 10.4153L11.9458 9.9608C12.5717 9.42913 13.6183 8.23329 13.6183 6.17034C13.6183 3.0105 11.1419 0.971025 7.30681 0.971025H2.43195C1.88342 0.990801 1.36365 1.2185 0.980297 1.60693C0.59694 1.99537 0.379408 2.51475 0.372803 3.05746V20.9867H7.39325C11.6558 20.9867 14.407 18.6923 14.407 15.1383C14.407 13.2246 13.5182 11.5894 12.0239 10.7575Z" fill="#273B7D"/>
<path d="M155.755 6.26425C154.891 6.2674 154.039 6.4624 153.262 6.83485C152.484 7.2073 151.801 7.74769 151.263 8.41609L150.962 8.79514L150.724 8.37081C149.947 6.9737 148.614 6.26425 146.76 6.26425C144.815 6.26425 143.51 7.33766 142.905 7.97499L142.508 8.39932L142.355 7.84081C142.135 7.03576 141.41 6.59466 140.315 6.59466H138.556L138.539 21.0521H142.533V14.6704C142.533 14.1102 142.604 13.5584 142.745 12.9797C143.127 11.4367 144.175 9.77798 145.937 9.94402C147.023 10.048 147.556 10.8782 147.556 12.4816V21.0521H151.579V14.6704C151.579 13.971 151.645 13.4477 151.805 12.9244C152.127 11.4518 153.223 9.94234 154.922 9.94234C156.154 9.94234 156.608 10.63 156.608 12.4816V18.9388C156.608 20.398 157.266 21.0521 158.744 21.0521H160.623L160.626 11.8225C160.626 8.13433 158.984 6.26425 155.755 6.26425ZM119.399 16.0322C119.387 16.0473 117.669 17.8386 115.404 17.8386C113.342 17.8386 111.259 16.5874 111.259 13.7949C111.259 11.3831 112.874 9.69747 115.187 9.69747C115.937 9.69747 116.792 9.96247 116.926 10.4103L116.945 10.4858C117.03 10.7941 117.216 11.0659 117.474 11.259C117.731 11.4522 118.046 11.5559 118.369 11.5541L120.558 11.5575V9.6656C120.558 7.16993 117.347 6.26425 115.187 6.26425C110.567 6.26425 107.215 9.44421 107.215 13.8251C107.215 18.2025 110.53 21.3792 115.103 21.3792C119.068 21.3792 121.226 18.8013 121.246 18.7761L121.362 18.6353L119.628 15.7924L119.399 16.0322Z" fill="#499FDD"/>
</g>
</g>
</g>
<defs>
<clipPath id="clip0_129_2886">
<rect width="161" height="27" fill="white"/>
</clipPath>
</defs>
</svg>
