<svg width="1440" height="601" viewBox="0 0 1440 601" fill="none" xmlns="http://www.w3.org/2000/svg">
<path d="M2115.26 -55.7319C1753.46 -1.00304 1186.23 109.755 1474.8 459.388C1842.03 904.321 2739.42 787.761 2340.86 1131.17" stroke="url(#paint0_radial_393_715)" stroke-opacity="0.2" stroke-width="8.2894"/>
<path d="M1987.69 -76.936C1625.9 -22.2071 1058.67 88.5504 1347.24 438.184C1714.47 883.117 2611.85 766.557 2213.29 1109.97" stroke="url(#paint1_radial_393_715)" stroke-opacity="0.2" stroke-width="8.2894"/>
<path d="M1860.19 -98.4946C1498.39 -43.7657 931.163 66.9918 1219.73 416.625C1586.96 861.559 2484.35 744.999 2085.79 1088.41" stroke="url(#paint2_radial_393_715)" stroke-opacity="0.2" stroke-width="8.2894"/>
<path d="M1732.52 -119.09C1370.73 -64.3614 803.499 46.3961 1092.07 396.03C1459.3 840.963 2356.68 724.403 1958.12 1067.82" stroke="url(#paint3_radial_393_715)" stroke-opacity="0.2" stroke-width="8.2894"/>
<path d="M1604.56 -137.755C1242.77 -83.0265 675.537 27.7311 964.108 377.365C1331.33 822.298 2228.72 705.738 1830.16 1049.15" stroke="url(#paint4_radial_393_715)" stroke-opacity="0.2" stroke-width="8.2894"/>
<path d="M1476.25 -153.801C1114.45 -99.0724 547.223 11.6852 835.793 361.319C1203.02 806.252 2100.41 689.692 1701.85 1033.11" stroke="url(#paint5_radial_393_715)" stroke-opacity="0.2" stroke-width="8.2894"/>
<path d="M1347.58 -166.762C985.787 -112.033 418.559 -1.27574 707.129 348.358C1074.36 793.291 1971.74 676.731 1573.18 1020.14" stroke="url(#paint6_radial_393_715)" stroke-opacity="0.2" stroke-width="8.2894"/>
<path d="M1217.83 -176.461C856.031 -121.733 288.803 -10.975 577.374 338.659C944.6 783.592 1841.99 667.032 1443.43 1010.45" stroke="url(#paint7_radial_393_715)" stroke-opacity="0.2" stroke-width="8.2894"/>
<path d="M1088.73 -183.927C726.933 -129.198 159.704 -18.4408 448.275 331.193C815.502 776.126 1712.89 659.566 1314.33 1002.98" stroke="url(#paint8_radial_393_715)" stroke-opacity="0.2" stroke-width="8.2894"/>
<path d="M959.536 -189.528C597.74 -134.799 30.5113 -24.0414 319.082 325.592C686.309 770.525 1583.7 653.965 1185.14 997.379" stroke="url(#paint9_radial_393_715)" stroke-opacity="0.2" stroke-width="8.2894"/>
<path d="M830.267 -193.007C468.472 -138.278 -98.7568 -27.5209 189.814 322.113C557.041 767.046 1454.43 650.486 1055.87 993.899" stroke="url(#paint10_radial_393_715)" stroke-opacity="0.2" stroke-width="8.2894"/>
<path d="M700.957 -194.044C339.161 -139.316 -228.067 -28.558 60.5034 321.076C427.73 766.009 1325.12 649.449 926.557 992.862" stroke="url(#paint11_radial_393_715)" stroke-opacity="0.2" stroke-width="8.2894"/>
<path d="M571.655 -192.231C209.86 -137.502 -357.369 -26.7445 -68.7983 322.889C298.428 767.822 1195.82 651.262 797.255 994.676" stroke="url(#paint12_radial_393_715)" stroke-opacity="0.2" stroke-width="8.2894"/>
<path d="M442.445 -187.026C80.6496 -132.297 -486.579 -21.5394 -198.008 328.094C169.218 773.027 1066.61 656.467 668.045 999.881" stroke="url(#paint13_radial_393_715)" stroke-opacity="0.2" stroke-width="8.2894"/>
<path d="M313.466 -177.703C-48.3299 -122.974 -615.559 -12.2162 -326.988 337.417C40.2389 782.351 937.626 665.791 539.066 1009.2" stroke="url(#paint14_radial_393_715)" stroke-opacity="0.2" stroke-width="8.2894"/>
<path d="M184.961 -163.238C-176.835 -108.509 -744.063 2.24868 -455.493 351.882C-88.266 796.816 809.121 680.256 410.561 1023.67" stroke="url(#paint15_radial_393_715)" stroke-opacity="0.2" stroke-width="8.2894"/>
<path d="M57.369 -142.156C-304.427 -87.4269 -871.655 23.3307 -583.084 372.964C-215.858 817.898 681.529 701.338 282.969 1044.75" stroke="url(#paint16_radial_393_715)" stroke-opacity="0.2" stroke-width="8.2894"/>
<path d="M-68.4279 -112.349C-430.223 -57.6202 -997.452 53.1374 -708.881 402.771C-341.655 847.704 555.732 731.144 157.172 1074.56" stroke="url(#paint17_radial_393_715)" stroke-opacity="0.2" stroke-width="8.2894"/>
<path d="M-190.54 -72.5903C-552.336 -17.8614 -1119.56 92.8961 -830.994 442.53C-463.767 887.463 433.62 770.903 35.0598 1114.32" stroke="url(#paint18_radial_393_715)" stroke-opacity="0.2" stroke-width="8.2894"/>
<defs>
<radialGradient id="paint0_radial_393_715" cx="0" cy="0" r="1" gradientUnits="userSpaceOnUse" gradientTransform="translate(1918.27 537.721) rotate(90) scale(593.453 522.552)">
<stop stop-color="#D4EDEA"/>
<stop offset="1" stop-color="#9EA9A8" stop-opacity="0"/>
</radialGradient>
<radialGradient id="paint1_radial_393_715" cx="0" cy="0" r="1" gradientUnits="userSpaceOnUse" gradientTransform="translate(1790.71 516.517) rotate(90) scale(593.453 522.552)">
<stop stop-color="#D4EDEA"/>
<stop offset="1" stop-color="#9EA9A8" stop-opacity="0"/>
</radialGradient>
<radialGradient id="paint2_radial_393_715" cx="0" cy="0" r="1" gradientUnits="userSpaceOnUse" gradientTransform="translate(1663.2 494.959) rotate(90) scale(593.453 522.552)">
<stop stop-color="#D4EDEA"/>
<stop offset="1" stop-color="#9EA9A8" stop-opacity="0"/>
</radialGradient>
<radialGradient id="paint3_radial_393_715" cx="0" cy="0" r="1" gradientUnits="userSpaceOnUse" gradientTransform="translate(1535.54 474.363) rotate(90) scale(593.453 522.552)">
<stop stop-color="#D4EDEA"/>
<stop offset="1" stop-color="#9EA9A8" stop-opacity="0"/>
</radialGradient>
<radialGradient id="paint4_radial_393_715" cx="0" cy="0" r="1" gradientUnits="userSpaceOnUse" gradientTransform="translate(1407.58 455.698) rotate(90) scale(593.453 522.552)">
<stop stop-color="#D4EDEA"/>
<stop offset="1" stop-color="#9EA9A8" stop-opacity="0"/>
</radialGradient>
<radialGradient id="paint5_radial_393_715" cx="0" cy="0" r="1" gradientUnits="userSpaceOnUse" gradientTransform="translate(1279.26 439.652) rotate(90) scale(593.453 522.552)">
<stop stop-color="#D4EDEA"/>
<stop offset="1" stop-color="#9EA9A8" stop-opacity="0"/>
</radialGradient>
<radialGradient id="paint6_radial_393_715" cx="0" cy="0" r="1" gradientUnits="userSpaceOnUse" gradientTransform="translate(1150.6 426.691) rotate(90) scale(593.453 522.552)">
<stop stop-color="#D4EDEA"/>
<stop offset="1" stop-color="#9EA9A8" stop-opacity="0"/>
</radialGradient>
<radialGradient id="paint7_radial_393_715" cx="0" cy="0" r="1" gradientUnits="userSpaceOnUse" gradientTransform="translate(1020.84 416.992) rotate(90) scale(593.453 522.552)">
<stop stop-color="#D4EDEA"/>
<stop offset="1" stop-color="#9EA9A8" stop-opacity="0"/>
</radialGradient>
<radialGradient id="paint8_radial_393_715" cx="0" cy="0" r="1" gradientUnits="userSpaceOnUse" gradientTransform="translate(891.743 409.526) rotate(90) scale(593.453 522.552)">
<stop stop-color="#D4EDEA"/>
<stop offset="1" stop-color="#9EA9A8" stop-opacity="0"/>
</radialGradient>
<radialGradient id="paint9_radial_393_715" cx="0" cy="0" r="1" gradientUnits="userSpaceOnUse" gradientTransform="translate(762.55 403.925) rotate(90) scale(593.453 522.552)">
<stop stop-color="#D4EDEA"/>
<stop offset="1" stop-color="#9EA9A8" stop-opacity="0"/>
</radialGradient>
<radialGradient id="paint10_radial_393_715" cx="0" cy="0" r="1" gradientUnits="userSpaceOnUse" gradientTransform="translate(633.282 400.446) rotate(90) scale(593.453 522.552)">
<stop stop-color="#D4EDEA"/>
<stop offset="1" stop-color="#9EA9A8" stop-opacity="0"/>
</radialGradient>
<radialGradient id="paint11_radial_393_715" cx="0" cy="0" r="1" gradientUnits="userSpaceOnUse" gradientTransform="translate(503.971 399.409) rotate(90) scale(593.453 522.552)">
<stop stop-color="#D4EDEA"/>
<stop offset="1" stop-color="#9EA9A8" stop-opacity="0"/>
</radialGradient>
<radialGradient id="paint12_radial_393_715" cx="0" cy="0" r="1" gradientUnits="userSpaceOnUse" gradientTransform="translate(374.669 401.222) rotate(90) scale(593.453 522.552)">
<stop stop-color="#D4EDEA"/>
<stop offset="1" stop-color="#9EA9A8" stop-opacity="0"/>
</radialGradient>
<radialGradient id="paint13_radial_393_715" cx="0" cy="0" r="1" gradientUnits="userSpaceOnUse" gradientTransform="translate(245.459 406.427) rotate(90) scale(593.453 522.552)">
<stop stop-color="#D4EDEA"/>
<stop offset="1" stop-color="#9EA9A8" stop-opacity="0"/>
</radialGradient>
<radialGradient id="paint14_radial_393_715" cx="0" cy="0" r="1" gradientUnits="userSpaceOnUse" gradientTransform="translate(116.48 415.751) rotate(90) scale(593.453 522.552)">
<stop stop-color="#D4EDEA"/>
<stop offset="1" stop-color="#9EA9A8" stop-opacity="0"/>
</radialGradient>
<radialGradient id="paint15_radial_393_715" cx="0" cy="0" r="1" gradientUnits="userSpaceOnUse" gradientTransform="translate(-12.025 430.216) rotate(90) scale(593.453 522.552)">
<stop stop-color="#D4EDEA"/>
<stop offset="1" stop-color="#9EA9A8" stop-opacity="0"/>
</radialGradient>
<radialGradient id="paint16_radial_393_715" cx="0" cy="0" r="1" gradientUnits="userSpaceOnUse" gradientTransform="translate(-139.617 451.298) rotate(90) scale(593.453 522.552)">
<stop stop-color="#D4EDEA"/>
<stop offset="1" stop-color="#9EA9A8" stop-opacity="0"/>
</radialGradient>
<radialGradient id="paint17_radial_393_715" cx="0" cy="0" r="1" gradientUnits="userSpaceOnUse" gradientTransform="translate(-265.414 481.104) rotate(90) scale(593.453 522.552)">
<stop stop-color="#D4EDEA"/>
<stop offset="1" stop-color="#9EA9A8" stop-opacity="0"/>
</radialGradient>
<radialGradient id="paint18_radial_393_715" cx="0" cy="0" r="1" gradientUnits="userSpaceOnUse" gradientTransform="translate(-387.526 520.863) rotate(90) scale(593.453 522.552)">
<stop stop-color="#D4EDEA"/>
<stop offset="1" stop-color="#9EA9A8" stop-opacity="0"/>
</radialGradient>
</defs>
</svg>
