<svg xmlns="http://www.w3.org/2000/svg" xmlns:xlink="http://www.w3.org/1999/xlink" width="300" zoomAndPan="magnify" viewBox="0 0 224.87999 89.999999" height="120" preserveAspectRatio="xMidYMid meet" version="1.0"><defs><g/><clipPath id="3cdc0237bf"><path d="M 5 0.0234375 L 224 0.0234375 L 224 89.976562 L 5 89.976562 Z M 5 0.0234375 " clip-rule="nonzero"/></clipPath><clipPath id="8b238f4d9c"><path d="M 0.757812 0.0234375 L 218.5625 0.0234375 L 218.5625 89.496094 L 0.757812 89.496094 Z M 0.757812 0.0234375 " clip-rule="nonzero"/></clipPath><clipPath id="1c974e8432"><rect x="0" width="219" y="0" height="90"/></clipPath><clipPath id="5597b76640"><rect x="0" width="144" y="0" height="16"/></clipPath><clipPath id="6f1ef7e1e2"><rect x="0" width="219" y="0" height="90"/></clipPath></defs><g clip-path="url(#3cdc0237bf)"><g transform="matrix(1, 0, 0, 1, 5, 0.000000000000011848)"><g clip-path="url(#6f1ef7e1e2)"><g clip-path="url(#8b238f4d9c)"><g transform="matrix(1, 0, 0, 1, 0.000000000000000888, 0.000000000000011848)"><g clip-path="url(#1c974e8432)"><g fill="#999692" fill-opacity="1"><g transform="translate(3.37324, 51.172516)"><g><path d="M 41.796875 -26.390625 C 41.796875 -25.472656 41.582031 -24.566406 41.15625 -23.671875 C 40.738281 -22.785156 40.15625 -21.925781 39.40625 -21.09375 C 38.65625 -20.257812 37.78125 -19.460938 36.78125 -18.703125 C 35.789062 -17.953125 34.722656 -17.242188 33.578125 -16.578125 C 32.429688 -15.921875 31.253906 -15.316406 30.046875 -14.765625 C 31.722656 -13.785156 32.5625 -12.28125 32.5625 -10.25 C 32.5625 -9.15625 32.375 -8.144531 32 -7.21875 L 32.015625 -7.21875 C 33.148438 -6.945312 34.253906 -6.625 35.328125 -6.25 C 35.671875 -6.144531 35.84375 -5.914062 35.84375 -5.5625 C 35.84375 -5.351562 35.769531 -5.175781 35.625 -5.03125 C 35.476562 -4.894531 35.304688 -4.828125 35.109375 -4.828125 C 35.023438 -4.828125 34.945312 -4.84375 34.875 -4.875 C 34.332031 -5.0625 33.773438 -5.234375 33.203125 -5.390625 C 32.628906 -5.554688 32.03125 -5.707031 31.40625 -5.84375 L 31.390625 -5.859375 L 31.390625 -5.84375 C 30.773438 -4.71875 29.945312 -3.671875 28.90625 -2.703125 C 27.875 -1.734375 26.6875 -0.84375 25.34375 -0.03125 C 24 0.769531 22.550781 1.488281 21 2.125 C 19.457031 2.757812 17.851562 3.296875 16.1875 3.734375 C 14.53125 4.171875 12.863281 4.503906 11.1875 4.734375 C 9.507812 4.960938 7.875 5.078125 6.28125 5.078125 C 5.164062 5.078125 4.15625 5.007812 3.25 4.875 C 2.351562 4.738281 1.566406 4.535156 0.890625 4.265625 L 0.875 4.265625 C 0.550781 4.765625 0.253906 5.25 -0.015625 5.71875 C -0.296875 6.1875 -0.570312 6.65625 -0.84375 7.125 C -0.976562 7.382812 -1.195312 7.515625 -1.5 7.515625 C -1.695312 7.515625 -1.863281 7.441406 -2 7.296875 C -2.144531 7.160156 -2.21875 6.988281 -2.21875 6.78125 C -2.21875 6.675781 -2.1875 6.554688 -2.125 6.421875 C -1.863281 5.953125 -1.585938 5.476562 -1.296875 5 C -1.015625 4.53125 -0.71875 4.054688 -0.40625 3.578125 C -0.40625 3.578125 -0.40625 3.570312 -0.40625 3.5625 C -0.414062 3.5625 -0.421875 3.5625 -0.421875 3.5625 C -1.390625 2.8125 -1.875 1.882812 -1.875 0.78125 C -1.875 0.0390625 -1.554688 -0.695312 -0.921875 -1.4375 C -0.296875 -2.175781 0.613281 -2.894531 1.8125 -3.59375 C 3.007812 -4.289062 4.453125 -4.9375 6.140625 -5.53125 C 6.210938 -5.582031 6.253906 -5.617188 6.265625 -5.640625 C 7.804688 -7.566406 9.40625 -9.460938 11.0625 -11.328125 C 12.726562 -13.203125 14.378906 -14.988281 16.015625 -16.6875 C 17.648438 -18.382812 19.210938 -19.941406 20.703125 -21.359375 C 22.203125 -22.785156 23.570312 -24.015625 24.8125 -25.046875 C 26.0625 -26.085938 27.125 -26.867188 28 -27.390625 C 28.132812 -27.460938 28.265625 -27.5 28.390625 -27.5 C 28.585938 -27.5 28.753906 -27.425781 28.890625 -27.28125 C 29.035156 -27.132812 29.109375 -26.960938 29.109375 -26.765625 C 29.109375 -26.484375 28.988281 -26.273438 28.75 -26.140625 C 27.957031 -25.648438 26.988281 -24.941406 25.84375 -24.015625 C 24.707031 -23.097656 23.457031 -22 22.09375 -20.71875 C 20.738281 -19.445312 19.3125 -18.039062 17.8125 -16.5 C 16.3125 -14.96875 14.789062 -13.347656 13.25 -11.640625 C 11.71875 -9.929688 10.21875 -8.179688 8.75 -6.390625 C 10.882812 -6.992188 13.125 -7.457031 15.46875 -7.78125 C 17.8125 -8.101562 20.109375 -8.265625 22.359375 -8.265625 C 23.816406 -8.265625 25.234375 -8.203125 26.609375 -8.078125 C 27.984375 -7.960938 29.300781 -7.773438 30.5625 -7.515625 C 30.570312 -7.515625 30.585938 -7.507812 30.609375 -7.5 L 30.609375 -7.515625 C 30.765625 -7.960938 30.882812 -8.414062 30.96875 -8.875 C 31.0625 -9.332031 31.109375 -9.789062 31.109375 -10.25 C 31.109375 -12.050781 30.171875 -13.296875 28.296875 -13.984375 C 28.273438 -13.992188 28.242188 -13.992188 28.203125 -13.984375 C 26.972656 -13.484375 25.753906 -13.050781 24.546875 -12.6875 C 23.347656 -12.332031 22.207031 -12.0625 21.125 -11.875 C 20.050781 -11.6875 19.085938 -11.59375 18.234375 -11.59375 C 17.617188 -11.59375 17.109375 -11.738281 16.703125 -12.03125 C 16.296875 -12.332031 16.109375 -12.707031 16.140625 -13.15625 C 16.179688 -13.71875 16.546875 -14.21875 17.234375 -14.65625 C 17.921875 -15.09375 18.84375 -15.429688 20 -15.671875 C 21.15625 -15.921875 22.460938 -16.046875 23.921875 -16.046875 C 24.765625 -16.046875 25.539062 -16 26.25 -15.90625 C 26.957031 -15.820312 27.601562 -15.695312 28.1875 -15.53125 C 28.25 -15.519531 28.296875 -15.519531 28.328125 -15.53125 C 29.546875 -16.03125 30.738281 -16.59375 31.90625 -17.21875 C 33.082031 -17.84375 34.179688 -18.507812 35.203125 -19.21875 C 36.222656 -19.925781 37.113281 -20.671875 37.875 -21.453125 C 38.644531 -22.234375 39.25 -23.035156 39.6875 -23.859375 C 40.125 -24.691406 40.34375 -25.535156 40.34375 -26.390625 C 40.34375 -28.515625 37.65625 -29.578125 32.28125 -29.578125 C 30.21875 -29.578125 28.132812 -29.363281 26.03125 -28.9375 C 23.9375 -28.507812 21.867188 -27.929688 19.828125 -27.203125 C 17.796875 -26.484375 15.851562 -25.648438 14 -24.703125 C 12.144531 -23.765625 10.414062 -22.769531 8.8125 -21.71875 C 7.207031 -20.664062 5.78125 -19.609375 4.53125 -18.546875 C 3.289062 -17.492188 2.28125 -16.488281 1.5 -15.53125 C 1.34375 -15.351562 1.148438 -15.265625 0.921875 -15.265625 C 0.722656 -15.265625 0.550781 -15.335938 0.40625 -15.484375 C 0.269531 -15.628906 0.203125 -15.800781 0.203125 -16 C 0.203125 -16.15625 0.253906 -16.3125 0.359375 -16.46875 C 1.171875 -17.445312 2.222656 -18.484375 3.515625 -19.578125 C 4.804688 -20.679688 6.28125 -21.773438 7.9375 -22.859375 C 9.601562 -23.953125 11.398438 -24.988281 13.328125 -25.96875 C 15.265625 -26.945312 17.285156 -27.816406 19.390625 -28.578125 C 21.503906 -29.335938 23.648438 -29.9375 25.828125 -30.375 C 28.003906 -30.8125 30.15625 -31.03125 32.28125 -31.03125 C 38.625 -31.03125 41.796875 -29.484375 41.796875 -26.390625 Z M 17.59375 -13.03125 C 17.59375 -13.039062 17.675781 -13.046875 17.84375 -13.046875 C 18.007812 -13.046875 18.140625 -13.046875 18.234375 -13.046875 C 19.179688 -13.046875 20.289062 -13.171875 21.5625 -13.421875 C 22.832031 -13.679688 24.179688 -14.039062 25.609375 -14.5 C 25.316406 -14.53125 25.03125 -14.550781 24.75 -14.5625 C 24.476562 -14.570312 24.203125 -14.578125 23.921875 -14.578125 C 23.191406 -14.578125 22.457031 -14.53125 21.71875 -14.4375 C 20.976562 -14.34375 20.296875 -14.21875 19.671875 -14.0625 C 19.054688 -13.914062 18.554688 -13.75 18.171875 -13.5625 C 17.796875 -13.382812 17.601562 -13.207031 17.59375 -13.03125 Z M 6.28125 3.609375 C 8.113281 3.609375 9.984375 3.460938 11.890625 3.171875 C 13.804688 2.878906 15.679688 2.457031 17.515625 1.90625 C 19.347656 1.351562 21.070312 0.675781 22.6875 -0.125 C 24.300781 -0.925781 25.726562 -1.832031 26.96875 -2.84375 C 28.21875 -3.851562 29.203125 -4.953125 29.921875 -6.140625 C 27.566406 -6.585938 25.046875 -6.8125 22.359375 -6.8125 C 20.609375 -6.8125 18.835938 -6.703125 17.046875 -6.484375 C 15.253906 -6.265625 13.515625 -5.96875 11.828125 -5.59375 C 10.148438 -5.226562 8.582031 -4.796875 7.125 -4.296875 C 7.09375 -4.296875 7.054688 -4.28125 7.015625 -4.25 C 6.046875 -3.019531 5.113281 -1.796875 4.21875 -0.578125 C 3.320312 0.640625 2.472656 1.84375 1.671875 3.03125 C 2.242188 3.207031 2.921875 3.347656 3.703125 3.453125 C 4.484375 3.554688 5.34375 3.609375 6.28125 3.609375 Z M 0.40625 2.34375 C 1 1.425781 1.632812 0.5 2.3125 -0.4375 C 2.988281 -1.375 3.695312 -2.328125 4.4375 -3.296875 C 2.875 -2.597656 1.671875 -1.894531 0.828125 -1.1875 C -0.00390625 -0.488281 -0.421875 0.164062 -0.421875 0.78125 C -0.421875 1.40625 -0.144531 1.925781 0.40625 2.34375 Z M 1.671875 3.015625 L 1.671875 3.03125 Z M 1.671875 3.015625 "/></g></g></g><g fill="#999692" fill-opacity="1"><g transform="translate(42.84372, 51.172516)"><g><path d="M 26.484375 -8.203125 C 26.679688 -8.203125 26.851562 -8.128906 27 -7.984375 C 27.144531 -7.847656 27.21875 -7.675781 27.21875 -7.46875 C 27.21875 -7.1875 27.09375 -6.976562 26.84375 -6.84375 C 25.644531 -6.101562 24.363281 -5.472656 23 -4.953125 C 21.632812 -4.441406 20.238281 -4.015625 18.8125 -3.671875 C 17.394531 -3.328125 16 -3.039062 14.625 -2.8125 C 13.257812 -2.582031 11.972656 -2.382812 10.765625 -2.21875 C 9.796875 -1.28125 8.78125 -0.539062 7.71875 0 C 6.664062 0.550781 5.71875 0.828125 4.875 0.828125 C 4.25 0.828125 3.738281 0.65625 3.34375 0.3125 C 2.957031 -0.03125 2.765625 -0.472656 2.765625 -1.015625 C 2.765625 -1.535156 3.023438 -1.941406 3.546875 -2.234375 C 4.066406 -2.535156 4.835938 -2.78125 5.859375 -2.96875 C 6.878906 -3.15625 8.140625 -3.351562 9.640625 -3.5625 L 10.125 -3.609375 C 10.851562 -4.367188 11.425781 -5.128906 11.84375 -5.890625 C 12.257812 -6.648438 12.46875 -7.304688 12.46875 -7.859375 C 12.46875 -8.140625 12.332031 -8.28125 12.0625 -8.28125 C 11.414062 -8.28125 10.460938 -7.914062 9.203125 -7.1875 C 7.941406 -6.457031 6.394531 -5.414062 4.5625 -4.0625 C 3.4375 -3.226562 2.398438 -2.398438 1.453125 -1.578125 C 0.515625 -0.753906 -0.25 -0.0664062 -0.84375 0.484375 L -1.15625 0.75 C -1.394531 0.976562 -1.628906 1.1875 -1.859375 1.375 C -2.097656 1.5625 -2.3125 1.65625 -2.5 1.65625 C -2.757812 1.65625 -2.976562 1.5625 -3.15625 1.375 C -3.34375 1.195312 -3.4375 0.984375 -3.4375 0.734375 C -3.4375 0.0976562 -3.007812 -0.960938 -2.15625 -2.453125 C -1.3125 -3.941406 -0.0664062 -5.8125 1.578125 -8.0625 C 1.585938 -8.101562 1.617188 -8.148438 1.671875 -8.203125 L 1.609375 -8.140625 C 2.742188 -9.691406 4.007812 -11.351562 5.40625 -13.125 C 6.8125 -14.894531 8.296875 -16.722656 9.859375 -18.609375 C 11.429688 -20.492188 13.050781 -22.390625 14.71875 -24.296875 C 16.394531 -26.210938 18.066406 -28.085938 19.734375 -29.921875 C 21.398438 -31.753906 23.035156 -33.5 24.640625 -35.15625 C 26.242188 -36.820312 27.765625 -38.351562 29.203125 -39.75 C 30.640625 -41.144531 31.957031 -42.351562 33.15625 -43.375 C 34.351562 -44.40625 35.382812 -45.203125 36.25 -45.765625 C 37.125 -46.335938 37.785156 -46.625 38.234375 -46.625 C 38.867188 -46.625 39.320312 -46.476562 39.59375 -46.1875 C 39.875 -45.894531 40.015625 -45.484375 40.015625 -44.953125 C 40.015625 -44.359375 39.742188 -43.535156 39.203125 -42.484375 C 38.660156 -41.429688 37.878906 -40.195312 36.859375 -38.78125 C 35.835938 -37.375 34.613281 -35.832031 33.1875 -34.15625 C 31.769531 -32.488281 30.191406 -30.734375 28.453125 -28.890625 C 26.710938 -27.046875 24.832031 -25.164062 22.8125 -23.25 C 20.800781 -21.34375 18.691406 -19.445312 16.484375 -17.5625 C 14.285156 -15.675781 12.023438 -13.84375 9.703125 -12.0625 C 7.378906 -10.289062 5.035156 -8.640625 2.671875 -7.109375 C 2.003906 -6.203125 1.40625 -5.363281 0.875 -4.59375 C 0.34375 -3.820312 -0.113281 -3.117188 -0.5 -2.484375 C -0.707031 -2.160156 -0.78125 -1.941406 -0.71875 -1.828125 C -0.664062 -1.710938 -0.453125 -1.820312 -0.078125 -2.15625 C 0.460938 -2.632812 1.046875 -3.132812 1.671875 -3.65625 C 2.304688 -4.175781 2.972656 -4.703125 3.671875 -5.234375 C 7.660156 -8.191406 10.476562 -9.671875 12.125 -9.671875 C 12.675781 -9.671875 13.113281 -9.507812 13.4375 -9.1875 C 13.757812 -8.863281 13.921875 -8.421875 13.921875 -7.859375 C 13.921875 -7.273438 13.78125 -6.644531 13.5 -5.96875 C 13.21875 -5.300781 12.804688 -4.613281 12.265625 -3.90625 C 13.773438 -4.132812 15.335938 -4.410156 16.953125 -4.734375 C 18.566406 -5.066406 20.15625 -5.5 21.71875 -6.03125 C 23.289062 -6.570312 24.75 -7.253906 26.09375 -8.078125 C 26.21875 -8.160156 26.347656 -8.203125 26.484375 -8.203125 Z M 38.234375 -45.171875 C 37.859375 -45.171875 37.25 -44.867188 36.40625 -44.265625 C 35.570312 -43.671875 34.554688 -42.828125 33.359375 -41.734375 C 32.160156 -40.640625 30.828125 -39.363281 29.359375 -37.90625 C 27.898438 -36.445312 26.359375 -34.851562 24.734375 -33.125 C 23.109375 -31.394531 21.441406 -29.582031 19.734375 -27.6875 C 18.035156 -25.789062 16.34375 -23.867188 14.65625 -21.921875 C 12.976562 -19.984375 11.351562 -18.0625 9.78125 -16.15625 C 8.21875 -14.257812 6.757812 -12.453125 5.40625 -10.734375 C 7.90625 -12.492188 10.347656 -14.34375 12.734375 -16.28125 C 15.128906 -18.21875 17.421875 -20.191406 19.609375 -22.203125 C 21.804688 -24.210938 23.863281 -26.1875 25.78125 -28.125 C 27.707031 -30.070312 29.453125 -31.929688 31.015625 -33.703125 C 32.578125 -35.472656 33.921875 -37.09375 35.046875 -38.5625 C 36.179688 -40.039062 37.050781 -41.316406 37.65625 -42.390625 C 38.257812 -43.460938 38.5625 -44.269531 38.5625 -44.8125 C 38.5625 -45.050781 38.453125 -45.171875 38.234375 -45.171875 Z M 4.21875 -0.90625 C 4.21875 -0.851562 4.269531 -0.789062 4.375 -0.71875 C 4.488281 -0.65625 4.65625 -0.625 4.875 -0.625 C 5.757812 -0.625 6.800781 -1.03125 8 -1.84375 C 6.894531 -1.675781 5.988281 -1.515625 5.28125 -1.359375 C 4.570312 -1.203125 4.21875 -1.050781 4.21875 -0.90625 Z M 4.21875 -0.90625 "/></g></g></g><g fill="#999692" fill-opacity="1"><g transform="translate(67.245129, 51.172516)"><g><path d="M 44.765625 -45.0625 C 44.765625 -44.476562 44.453125 -43.671875 43.828125 -42.640625 C 43.203125 -41.617188 42.316406 -40.4375 41.171875 -39.09375 C 40.023438 -37.757812 38.675781 -36.304688 37.125 -34.734375 C 35.582031 -33.171875 33.882812 -31.53125 32.03125 -29.8125 C 30.1875 -28.101562 28.242188 -26.367188 26.203125 -24.609375 C 24.171875 -22.859375 22.085938 -21.125 19.953125 -19.40625 C 17.828125 -17.6875 15.710938 -16.03125 13.609375 -14.4375 C 11.515625 -12.851562 9.476562 -11.375 7.5 -10 C 5.53125 -8.632812 3.675781 -7.429688 1.9375 -6.390625 C -0.1875 -2.941406 -1.25 -0.347656 -1.25 1.390625 C -1.25 1.941406 -1.125 2.316406 -0.875 2.515625 C -0.625 2.710938 -0.144531 2.8125 0.5625 2.8125 C 1.144531 2.8125 1.957031 2.628906 3 2.265625 C 4.050781 1.898438 5.273438 1.382812 6.671875 0.71875 C 8.066406 0.0625 9.578125 -0.710938 11.203125 -1.609375 C 12.835938 -2.515625 14.523438 -3.507812 16.265625 -4.59375 C 18.015625 -5.675781 19.757812 -6.816406 21.5 -8.015625 C 21.601562 -8.109375 21.742188 -8.15625 21.921875 -8.15625 C 22.117188 -8.15625 22.285156 -8.082031 22.421875 -7.9375 C 22.566406 -7.800781 22.640625 -7.632812 22.640625 -7.4375 C 22.640625 -7.175781 22.535156 -6.972656 22.328125 -6.828125 C 21.035156 -5.941406 19.679688 -5.050781 18.265625 -4.15625 C 16.859375 -3.257812 15.445312 -2.394531 14.03125 -1.5625 C 12.613281 -0.738281 11.226562 0.0234375 9.875 0.734375 C 8.53125 1.441406 7.265625 2.054688 6.078125 2.578125 C 4.890625 3.109375 3.820312 3.519531 2.875 3.8125 C 1.9375 4.113281 1.164062 4.265625 0.5625 4.265625 C -0.539062 4.265625 -1.359375 4.03125 -1.890625 3.5625 C -2.429688 3.101562 -2.703125 2.378906 -2.703125 1.390625 C -2.703125 0.410156 -2.410156 -0.773438 -1.828125 -2.171875 C -1.253906 -3.566406 -0.445312 -5.109375 0.59375 -6.796875 C 1.632812 -8.484375 2.863281 -10.273438 4.28125 -12.171875 C 5.695312 -14.066406 7.242188 -16.007812 8.921875 -18 C 10.609375 -19.988281 12.367188 -21.984375 14.203125 -23.984375 C 16.046875 -25.984375 17.921875 -27.9375 19.828125 -29.84375 C 21.742188 -31.75 23.632812 -33.5625 25.5 -35.28125 C 27.363281 -37.007812 29.164062 -38.59375 30.90625 -40.03125 C 32.644531 -41.476562 34.257812 -42.726562 35.75 -43.78125 C 37.238281 -44.84375 38.554688 -45.664062 39.703125 -46.25 C 40.859375 -46.832031 41.785156 -47.125 42.484375 -47.125 C 43.203125 -47.125 43.757812 -46.941406 44.15625 -46.578125 C 44.5625 -46.222656 44.765625 -45.71875 44.765625 -45.0625 Z M 42.484375 -45.671875 C 41.890625 -45.671875 41.097656 -45.421875 40.109375 -44.921875 C 39.117188 -44.429688 37.96875 -43.726562 36.65625 -42.8125 C 35.351562 -41.894531 33.941406 -40.804688 32.421875 -39.546875 C 30.898438 -38.296875 29.300781 -36.914062 27.625 -35.40625 C 25.957031 -33.90625 24.257812 -32.304688 22.53125 -30.609375 C 20.800781 -28.910156 19.078125 -27.160156 17.359375 -25.359375 C 15.640625 -23.566406 13.972656 -21.753906 12.359375 -19.921875 C 10.753906 -18.085938 9.238281 -16.28125 7.8125 -14.5 C 6.382812 -12.726562 5.09375 -11.019531 3.9375 -9.375 C 5.738281 -10.539062 7.609375 -11.820312 9.546875 -13.21875 C 11.492188 -14.625 13.457031 -16.101562 15.4375 -17.65625 C 17.425781 -19.207031 19.394531 -20.789062 21.34375 -22.40625 C 23.289062 -24.019531 25.179688 -25.628906 27.015625 -27.234375 C 28.859375 -28.847656 30.597656 -30.421875 32.234375 -31.953125 C 33.867188 -33.492188 35.363281 -34.953125 36.71875 -36.328125 C 38.070312 -37.710938 39.238281 -38.976562 40.21875 -40.125 C 41.207031 -41.269531 41.96875 -42.265625 42.5 -43.109375 C 43.039062 -43.960938 43.3125 -44.613281 43.3125 -45.0625 C 43.3125 -45.289062 43.253906 -45.445312 43.140625 -45.53125 C 43.023438 -45.625 42.804688 -45.671875 42.484375 -45.671875 Z M 42.484375 -45.671875 "/></g></g></g><g fill="#999692" fill-opacity="1"><g transform="translate(87.141972, 51.172516)"><g><path d="M 20.84375 -8.203125 C 21.050781 -8.203125 21.222656 -8.128906 21.359375 -7.984375 C 21.503906 -7.847656 21.578125 -7.675781 21.578125 -7.46875 C 21.578125 -7.21875 21.472656 -7.023438 21.265625 -6.890625 C 19.972656 -5.941406 18.609375 -5.078125 17.171875 -4.296875 C 15.734375 -3.515625 14.300781 -2.828125 12.875 -2.234375 C 11.445312 -1.648438 10.09375 -1.15625 8.8125 -0.75 C 7.53125 -0.351562 6.390625 -0.0507812 5.390625 0.15625 C 4.398438 0.363281 3.617188 0.46875 3.046875 0.46875 C 1.617188 0.46875 0.515625 0.207031 -0.265625 -0.3125 C -1.054688 -0.84375 -1.453125 -1.585938 -1.453125 -2.546875 C -1.453125 -3.179688 -1.285156 -3.851562 -0.953125 -4.5625 C -0.628906 -5.28125 -0.191406 -5.976562 0.359375 -6.65625 C 0.910156 -7.332031 1.523438 -7.953125 2.203125 -8.515625 C 2.890625 -9.078125 3.585938 -9.519531 4.296875 -9.84375 C 5.003906 -10.175781 5.671875 -10.34375 6.296875 -10.34375 C 6.867188 -10.34375 7.328125 -10.191406 7.671875 -9.890625 C 8.015625 -9.597656 8.1875 -9.210938 8.1875 -8.734375 C 8.1875 -8.390625 8.066406 -8.050781 7.828125 -7.71875 C 7.585938 -7.394531 7.269531 -7.09375 6.875 -6.8125 C 6.476562 -6.539062 6.046875 -6.320312 5.578125 -6.15625 C 5.117188 -5.988281 4.65625 -5.90625 4.1875 -5.90625 C 3.25 -5.90625 2.5 -6.023438 1.9375 -6.265625 C 1.332031 -5.597656 0.859375 -4.9375 0.515625 -4.28125 C 0.171875 -3.625 0 -3.046875 0 -2.546875 C 0 -1.503906 1.015625 -0.984375 3.046875 -0.984375 C 3.578125 -0.984375 4.3125 -1.082031 5.25 -1.28125 C 6.195312 -1.476562 7.273438 -1.769531 8.484375 -2.15625 C 9.691406 -2.539062 10.976562 -3.015625 12.34375 -3.578125 C 13.71875 -4.148438 15.09375 -4.8125 16.46875 -5.5625 C 17.851562 -6.3125 19.171875 -7.144531 20.421875 -8.0625 C 20.523438 -8.15625 20.664062 -8.203125 20.84375 -8.203125 Z M 6.734375 -8.734375 C 6.734375 -8.785156 6.707031 -8.820312 6.65625 -8.84375 C 6.601562 -8.875 6.484375 -8.890625 6.296875 -8.890625 C 5.878906 -8.890625 5.394531 -8.757812 4.84375 -8.5 C 4.289062 -8.25 3.726562 -7.882812 3.15625 -7.40625 C 3.4375 -7.375 3.78125 -7.359375 4.1875 -7.359375 C 4.695312 -7.359375 5.140625 -7.441406 5.515625 -7.609375 C 5.890625 -7.773438 6.1875 -7.960938 6.40625 -8.171875 C 6.625 -8.390625 6.734375 -8.578125 6.734375 -8.734375 Z M 6.734375 -8.734375 "/></g></g></g><g fill="#999692" fill-opacity="1"><g transform="translate(105.927818, 51.172516)"><g><path d="M 26.125 -8.203125 C 26.320312 -8.203125 26.488281 -8.128906 26.625 -7.984375 C 26.769531 -7.847656 26.84375 -7.675781 26.84375 -7.46875 C 26.84375 -7.101562 26.675781 -6.875 26.34375 -6.78125 C 24.957031 -6.320312 23.472656 -5.859375 21.890625 -5.390625 C 20.304688 -4.921875 18.71875 -4.453125 17.125 -3.984375 C 15.59375 -3.523438 14.109375 -3.082031 12.671875 -2.65625 C 11.242188 -2.226562 9.929688 -1.820312 8.734375 -1.4375 C 8.660156 -1.394531 8.617188 -1.359375 8.609375 -1.328125 C 8.140625 -0.671875 7.550781 0 6.84375 0.6875 C 6.144531 1.382812 5.382812 2.023438 4.5625 2.609375 C 3.738281 3.203125 2.898438 3.675781 2.046875 4.03125 C 1.191406 4.394531 0.378906 4.578125 -0.390625 4.578125 C -0.941406 4.578125 -1.375 4.453125 -1.6875 4.203125 C -2 3.960938 -2.15625 3.632812 -2.15625 3.21875 C -2.15625 2.695312 -1.742188 2.117188 -0.921875 1.484375 C -0.109375 0.847656 1.035156 0.179688 2.515625 -0.515625 C 4.003906 -1.222656 5.734375 -1.921875 7.703125 -2.609375 L 7.8125 -2.6875 C 7.945312 -2.875 8.066406 -3.0625 8.171875 -3.25 C 8.273438 -3.4375 8.304688 -3.566406 8.265625 -3.640625 C 8.210938 -3.734375 8.035156 -3.765625 7.734375 -3.734375 C 7.441406 -3.710938 7.078125 -3.660156 6.640625 -3.578125 C 6.210938 -3.503906 5.773438 -3.429688 5.328125 -3.359375 C 4.804688 -3.265625 4.269531 -3.175781 3.71875 -3.09375 C 3.175781 -3.019531 2.675781 -2.984375 2.21875 -2.984375 C 1.457031 -2.984375 0.863281 -3.128906 0.4375 -3.421875 C 0.0195312 -3.722656 -0.1875 -4.148438 -0.1875 -4.703125 C -0.1875 -5.253906 0 -5.84375 0.375 -6.46875 C 0.757812 -7.09375 1.265625 -7.710938 1.890625 -8.328125 C 2.523438 -8.941406 3.226562 -9.5 4 -10 C 4.769531 -10.5 5.550781 -10.898438 6.34375 -11.203125 C 7.132812 -11.503906 7.875 -11.65625 8.5625 -11.65625 C 9.125 -11.65625 9.570312 -11.507812 9.90625 -11.21875 C 10.25 -10.925781 10.421875 -10.539062 10.421875 -10.0625 C 10.421875 -9.914062 10.410156 -9.773438 10.390625 -9.640625 C 10.253906 -9.097656 9.988281 -8.5625 9.59375 -8.03125 C 9.207031 -7.5 8.785156 -7.097656 8.328125 -6.828125 C 8.191406 -6.765625 8.0625 -6.734375 7.9375 -6.734375 C 7.738281 -6.734375 7.566406 -6.800781 7.421875 -6.9375 C 7.285156 -7.082031 7.21875 -7.253906 7.21875 -7.453125 C 7.21875 -7.734375 7.335938 -7.941406 7.578125 -8.078125 C 7.804688 -8.210938 8.023438 -8.394531 8.234375 -8.625 C 8.453125 -8.851562 8.628906 -9.09375 8.765625 -9.34375 C 8.898438 -9.59375 8.96875 -9.804688 8.96875 -9.984375 C 8.96875 -10.054688 8.925781 -10.109375 8.84375 -10.140625 C 8.769531 -10.179688 8.675781 -10.203125 8.5625 -10.203125 C 8.050781 -10.203125 7.472656 -10.078125 6.828125 -9.828125 C 6.179688 -9.578125 5.535156 -9.242188 4.890625 -8.828125 C 4.242188 -8.421875 3.644531 -7.976562 3.09375 -7.5 C 2.550781 -7.019531 2.109375 -6.546875 1.765625 -6.078125 C 1.429688 -5.609375 1.265625 -5.195312 1.265625 -4.84375 C 1.265625 -4.695312 1.335938 -4.59375 1.484375 -4.53125 C 1.628906 -4.46875 1.875 -4.4375 2.21875 -4.4375 C 2.625 -4.4375 3.070312 -4.46875 3.5625 -4.53125 C 4.050781 -4.601562 4.5625 -4.6875 5.09375 -4.78125 C 5.570312 -4.863281 6.050781 -4.9375 6.53125 -5 C 7.007812 -5.070312 7.4375 -5.109375 7.8125 -5.109375 C 8.4375 -5.109375 8.910156 -4.984375 9.234375 -4.734375 C 9.566406 -4.484375 9.710938 -4.128906 9.671875 -3.671875 C 9.660156 -3.617188 9.648438 -3.550781 9.640625 -3.46875 C 9.640625 -3.394531 9.625 -3.320312 9.59375 -3.25 C 10.65625 -3.582031 11.789062 -3.929688 13 -4.296875 C 14.21875 -4.660156 15.460938 -5.019531 16.734375 -5.375 C 18.316406 -5.84375 19.890625 -6.304688 21.453125 -6.765625 C 23.023438 -7.234375 24.5 -7.695312 25.875 -8.15625 C 25.957031 -8.1875 26.039062 -8.203125 26.125 -8.203125 Z M -0.09375 3.125 C 0.394531 3.125 0.984375 2.976562 1.671875 2.6875 C 2.359375 2.394531 3.082031 1.972656 3.84375 1.421875 C 4.601562 0.878906 5.34375 0.25 6.0625 -0.46875 C 5.195312 -0.113281 4.359375 0.253906 3.546875 0.640625 C 2.742188 1.035156 2.019531 1.40625 1.375 1.75 C 0.726562 2.101562 0.222656 2.410156 -0.140625 2.671875 C -0.316406 2.773438 -0.40625 2.878906 -0.40625 2.984375 C -0.40625 3.078125 -0.300781 3.125 -0.09375 3.125 Z M -0.09375 3.125 "/></g></g></g><g fill="#999692" fill-opacity="1"><g transform="translate(130.00603, 51.172516)"><g><path d="M 26.125 -8.203125 C 26.320312 -8.203125 26.488281 -8.128906 26.625 -7.984375 C 26.769531 -7.847656 26.84375 -7.675781 26.84375 -7.46875 C 26.84375 -7.101562 26.675781 -6.875 26.34375 -6.78125 C 24.957031 -6.320312 23.472656 -5.859375 21.890625 -5.390625 C 20.304688 -4.921875 18.71875 -4.453125 17.125 -3.984375 C 15.59375 -3.523438 14.109375 -3.082031 12.671875 -2.65625 C 11.242188 -2.226562 9.929688 -1.820312 8.734375 -1.4375 C 8.660156 -1.394531 8.617188 -1.359375 8.609375 -1.328125 C 8.140625 -0.671875 7.550781 0 6.84375 0.6875 C 6.144531 1.382812 5.382812 2.023438 4.5625 2.609375 C 3.738281 3.203125 2.898438 3.675781 2.046875 4.03125 C 1.191406 4.394531 0.378906 4.578125 -0.390625 4.578125 C -0.941406 4.578125 -1.375 4.453125 -1.6875 4.203125 C -2 3.960938 -2.15625 3.632812 -2.15625 3.21875 C -2.15625 2.695312 -1.742188 2.117188 -0.921875 1.484375 C -0.109375 0.847656 1.035156 0.179688 2.515625 -0.515625 C 4.003906 -1.222656 5.734375 -1.921875 7.703125 -2.609375 L 7.8125 -2.6875 C 7.945312 -2.875 8.066406 -3.0625 8.171875 -3.25 C 8.273438 -3.4375 8.304688 -3.566406 8.265625 -3.640625 C 8.210938 -3.734375 8.035156 -3.765625 7.734375 -3.734375 C 7.441406 -3.710938 7.078125 -3.660156 6.640625 -3.578125 C 6.210938 -3.503906 5.773438 -3.429688 5.328125 -3.359375 C 4.804688 -3.265625 4.269531 -3.175781 3.71875 -3.09375 C 3.175781 -3.019531 2.675781 -2.984375 2.21875 -2.984375 C 1.457031 -2.984375 0.863281 -3.128906 0.4375 -3.421875 C 0.0195312 -3.722656 -0.1875 -4.148438 -0.1875 -4.703125 C -0.1875 -5.253906 0 -5.84375 0.375 -6.46875 C 0.757812 -7.09375 1.265625 -7.710938 1.890625 -8.328125 C 2.523438 -8.941406 3.226562 -9.5 4 -10 C 4.769531 -10.5 5.550781 -10.898438 6.34375 -11.203125 C 7.132812 -11.503906 7.875 -11.65625 8.5625 -11.65625 C 9.125 -11.65625 9.570312 -11.507812 9.90625 -11.21875 C 10.25 -10.925781 10.421875 -10.539062 10.421875 -10.0625 C 10.421875 -9.914062 10.410156 -9.773438 10.390625 -9.640625 C 10.253906 -9.097656 9.988281 -8.5625 9.59375 -8.03125 C 9.207031 -7.5 8.785156 -7.097656 8.328125 -6.828125 C 8.191406 -6.765625 8.0625 -6.734375 7.9375 -6.734375 C 7.738281 -6.734375 7.566406 -6.800781 7.421875 -6.9375 C 7.285156 -7.082031 7.21875 -7.253906 7.21875 -7.453125 C 7.21875 -7.734375 7.335938 -7.941406 7.578125 -8.078125 C 7.804688 -8.210938 8.023438 -8.394531 8.234375 -8.625 C 8.453125 -8.851562 8.628906 -9.09375 8.765625 -9.34375 C 8.898438 -9.59375 8.96875 -9.804688 8.96875 -9.984375 C 8.96875 -10.054688 8.925781 -10.109375 8.84375 -10.140625 C 8.769531 -10.179688 8.675781 -10.203125 8.5625 -10.203125 C 8.050781 -10.203125 7.472656 -10.078125 6.828125 -9.828125 C 6.179688 -9.578125 5.535156 -9.242188 4.890625 -8.828125 C 4.242188 -8.421875 3.644531 -7.976562 3.09375 -7.5 C 2.550781 -7.019531 2.109375 -6.546875 1.765625 -6.078125 C 1.429688 -5.609375 1.265625 -5.195312 1.265625 -4.84375 C 1.265625 -4.695312 1.335938 -4.59375 1.484375 -4.53125 C 1.628906 -4.46875 1.875 -4.4375 2.21875 -4.4375 C 2.625 -4.4375 3.070312 -4.46875 3.5625 -4.53125 C 4.050781 -4.601562 4.5625 -4.6875 5.09375 -4.78125 C 5.570312 -4.863281 6.050781 -4.9375 6.53125 -5 C 7.007812 -5.070312 7.4375 -5.109375 7.8125 -5.109375 C 8.4375 -5.109375 8.910156 -4.984375 9.234375 -4.734375 C 9.566406 -4.484375 9.710938 -4.128906 9.671875 -3.671875 C 9.660156 -3.617188 9.648438 -3.550781 9.640625 -3.46875 C 9.640625 -3.394531 9.625 -3.320312 9.59375 -3.25 C 10.65625 -3.582031 11.789062 -3.929688 13 -4.296875 C 14.21875 -4.660156 15.460938 -5.019531 16.734375 -5.375 C 18.316406 -5.84375 19.890625 -6.304688 21.453125 -6.765625 C 23.023438 -7.234375 24.5 -7.695312 25.875 -8.15625 C 25.957031 -8.1875 26.039062 -8.203125 26.125 -8.203125 Z M -0.09375 3.125 C 0.394531 3.125 0.984375 2.976562 1.671875 2.6875 C 2.359375 2.394531 3.082031 1.972656 3.84375 1.421875 C 4.601562 0.878906 5.34375 0.25 6.0625 -0.46875 C 5.195312 -0.113281 4.359375 0.253906 3.546875 0.640625 C 2.742188 1.035156 2.019531 1.40625 1.375 1.75 C 0.726562 2.101562 0.222656 2.410156 -0.140625 2.671875 C -0.316406 2.773438 -0.40625 2.878906 -0.40625 2.984375 C -0.40625 3.078125 -0.300781 3.125 -0.09375 3.125 Z M -0.09375 3.125 "/></g></g></g><g fill="#999692" fill-opacity="1"><g transform="translate(154.084241, 51.172516)"><g><path d="M 20.84375 -8.203125 C 21.050781 -8.203125 21.222656 -8.128906 21.359375 -7.984375 C 21.503906 -7.847656 21.578125 -7.675781 21.578125 -7.46875 C 21.578125 -7.21875 21.472656 -7.023438 21.265625 -6.890625 C 19.972656 -5.941406 18.609375 -5.078125 17.171875 -4.296875 C 15.734375 -3.515625 14.300781 -2.828125 12.875 -2.234375 C 11.445312 -1.648438 10.09375 -1.15625 8.8125 -0.75 C 7.53125 -0.351562 6.390625 -0.0507812 5.390625 0.15625 C 4.398438 0.363281 3.617188 0.46875 3.046875 0.46875 C 1.617188 0.46875 0.515625 0.207031 -0.265625 -0.3125 C -1.054688 -0.84375 -1.453125 -1.585938 -1.453125 -2.546875 C -1.453125 -3.179688 -1.285156 -3.851562 -0.953125 -4.5625 C -0.628906 -5.28125 -0.191406 -5.976562 0.359375 -6.65625 C 0.910156 -7.332031 1.523438 -7.953125 2.203125 -8.515625 C 2.890625 -9.078125 3.585938 -9.519531 4.296875 -9.84375 C 5.003906 -10.175781 5.671875 -10.34375 6.296875 -10.34375 C 6.867188 -10.34375 7.328125 -10.191406 7.671875 -9.890625 C 8.015625 -9.597656 8.1875 -9.210938 8.1875 -8.734375 C 8.1875 -8.390625 8.066406 -8.050781 7.828125 -7.71875 C 7.585938 -7.394531 7.269531 -7.09375 6.875 -6.8125 C 6.476562 -6.539062 6.046875 -6.320312 5.578125 -6.15625 C 5.117188 -5.988281 4.65625 -5.90625 4.1875 -5.90625 C 3.25 -5.90625 2.5 -6.023438 1.9375 -6.265625 C 1.332031 -5.597656 0.859375 -4.9375 0.515625 -4.28125 C 0.171875 -3.625 0 -3.046875 0 -2.546875 C 0 -1.503906 1.015625 -0.984375 3.046875 -0.984375 C 3.578125 -0.984375 4.3125 -1.082031 5.25 -1.28125 C 6.195312 -1.476562 7.273438 -1.769531 8.484375 -2.15625 C 9.691406 -2.539062 10.976562 -3.015625 12.34375 -3.578125 C 13.71875 -4.148438 15.09375 -4.8125 16.46875 -5.5625 C 17.851562 -6.3125 19.171875 -7.144531 20.421875 -8.0625 C 20.523438 -8.15625 20.664062 -8.203125 20.84375 -8.203125 Z M 6.734375 -8.734375 C 6.734375 -8.785156 6.707031 -8.820312 6.65625 -8.84375 C 6.601562 -8.875 6.484375 -8.890625 6.296875 -8.890625 C 5.878906 -8.890625 5.394531 -8.757812 4.84375 -8.5 C 4.289062 -8.25 3.726562 -7.882812 3.15625 -7.40625 C 3.4375 -7.375 3.78125 -7.359375 4.1875 -7.359375 C 4.695312 -7.359375 5.140625 -7.441406 5.515625 -7.609375 C 5.890625 -7.773438 6.1875 -7.960938 6.40625 -8.171875 C 6.625 -8.390625 6.734375 -8.578125 6.734375 -8.734375 Z M 6.734375 -8.734375 "/></g></g></g><g fill="#999692" fill-opacity="1"><g transform="translate(172.870078, 51.172516)"><g><path d="M 26.828125 -8.21875 C 27.023438 -8.21875 27.195312 -8.144531 27.34375 -8 C 27.488281 -7.863281 27.5625 -7.695312 27.5625 -7.5 C 27.5625 -7.238281 27.445312 -7.03125 27.21875 -6.875 C 25.957031 -6.019531 24.644531 -5.222656 23.28125 -4.484375 C 21.914062 -3.753906 20.546875 -3.097656 19.171875 -2.515625 C 17.804688 -1.929688 16.5 -1.429688 15.25 -1.015625 C 14 -0.609375 12.859375 -0.289062 11.828125 -0.0625 C 10.796875 0.15625 9.929688 0.265625 9.234375 0.265625 C 8.097656 0.265625 7.226562 0.015625 6.625 -0.484375 C 6.03125 -0.984375 5.734375 -1.703125 5.734375 -2.640625 C 5.734375 -3.347656 6.207031 -4.519531 7.15625 -6.15625 C 7.257812 -6.34375 7.273438 -6.457031 7.203125 -6.5 C 7.128906 -6.550781 7.019531 -6.503906 6.875 -6.359375 C 4.46875 -4.242188 2.535156 -2.640625 1.078125 -1.546875 C -0.367188 -0.453125 -1.328125 0.09375 -1.796875 0.09375 C -2.285156 0.09375 -2.671875 -0.03125 -2.953125 -0.28125 C -3.234375 -0.539062 -3.375 -0.890625 -3.375 -1.328125 C -3.375 -1.921875 -3.207031 -2.554688 -2.875 -3.234375 C -2.550781 -3.910156 -2.101562 -4.582031 -1.53125 -5.25 C -0.96875 -5.925781 -0.328125 -6.566406 0.390625 -7.171875 C 1.109375 -7.773438 1.867188 -8.316406 2.671875 -8.796875 C 3.472656 -9.273438 4.269531 -9.648438 5.0625 -9.921875 C 5.851562 -10.203125 6.597656 -10.34375 7.296875 -10.34375 C 7.804688 -10.34375 8.300781 -10.25 8.78125 -10.0625 C 9.164062 -10.40625 9.554688 -10.765625 9.953125 -11.140625 C 10.359375 -11.523438 10.769531 -11.910156 11.1875 -12.296875 L 11.15625 -12.28125 C 12.332031 -13.9375 13.640625 -15.703125 15.078125 -17.578125 C 16.515625 -19.453125 18.023438 -21.363281 19.609375 -23.3125 C 21.191406 -25.257812 22.800781 -27.195312 24.4375 -29.125 C 26.070312 -31.050781 27.679688 -32.898438 29.265625 -34.671875 C 30.859375 -36.441406 32.378906 -38.082031 33.828125 -39.59375 C 35.285156 -41.101562 36.617188 -42.421875 37.828125 -43.546875 C 39.035156 -44.679688 40.070312 -45.5625 40.9375 -46.1875 C 41.800781 -46.8125 42.453125 -47.125 42.890625 -47.125 C 43.898438 -47.125 44.40625 -46.660156 44.40625 -45.734375 C 44.40625 -45.421875 44.128906 -44.859375 43.578125 -44.046875 C 43.023438 -43.242188 42.25 -42.242188 41.25 -41.046875 C 40.25 -39.847656 39.070312 -38.5 37.71875 -37 C 36.375 -35.5 34.890625 -33.894531 33.265625 -32.1875 C 31.648438 -30.488281 29.953125 -28.726562 28.171875 -26.90625 C 26.398438 -25.09375 24.585938 -23.265625 22.734375 -21.421875 C 20.878906 -19.585938 19.039062 -17.785156 17.21875 -16.015625 C 15.394531 -14.253906 13.628906 -12.578125 11.921875 -10.984375 C 11.617188 -10.566406 11.332031 -10.160156 11.0625 -9.765625 C 10.800781 -9.367188 10.539062 -8.988281 10.28125 -8.625 C 10.382812 -8.40625 10.453125 -8.175781 10.484375 -7.9375 C 10.523438 -7.707031 10.53125 -7.476562 10.5 -7.25 C 10.488281 -7.0625 10.410156 -6.898438 10.265625 -6.765625 C 10.128906 -6.628906 9.96875 -6.5625 9.78125 -6.5625 C 9.507812 -6.5625 9.304688 -6.671875 9.171875 -6.890625 C 7.847656 -4.765625 7.1875 -3.347656 7.1875 -2.640625 C 7.1875 -2.128906 7.34375 -1.757812 7.65625 -1.53125 C 7.96875 -1.300781 8.492188 -1.1875 9.234375 -1.1875 C 9.878906 -1.1875 10.6875 -1.296875 11.65625 -1.515625 C 12.632812 -1.734375 13.722656 -2.039062 14.921875 -2.4375 C 16.128906 -2.832031 17.382812 -3.3125 18.6875 -3.875 C 19.988281 -4.445312 21.300781 -5.085938 22.625 -5.796875 C 23.945312 -6.515625 25.210938 -7.28125 26.421875 -8.09375 C 26.523438 -8.175781 26.660156 -8.21875 26.828125 -8.21875 Z M 42.890625 -45.671875 C 42.609375 -45.671875 42.113281 -45.40625 41.40625 -44.875 C 40.707031 -44.34375 39.84375 -43.582031 38.8125 -42.59375 C 37.78125 -41.613281 36.617188 -40.457031 35.328125 -39.125 C 34.046875 -37.789062 32.675781 -36.316406 31.21875 -34.703125 C 29.769531 -33.085938 28.269531 -31.378906 26.71875 -29.578125 C 25.164062 -27.773438 23.597656 -25.914062 22.015625 -24 C 20.441406 -22.082031 18.898438 -20.160156 17.390625 -18.234375 C 18.253906 -19.078125 19.222656 -20.03125 20.296875 -21.09375 C 21.378906 -22.164062 22.523438 -23.316406 23.734375 -24.546875 C 24.953125 -25.773438 26.191406 -27.035156 27.453125 -28.328125 C 28.722656 -29.628906 29.984375 -30.929688 31.234375 -32.234375 C 32.492188 -33.535156 33.695312 -34.796875 34.84375 -36.015625 C 36 -37.242188 37.070312 -38.394531 38.0625 -39.46875 C 39.0625 -40.550781 39.925781 -41.519531 40.65625 -42.375 C 41.382812 -43.226562 41.953125 -43.929688 42.359375 -44.484375 C 42.773438 -45.035156 42.984375 -45.398438 42.984375 -45.578125 C 42.984375 -45.640625 42.953125 -45.671875 42.890625 -45.671875 Z M -1.71875 -1.359375 C -1.414062 -1.359375 -0.46875 -2.007812 1.125 -3.3125 C 2.726562 -4.613281 4.851562 -6.472656 7.5 -8.890625 L 7.296875 -8.890625 C 6.742188 -8.890625 6.128906 -8.765625 5.453125 -8.515625 C 4.773438 -8.273438 4.09375 -7.945312 3.40625 -7.53125 C 2.726562 -7.125 2.070312 -6.664062 1.4375 -6.15625 C 0.800781 -5.644531 0.234375 -5.113281 -0.265625 -4.5625 C -0.773438 -4.007812 -1.175781 -3.46875 -1.46875 -2.9375 C -1.769531 -2.414062 -1.921875 -1.945312 -1.921875 -1.53125 C -1.921875 -1.414062 -1.851562 -1.359375 -1.71875 -1.359375 Z M -1.71875 -1.359375 "/></g></g></g></g></g></g><g transform="matrix(1, 0, 0, 1, 34, 73)"><g clip-path="url(#5597b76640)"><g fill="#999692" fill-opacity="1"><g transform="translate(0.92369, 12.143675)"><g><path d="M 3.921875 0.34375 C 3.523438 0.34375 3.15625 0.285156 2.8125 0.171875 C 2.46875 0.046875 2.171875 -0.128906 1.921875 -0.359375 C 1.660156 -0.578125 1.460938 -0.847656 1.328125 -1.171875 C 1.179688 -1.492188 1.109375 -1.851562 1.109375 -2.25 C 1.109375 -2.363281 1.148438 -2.460938 1.234375 -2.546875 C 1.304688 -2.628906 1.398438 -2.671875 1.515625 -2.671875 C 1.640625 -2.671875 1.742188 -2.628906 1.828125 -2.546875 C 1.898438 -2.460938 1.9375 -2.363281 1.9375 -2.25 C 1.9375 -1.957031 1.988281 -1.703125 2.09375 -1.484375 C 2.195312 -1.253906 2.34375 -1.066406 2.53125 -0.921875 C 2.707031 -0.773438 2.914062 -0.664062 3.15625 -0.59375 C 3.394531 -0.519531 3.648438 -0.484375 3.921875 -0.484375 C 4.191406 -0.484375 4.453125 -0.519531 4.703125 -0.59375 C 4.960938 -0.664062 5.195312 -0.78125 5.40625 -0.9375 C 5.601562 -1.082031 5.765625 -1.265625 5.890625 -1.484375 C 6.015625 -1.710938 6.078125 -1.96875 6.078125 -2.25 L 6.078125 -9.578125 L 3.734375 -9.578125 C 3.609375 -9.578125 3.507812 -9.617188 3.4375 -9.703125 C 3.351562 -9.773438 3.3125 -9.867188 3.3125 -9.984375 C 3.3125 -10.097656 3.351562 -10.195312 3.4375 -10.28125 C 3.507812 -10.363281 3.609375 -10.40625 3.734375 -10.40625 L 6.484375 -10.40625 C 6.597656 -10.40625 6.695312 -10.363281 6.78125 -10.28125 C 6.863281 -10.195312 6.90625 -10.097656 6.90625 -9.984375 L 6.90625 -2.25 C 6.90625 -1.832031 6.820312 -1.460938 6.65625 -1.140625 C 6.476562 -0.816406 6.253906 -0.546875 5.984375 -0.328125 C 5.703125 -0.109375 5.382812 0.0546875 5.03125 0.171875 C 4.664062 0.285156 4.296875 0.34375 3.921875 0.34375 Z M 3.921875 0.34375 "/></g></g></g><g fill="#999692" fill-opacity="1"><g transform="translate(19.983926, 12.143675)"><g><path d="M 1.109375 -10.015625 C 1.109375 -10.128906 1.148438 -10.226562 1.234375 -10.3125 C 1.304688 -10.382812 1.398438 -10.421875 1.515625 -10.421875 L 6.484375 -10.421875 C 6.609375 -10.421875 6.710938 -10.382812 6.796875 -10.3125 C 6.867188 -10.226562 6.90625 -10.128906 6.90625 -10.015625 C 6.90625 -9.890625 6.867188 -9.789062 6.796875 -9.71875 C 6.710938 -9.632812 6.609375 -9.59375 6.484375 -9.59375 L 1.9375 -9.59375 L 1.9375 -5.453125 L 5.9375 -5.453125 C 6.0625 -5.453125 6.164062 -5.414062 6.25 -5.34375 C 6.320312 -5.257812 6.359375 -5.160156 6.359375 -5.046875 C 6.359375 -4.921875 6.320312 -4.820312 6.25 -4.75 C 6.164062 -4.664062 6.0625 -4.625 5.9375 -4.625 L 1.9375 -4.625 L 1.9375 -0.484375 L 6.484375 -0.484375 C 6.609375 -0.484375 6.710938 -0.445312 6.796875 -0.375 C 6.867188 -0.289062 6.90625 -0.1875 6.90625 -0.0625 C 6.90625 0.0507812 6.867188 0.144531 6.796875 0.21875 C 6.710938 0.300781 6.609375 0.34375 6.484375 0.34375 L 1.515625 0.34375 C 1.398438 0.34375 1.304688 0.300781 1.234375 0.21875 C 1.148438 0.144531 1.109375 0.0507812 1.109375 -0.0625 Z M 1.109375 -10.015625 "/></g></g></g><g fill="#999692" fill-opacity="1"><g transform="translate(39.044163, 12.143675)"><g><path d="M 6.484375 -6.375 L 2.984375 0.125 C 2.921875 0.269531 2.800781 0.34375 2.625 0.34375 C 2.519531 0.34375 2.429688 0.304688 2.359375 0.234375 C 2.273438 0.171875 2.222656 0.0820312 2.203125 -0.03125 L 1.109375 -9.953125 C 1.109375 -10.085938 1.144531 -10.203125 1.21875 -10.296875 C 1.28125 -10.378906 1.378906 -10.421875 1.515625 -10.421875 C 1.628906 -10.421875 1.726562 -10.382812 1.8125 -10.3125 C 1.882812 -10.238281 1.925781 -10.15625 1.9375 -10.0625 L 2.890625 -1.4375 L 6.125 -7.4375 C 6.195312 -7.59375 6.316406 -7.671875 6.484375 -7.671875 C 6.660156 -7.671875 6.78125 -7.59375 6.84375 -7.4375 L 10.09375 -1.4375 L 11.046875 -10.0625 C 11.066406 -10.15625 11.117188 -10.238281 11.203125 -10.3125 C 11.273438 -10.382812 11.363281 -10.421875 11.46875 -10.421875 C 11.582031 -10.421875 11.679688 -10.382812 11.765625 -10.3125 C 11.835938 -10.226562 11.875 -10.128906 11.875 -10.015625 L 11.875 -9.96875 L 10.78125 -0.03125 C 10.757812 0.0820312 10.710938 0.171875 10.640625 0.234375 C 10.554688 0.304688 10.460938 0.34375 10.359375 0.34375 C 10.179688 0.34375 10.0625 0.269531 10 0.125 Z M 6.484375 -6.375 "/></g></g></g><g fill="#999692" fill-opacity="1"><g transform="translate(63.075398, 12.143675)"><g><path d="M 1.109375 -10.015625 C 1.109375 -10.128906 1.148438 -10.226562 1.234375 -10.3125 C 1.304688 -10.382812 1.398438 -10.421875 1.515625 -10.421875 L 6.484375 -10.421875 C 6.609375 -10.421875 6.710938 -10.382812 6.796875 -10.3125 C 6.867188 -10.226562 6.90625 -10.128906 6.90625 -10.015625 C 6.90625 -9.890625 6.867188 -9.789062 6.796875 -9.71875 C 6.710938 -9.632812 6.609375 -9.59375 6.484375 -9.59375 L 1.9375 -9.59375 L 1.9375 -5.453125 L 5.9375 -5.453125 C 6.0625 -5.453125 6.164062 -5.414062 6.25 -5.34375 C 6.320312 -5.257812 6.359375 -5.160156 6.359375 -5.046875 C 6.359375 -4.921875 6.320312 -4.820312 6.25 -4.75 C 6.164062 -4.664062 6.0625 -4.625 5.9375 -4.625 L 1.9375 -4.625 L 1.9375 -0.484375 L 6.484375 -0.484375 C 6.609375 -0.484375 6.710938 -0.445312 6.796875 -0.375 C 6.867188 -0.289062 6.90625 -0.1875 6.90625 -0.0625 C 6.90625 0.0507812 6.867188 0.144531 6.796875 0.21875 C 6.710938 0.300781 6.609375 0.34375 6.484375 0.34375 L 1.515625 0.34375 C 1.398438 0.34375 1.304688 0.300781 1.234375 0.21875 C 1.148438 0.144531 1.109375 0.0507812 1.109375 -0.0625 Z M 1.109375 -10.015625 "/></g></g></g><g fill="#999692" fill-opacity="1"><g transform="translate(82.135635, 12.143675)"><g><path d="M 6.484375 -0.484375 C 6.609375 -0.484375 6.710938 -0.445312 6.796875 -0.375 C 6.867188 -0.289062 6.90625 -0.1875 6.90625 -0.0625 C 6.90625 0.0507812 6.867188 0.144531 6.796875 0.21875 C 6.710938 0.300781 6.609375 0.34375 6.484375 0.34375 L 1.515625 0.34375 C 1.398438 0.34375 1.304688 0.300781 1.234375 0.21875 C 1.148438 0.144531 1.109375 0.0507812 1.109375 -0.0625 L 1.109375 -10.015625 C 1.109375 -10.128906 1.148438 -10.222656 1.234375 -10.296875 C 1.304688 -10.378906 1.398438 -10.421875 1.515625 -10.421875 C 1.628906 -10.421875 1.726562 -10.382812 1.8125 -10.3125 C 1.894531 -10.226562 1.9375 -10.128906 1.9375 -10.015625 L 1.9375 -0.484375 Z M 6.484375 -0.484375 "/></g></g></g><g fill="#999692" fill-opacity="1"><g transform="translate(101.195871, 12.143675)"><g><path d="M 7.59375 0.328125 C 7.476562 0.328125 7.378906 0.300781 7.296875 0.25 C 7.203125 0.195312 7.140625 0.109375 7.109375 -0.015625 C 7.046875 -0.441406 6.9375 -0.851562 6.78125 -1.25 C 6.613281 -1.65625 6.394531 -2.023438 6.125 -2.359375 C 5.863281 -2.679688 5.550781 -2.945312 5.1875 -3.15625 C 4.820312 -3.363281 4.410156 -3.484375 3.953125 -3.515625 L 1.9375 -3.515625 L 1.9375 -0.0625 C 1.9375 0.0390625 1.898438 0.132812 1.828125 0.21875 C 1.742188 0.300781 1.640625 0.34375 1.515625 0.34375 C 1.398438 0.34375 1.304688 0.300781 1.234375 0.21875 C 1.148438 0.132812 1.109375 0.0390625 1.109375 -0.0625 L 1.109375 -10.015625 C 1.109375 -10.128906 1.148438 -10.226562 1.234375 -10.3125 C 1.304688 -10.382812 1.398438 -10.421875 1.515625 -10.421875 L 4 -10.421875 C 4.5 -10.421875 4.957031 -10.335938 5.375 -10.171875 C 5.78125 -9.992188 6.128906 -9.75 6.421875 -9.4375 C 6.703125 -9.125 6.921875 -8.757812 7.078125 -8.34375 C 7.242188 -7.914062 7.328125 -7.457031 7.328125 -6.96875 C 7.328125 -6.65625 7.285156 -6.347656 7.203125 -6.046875 C 7.128906 -5.734375 7.019531 -5.445312 6.875 -5.1875 C 6.726562 -4.914062 6.550781 -4.671875 6.34375 -4.453125 C 6.125 -4.222656 5.867188 -4.03125 5.578125 -3.875 C 6.253906 -3.476562 6.785156 -2.953125 7.171875 -2.296875 C 7.554688 -1.628906 7.8125 -0.914062 7.9375 -0.15625 C 7.957031 -0.0390625 7.9375 0.0625 7.875 0.15625 C 7.8125 0.25 7.71875 0.304688 7.59375 0.328125 Z M 4 -4.34375 C 4.382812 -4.34375 4.738281 -4.414062 5.0625 -4.5625 C 5.363281 -4.695312 5.625 -4.882812 5.84375 -5.125 C 6.050781 -5.351562 6.210938 -5.628906 6.328125 -5.953125 C 6.429688 -6.265625 6.484375 -6.601562 6.484375 -6.96875 C 6.484375 -7.351562 6.429688 -7.707031 6.328125 -8.03125 C 6.203125 -8.34375 6.035156 -8.617188 5.828125 -8.859375 C 5.609375 -9.085938 5.347656 -9.269531 5.046875 -9.40625 C 4.734375 -9.53125 4.382812 -9.59375 4 -9.59375 L 1.9375 -9.59375 L 1.9375 -4.34375 Z M 4 -4.34375 "/></g></g></g><g fill="#999692" fill-opacity="1"><g transform="translate(121.291733, 12.143675)"><g><path d="M 5.796875 -0.0625 C 5.796875 0.0507812 5.757812 0.144531 5.6875 0.21875 C 5.601562 0.300781 5.503906 0.34375 5.390625 0.34375 C 5.273438 0.34375 5.175781 0.300781 5.09375 0.21875 C 5.007812 0.144531 4.96875 0.0507812 4.96875 -0.0625 L 4.96875 -3.28125 L 1.15625 -9.8125 C 1.125 -9.875 1.109375 -9.941406 1.109375 -10.015625 C 1.109375 -10.128906 1.144531 -10.222656 1.21875 -10.296875 C 1.289062 -10.378906 1.382812 -10.421875 1.5 -10.421875 C 1.6875 -10.421875 1.8125 -10.351562 1.875 -10.21875 L 5.390625 -4.21875 L 8.890625 -10.21875 C 8.960938 -10.351562 9.082031 -10.421875 9.25 -10.421875 C 9.375 -10.421875 9.476562 -10.382812 9.5625 -10.3125 C 9.632812 -10.226562 9.671875 -10.128906 9.671875 -10.015625 C 9.671875 -9.941406 9.648438 -9.875 9.609375 -9.8125 L 5.796875 -3.28125 Z M 5.796875 -0.0625 "/></g></g></g></g></g></g></g></g></svg>