<svg width="979" height="231" viewBox="0 0 979 231" fill="none" xmlns="http://www.w3.org/2000/svg">
<path d="M368.52 53.55H318.64V212.35H282.64V53.55H232.74V18.36H368.52V53.55Z" fill="white"/>
<path d="M350.51 143.07C350.398 133.628 352.161 124.259 355.697 115.503C359.233 106.748 364.471 98.7817 371.108 92.0656C377.745 85.3496 385.649 80.0175 394.362 76.3783C403.074 72.7391 412.423 70.8652 421.865 70.8652C431.307 70.8652 440.656 72.7391 449.368 76.3783C458.081 80.0175 465.985 85.3496 472.622 92.0656C479.259 98.7817 484.497 106.748 488.033 115.503C491.569 124.259 493.332 133.628 493.22 143.07V212.35H457.22V197.66C453.06 206.8 437.82 214.56 422.02 214.56C412.63 214.563 403.332 212.715 394.656 209.124C385.98 205.532 378.097 200.267 371.456 193.628C364.815 186.989 359.548 179.108 355.954 170.433C352.36 161.758 350.51 152.46 350.51 143.07ZM457.51 143.07C457.51 122.56 442.82 106.76 422.31 106.76C401.8 106.76 386.56 122.56 386.56 143.07C386.56 163.58 401.8 179.37 422.31 179.37C442.82 179.37 457.48 163.57 457.48 143.07H457.51Z" fill="white"/>
<path d="M507.07 167.45H541.43C541.43 176.32 552.52 182.45 567.48 182.45C582.44 182.45 590.21 176.35 590.21 169.15C590.21 146.15 508.46 168.31 508.46 113.44C508.46 89.05 533.67 71.6 565.82 71.6C597.97 71.6 622.35 87.64 622.35 117H588C588 109 577.19 103.42 565.28 103.42C553.37 103.42 544.49 108.96 544.49 116.17C544.49 136.12 625.69 117.55 626.24 169.92C626.52 200.92 600.47 214.54 566.66 214.54C535.61 214.56 507.07 198.49 507.07 167.45Z" fill="white"/>
<path d="M640.08 18.36H676.08V119.51L722.08 73.78H768.08L715.46 127L777 212.35H736.8L691.07 149.72L676.07 164.72V212.39H640.07L640.08 18.36Z" fill="white"/>
<path d="M782.51 37.48C782.51 31.7778 784.775 26.3092 788.807 22.2772C792.839 18.2452 798.308 15.98 804.01 15.98C809.712 15.98 815.181 18.2452 819.213 22.2772C823.245 26.3092 825.51 31.7778 825.51 37.48C825.51 43.1821 823.245 48.6507 819.213 52.6828C815.181 56.7148 809.712 58.98 804.01 58.98C798.308 58.98 792.839 56.7148 788.807 52.6828C784.775 48.6507 782.51 43.1821 782.51 37.48Z" fill="white"/>
<path d="M822.14 73.78H786.11V212.34H822.14V73.78Z" fill="white"/>
<path d="M860.1 109H839.32V73.78H860.66C863.66 39.7 883.66 17.53 921.07 17.53V52.72C907.49 53 896.68 60.2 896.68 73.78H921.07V109H896.13V212.35H860.13L860.1 109Z" fill="white"/>
<path d="M934.92 37.48C934.92 31.7778 937.185 26.3092 941.217 22.2772C945.249 18.2452 950.718 15.98 956.42 15.98C962.122 15.98 967.591 18.2452 971.623 22.2772C975.655 26.3092 977.92 31.7778 977.92 37.48C977.92 43.1821 975.655 48.6507 971.623 52.6828C967.591 56.7148 962.122 58.98 956.42 58.98C950.718 58.98 945.249 56.7148 941.217 52.6828C937.185 48.6507 934.92 43.1821 934.92 37.48Z" fill="white"/>
<path d="M974.55 73.78H938.52V212.34H974.55V73.78Z" fill="white"/>
<path d="M72 15.62L69.7 13.32C65.9511 9.57009 61.5003 6.59542 56.6016 4.56591C51.7029 2.53641 46.4524 1.49182 41.15 1.49182C35.8476 1.49182 30.5971 2.53641 25.6984 4.56591C20.7997 6.59542 16.3489 9.57009 12.6 13.32C8.85038 17.068 5.87592 21.518 3.84655 26.4159C1.81718 31.3137 0.772657 36.5634 0.772657 41.865C0.772657 47.1666 1.81718 52.4163 3.84655 57.3142C5.87592 62.212 8.85038 66.662 12.6 70.41L60.71 118.5L72 107.19C78.0137 101.178 82.7842 94.0404 86.0389 86.1845C89.2936 78.3286 90.9688 69.9084 90.9688 61.405C90.9688 52.9016 89.2936 44.4815 86.0389 36.6256C82.7842 28.7697 78.0137 21.6319 72 15.62Z" fill="url(#paint0_linear_68_1476)"/>
<path d="M198.23 141.83L157.13 100.73C159.579 116.282 158.319 132.192 153.454 147.165C148.588 162.138 140.254 175.749 129.13 186.89L141.13 198.89C148.739 206.282 158.951 210.384 169.559 210.307C180.168 210.23 190.32 205.982 197.821 198.481C205.322 190.98 209.57 180.828 209.647 170.219C209.724 159.611 205.622 149.399 198.23 141.79V141.83Z" fill="white"/>
<path d="M115.47 59.07L69.69 13.29C81.8304 25.4343 88.6505 41.9032 88.6505 59.075C88.6505 76.2469 81.8304 92.7158 69.69 104.86L58.38 116.17L14.25 160.29C6.67807 167.861 2.42368 178.129 2.42274 188.837C2.4218 199.544 6.6744 209.813 14.245 217.385C21.8156 224.957 32.0841 229.211 42.7915 229.212C53.4989 229.213 63.7681 224.961 71.34 217.39L115.47 173.26C130.611 158.117 139.117 137.579 139.117 116.165C139.117 94.7507 130.611 74.2133 115.47 59.07Z" fill="url(#paint1_linear_68_1476)"/>
<defs>
<linearGradient id="paint0_linear_68_1476" x1="12.94" y1="13.64" x2="106.69" y2="107.39" gradientUnits="userSpaceOnUse">
<stop stop-color="white"/>
<stop offset="1" stop-color="#AC9FFE"/>
</linearGradient>
<linearGradient id="paint1_linear_68_1476" x1="-7.99" y1="193.84" x2="120.98" y2="64.8701" gradientUnits="userSpaceOnUse">
<stop stop-color="#CCC4FE"/>
<stop offset="1" stop-color="white"/>
</linearGradient>
</defs>
</svg>
