<svg xmlns="http://www.w3.org/2000/svg" xmlns:xlink="http://www.w3.org/1999/xlink" width="300" zoomAndPan="magnify" viewBox="0 0 224.87999 89.999999" height="120" preserveAspectRatio="xMidYMid meet" version="1.0"><defs><clipPath id="75132fa74b"><path d="M 0.703125 3.855469 L 70.085938 3.855469 L 70.085938 88.453125 L 0.703125 88.453125 Z M 0.703125 3.855469 " clip-rule="nonzero"/></clipPath><clipPath id="cb48797211"><path d="M 23.6875 6.28125 L 19.113281 6.28125 L 19.195312 45.070312 C 19.800781 44.988281 20.40625 44.988281 21.183594 44.988281 C 22.828125 44.988281 25.589844 45.15625 29.996094 45.15625 C 41.316406 45.15625 47.019531 44.554688 49.523438 31.679688 C 50.128906 28.65625 50.042969 26.667969 50.042969 26.324219 C 50.042969 21.570312 48.75 15.78125 46.15625 11.976562 C 44.773438 10.164062 43.128906 8.175781 39.417969 7.054688 C 37.515625 6.535156 29.222656 6.277344 23.691406 6.277344 M 0.707031 3.863281 L 27.230469 3.863281 C 34.917969 3.863281 42.957031 4.210938 50.214844 7.234375 C 54.792969 9.304688 57.992188 12.847656 59.804688 16.996094 C 61.535156 21.140625 61.535156 24.339844 61.535156 25.808594 C 61.535156 29.953125 60.066406 36.695312 54.796875 40.929688 C 50.21875 44.640625 44.339844 46.023438 38.550781 46.457031 L 38.898438 46.457031 C 52.117188 46.457031 59.636719 52.679688 60.929688 69.007812 C 61.191406 75.402344 63.78125 86.460938 70.003906 87.414062 L 70.003906 88.277344 C 66.289062 88.277344 62.832031 88.449219 59.804688 88.449219 C 56.265625 88.449219 53.496094 88.191406 52.375 87.15625 C 49.609375 84.824219 48.226562 79.8125 47.796875 76.265625 C 47.105469 69.355469 47.535156 55.101562 41.746094 49.570312 C 39.328125 47.324219 34.574219 47.40625 33.28125 47.40625 C 31.984375 47.40625 30.863281 47.496094 30.085938 47.496094 L 29.042969 47.496094 C 28.441406 47.496094 26.367188 47.582031 24.292969 47.582031 L 19.285156 47.582031 L 19.371094 69.269531 C 19.371094 72.726562 19.457031 75.488281 19.804688 77.5625 C 20.234375 81.539062 21.269531 85.769531 25.421875 87.414062 L 25.421875 88.277344 L 1.054688 88.277344 L 1.054688 87.414062 C 3.125 86.460938 4.59375 84.820312 5.546875 82.746094 C 7.015625 78.515625 7.101562 73.761719 7.101562 69.269531 L 7.101562 21.921875 C 7.101562 18.550781 7.015625 15.957031 6.667969 13.972656 C 6.324219 11.292969 5.632812 8.269531 3.472656 6.542969 C 2.523438 5.933594 1.742188 5.332031 0.707031 4.726562 Z M 0.707031 3.863281 " clip-rule="nonzero"/></clipPath><clipPath id="be2287683a"><path d="M 0.703125 0.855469 L 70.042969 0.855469 L 70.042969 85.453125 L 0.703125 85.453125 Z M 0.703125 0.855469 " clip-rule="nonzero"/></clipPath><clipPath id="1f0f42bbce"><path d="M 23.6875 3.28125 L 19.113281 3.28125 L 19.195312 42.070312 C 19.800781 41.988281 20.40625 41.988281 21.183594 41.988281 C 22.828125 41.988281 25.589844 42.15625 29.996094 42.15625 C 41.316406 42.15625 47.019531 41.554688 49.523438 28.679688 C 50.128906 25.65625 50.042969 23.667969 50.042969 23.324219 C 50.042969 18.570312 48.75 12.78125 46.15625 8.976562 C 44.773438 7.164062 43.128906 5.175781 39.417969 4.054688 C 37.515625 3.535156 29.222656 3.277344 23.691406 3.277344 M 0.707031 0.863281 L 27.230469 0.863281 C 34.917969 0.863281 42.957031 1.210938 50.214844 4.234375 C 54.792969 6.304688 57.992188 9.847656 59.804688 13.996094 C 61.535156 18.140625 61.535156 21.339844 61.535156 22.808594 C 61.535156 26.953125 60.066406 33.695312 54.796875 37.929688 C 50.21875 41.640625 44.339844 43.023438 38.550781 43.457031 L 38.898438 43.457031 C 52.117188 43.457031 59.636719 49.679688 60.929688 66.007812 C 61.191406 72.402344 63.78125 83.460938 70.003906 84.414062 L 70.003906 85.277344 C 66.289062 85.277344 62.832031 85.449219 59.804688 85.449219 C 56.265625 85.449219 53.496094 85.191406 52.375 84.15625 C 49.609375 81.824219 48.226562 76.8125 47.796875 73.265625 C 47.105469 66.355469 47.535156 52.101562 41.746094 46.570312 C 39.328125 44.324219 34.574219 44.40625 33.28125 44.40625 C 31.984375 44.40625 30.863281 44.496094 30.085938 44.496094 L 29.042969 44.496094 C 28.441406 44.496094 26.367188 44.582031 24.292969 44.582031 L 19.285156 44.582031 L 19.371094 66.269531 C 19.371094 69.726562 19.457031 72.488281 19.804688 74.5625 C 20.234375 78.539062 21.269531 82.769531 25.421875 84.414062 L 25.421875 85.277344 L 1.054688 85.277344 L 1.054688 84.414062 C 3.125 83.460938 4.59375 81.820312 5.546875 79.746094 C 7.015625 75.515625 7.101562 70.761719 7.101562 66.269531 L 7.101562 18.921875 C 7.101562 15.550781 7.015625 12.957031 6.667969 10.972656 C 6.324219 8.292969 5.632812 5.269531 3.472656 3.542969 C 2.523438 2.933594 1.742188 2.332031 0.707031 1.726562 Z M 0.707031 0.863281 " clip-rule="nonzero"/></clipPath><clipPath id="fc60d1c5dc"><rect x="0" width="71" y="0" height="86"/></clipPath><clipPath id="dea22f98bd"><path d="M 64.609375 30.332031 L 115.730469 30.332031 L 115.730469 88.453125 L 64.609375 88.453125 Z M 64.609375 30.332031 " clip-rule="nonzero"/></clipPath><clipPath id="8d851a1727"><path d="M 76.148438 41.359375 C 74.507812 45.59375 74.679688 48.875 74.679688 50.34375 C 74.679688 54.835938 76.148438 62.09375 77.617188 64.429688 C 78.480469 64.253906 88.160156 58.984375 89.882812 57.949219 C 97.402344 53.800781 100.945312 49.308594 101.632812 46.628906 C 101.894531 45.335938 102.066406 44.296875 102.066406 43.605469 C 102.066406 41.53125 101.117188 38.683594 98.4375 36.261719 C 95.757812 33.929688 91.957031 32.460938 88.585938 32.460938 C 87.808594 32.460938 87.117188 32.546875 86.339844 32.71875 C 80.898438 33.84375 77.785156 37.210938 76.144531 41.359375 M 65.167969 65.121094 C 64.910156 62.960938 64.824219 61.230469 64.824219 59.851562 C 64.824219 57 65.167969 52.417969 66.898438 47.667969 C 71.734375 35.488281 83.832031 30.386719 94.546875 30.386719 C 105.519531 30.386719 111.828125 34.707031 115.539062 44.988281 L 78.394531 66.070312 C 84.613281 77.390625 91.265625 81.191406 97.226562 81.191406 C 104.917969 81.191406 111.570312 74.710938 114.332031 69.441406 L 115.113281 69.789062 C 111.914062 81.539062 101.980469 88.277344 89.878906 88.277344 C 82.710938 88.277344 75.796875 85.683594 71.046875 79.808594 C 67.59375 75.574219 65.605469 69.355469 65.171875 65.121094 " clip-rule="nonzero"/></clipPath><clipPath id="6a0e0dd8a6"><path d="M 0.765625 0.332031 L 51.617188 0.332031 L 51.617188 58.296875 L 0.765625 58.296875 Z M 0.765625 0.332031 " clip-rule="nonzero"/></clipPath><clipPath id="f0a15db824"><path d="M 12.148438 11.359375 C 10.507812 15.59375 10.679688 18.875 10.679688 20.34375 C 10.679688 24.835938 12.148438 32.09375 13.617188 34.429688 C 14.480469 34.253906 24.160156 28.984375 25.882812 27.949219 C 33.402344 23.800781 36.945312 19.308594 37.632812 16.628906 C 37.894531 15.335938 38.066406 14.296875 38.066406 13.605469 C 38.066406 11.53125 37.117188 8.683594 34.4375 6.261719 C 31.757812 3.929688 27.957031 2.460938 24.585938 2.460938 C 23.808594 2.460938 23.117188 2.546875 22.339844 2.71875 C 16.898438 3.84375 13.785156 7.210938 12.144531 11.359375 M 1.167969 35.121094 C 0.910156 32.960938 0.824219 31.230469 0.824219 29.851562 C 0.824219 27 1.167969 22.417969 2.898438 17.667969 C 7.734375 5.488281 19.832031 0.386719 30.546875 0.386719 C 41.519531 0.386719 47.828125 4.707031 51.539062 14.988281 L 14.394531 36.070312 C 20.613281 47.390625 27.265625 51.191406 33.226562 51.191406 C 40.917969 51.191406 47.570312 44.710938 50.332031 39.441406 L 51.113281 39.789062 C 47.914062 51.539062 37.980469 58.277344 25.878906 58.277344 C 18.710938 58.277344 11.796875 55.683594 7.046875 49.808594 C 3.59375 45.574219 1.605469 39.355469 1.171875 35.121094 " clip-rule="nonzero"/></clipPath><clipPath id="95790ae212"><rect x="0" width="52" y="0" height="59"/></clipPath><clipPath id="e8d992c2ac"><path d="M 112.082031 30.027344 L 173.246094 30.027344 L 173.246094 88.453125 L 112.082031 88.453125 Z M 112.082031 30.027344 " clip-rule="nonzero"/></clipPath><clipPath id="e89d17bb10"><path d="M 112.359375 31.167969 L 112.359375 30.300781 L 130.417969 30.386719 L 152.015625 82.054688 C 154.785156 79.203125 157.203125 72.808594 158.757812 65.464844 C 160.316406 58.121094 160.660156 51.726562 160.660156 47.664062 C 160.660156 44.46875 160.488281 39.113281 158.757812 34.445312 C 157.808594 32.113281 156.511719 30.816406 154.871094 30.382812 L 171.71875 30.296875 C 173.191406 32.972656 173.011719 35.742188 173.011719 36.691406 C 173.011719 41.183594 171.285156 48.871094 168.523438 56.128906 C 166.707031 60.707031 164.722656 64.941406 163.082031 67.621094 C 160.226562 72.285156 160.488281 72.285156 150.035156 88.265625 L 142.167969 88.265625 L 124.542969 46.804688 C 123.25 43.78125 122.125 41.359375 121.085938 39.546875 C 118.753906 35.308594 116.597656 32.285156 112.359375 31.164062 " clip-rule="nonzero"/></clipPath><clipPath id="9c60668e9d"><path d="M 0.261719 0.246094 L 61.246094 0.246094 L 61.246094 58.296875 L 0.261719 58.296875 Z M 0.261719 0.246094 " clip-rule="nonzero"/></clipPath><clipPath id="64841256b1"><path d="M 0.359375 1.167969 L 0.359375 0.300781 L 18.417969 0.386719 L 40.015625 52.054688 C 42.785156 49.203125 45.203125 42.808594 46.757812 35.464844 C 48.316406 28.121094 48.660156 21.726562 48.660156 17.664062 C 48.660156 14.46875 48.488281 9.113281 46.757812 4.445312 C 45.808594 2.113281 44.511719 0.816406 42.871094 0.382812 L 59.71875 0.296875 C 61.191406 2.972656 61.011719 5.742188 61.011719 6.691406 C 61.011719 11.183594 59.285156 18.871094 56.523438 26.128906 C 54.707031 30.707031 52.722656 34.941406 51.082031 37.621094 C 48.226562 42.285156 48.488281 42.285156 38.035156 58.265625 L 30.167969 58.265625 L 12.542969 16.804688 C 11.25 13.78125 10.125 11.359375 9.085938 9.546875 C 6.753906 5.308594 4.597656 2.285156 0.359375 1.164062 " clip-rule="nonzero"/></clipPath><clipPath id="3917b40772"><rect x="0" width="62" y="0" height="59"/></clipPath><clipPath id="7bba97f84b"><path d="M 173.246094 30.332031 L 224.371094 30.332031 L 224.371094 88.453125 L 173.246094 88.453125 Z M 173.246094 30.332031 " clip-rule="nonzero"/></clipPath><clipPath id="370958aa07"><path d="M 184.777344 41.359375 C 183.132812 45.59375 183.304688 48.875 183.304688 50.34375 C 183.304688 54.835938 184.777344 62.09375 186.242188 64.429688 C 187.105469 64.253906 196.78125 58.984375 198.511719 57.949219 C 206.027344 53.800781 209.574219 49.308594 210.261719 46.628906 C 210.523438 45.335938 210.695312 44.296875 210.695312 43.605469 C 210.695312 41.53125 209.746094 38.683594 207.066406 36.261719 C 204.386719 33.929688 200.585938 32.460938 197.21875 32.460938 C 196.441406 32.460938 195.746094 32.546875 194.972656 32.71875 C 189.53125 33.84375 186.417969 37.210938 184.777344 41.359375 M 173.804688 65.121094 C 173.542969 62.960938 173.457031 61.230469 173.457031 59.851562 C 173.457031 57 173.804688 52.417969 175.53125 47.667969 C 180.371094 35.488281 192.464844 30.386719 203.175781 30.386719 C 214.148438 30.386719 220.457031 34.707031 224.171875 44.988281 L 187.019531 66.070312 C 193.242188 77.390625 199.894531 81.191406 205.855469 81.191406 C 213.546875 81.191406 220.195312 74.710938 222.964844 69.441406 L 223.742188 69.789062 C 220.542969 81.539062 210.609375 88.277344 198.511719 88.277344 C 191.339844 88.277344 184.425781 85.683594 179.675781 79.808594 C 176.21875 75.574219 174.234375 69.355469 173.804688 65.121094 " clip-rule="nonzero"/></clipPath><clipPath id="328756fd29"><path d="M 0.425781 0.332031 L 51.28125 0.332031 L 51.28125 58.296875 L 0.425781 58.296875 Z M 0.425781 0.332031 " clip-rule="nonzero"/></clipPath><clipPath id="5962998f4c"><path d="M 11.777344 11.359375 C 10.132812 15.59375 10.304688 18.875 10.304688 20.34375 C 10.304688 24.835938 11.777344 32.09375 13.242188 34.429688 C 14.105469 34.253906 23.78125 28.984375 25.511719 27.949219 C 33.027344 23.800781 36.574219 19.308594 37.261719 16.628906 C 37.523438 15.335938 37.695312 14.296875 37.695312 13.605469 C 37.695312 11.53125 36.746094 8.683594 34.066406 6.261719 C 31.386719 3.929688 27.585938 2.460938 24.21875 2.460938 C 23.441406 2.460938 22.746094 2.546875 21.972656 2.71875 C 16.53125 3.84375 13.417969 7.210938 11.777344 11.359375 M 0.804688 35.121094 C 0.542969 32.960938 0.457031 31.230469 0.457031 29.851562 C 0.457031 27 0.804688 22.417969 2.53125 17.667969 C 7.371094 5.488281 19.464844 0.386719 30.175781 0.386719 C 41.148438 0.386719 47.457031 4.707031 51.171875 14.988281 L 14.019531 36.070312 C 20.242188 47.390625 26.894531 51.191406 32.855469 51.191406 C 40.546875 51.191406 47.195312 44.710938 49.964844 39.441406 L 50.742188 39.789062 C 47.542969 51.539062 37.609375 58.277344 25.511719 58.277344 C 18.339844 58.277344 11.425781 55.683594 6.675781 49.808594 C 3.21875 45.574219 1.234375 39.355469 0.804688 35.121094 " clip-rule="nonzero"/></clipPath><clipPath id="644a7bb86a"><rect x="0" width="52" y="0" height="59"/></clipPath><clipPath id="0cc00824f9"><path d="M 79 7.507812 L 99.601562 7.507812 L 99.601562 27.289062 L 79 27.289062 Z M 79 7.507812 " clip-rule="nonzero"/></clipPath><clipPath id="578f29d520"><path d="M 99.503906 26.777344 L 99.503906 27.070312 L 93.441406 27.039062 L 86.1875 9.683594 C 85.257812 10.644531 84.445312 12.789062 83.921875 15.257812 C 83.402344 17.722656 83.285156 19.871094 83.285156 21.234375 C 83.285156 22.3125 83.34375 24.109375 83.921875 25.675781 C 84.242188 26.460938 84.675781 26.894531 85.230469 27.039062 L 79.570312 27.070312 C 79.078125 26.171875 79.136719 25.242188 79.136719 24.925781 C 79.136719 23.417969 79.714844 20.832031 80.644531 18.394531 C 81.253906 16.855469 81.921875 15.4375 82.472656 14.535156 C 83.429688 12.96875 83.34375 12.96875 86.855469 7.601562 L 89.496094 7.601562 L 95.417969 21.53125 C 95.851562 22.550781 96.230469 23.363281 96.578125 23.96875 C 97.363281 25.390625 98.085938 26.40625 99.507812 26.785156 " clip-rule="nonzero"/></clipPath><clipPath id="f74f1bd545"><path d="M 0 0.507812 L 20.546875 0.507812 L 20.546875 20.128906 L 0 20.128906 Z M 0 0.507812 " clip-rule="nonzero"/></clipPath><clipPath id="c66a870c3e"><path d="M 20.503906 19.777344 L 20.503906 20.070312 L 14.441406 20.039062 L 7.1875 2.683594 C 6.257812 3.644531 5.445312 5.789062 4.921875 8.257812 C 4.402344 10.722656 4.285156 12.871094 4.285156 14.234375 C 4.285156 15.3125 4.34375 17.109375 4.921875 18.675781 C 5.242188 19.460938 5.675781 19.894531 6.230469 20.039062 L 0.570312 20.070312 C 0.078125 19.171875 0.136719 18.242188 0.136719 17.925781 C 0.136719 16.417969 0.714844 13.832031 1.644531 11.394531 C 2.253906 9.855469 2.921875 8.4375 3.472656 7.535156 C 4.429688 5.96875 4.34375 5.96875 7.855469 0.601562 L 10.496094 0.601562 L 16.417969 14.53125 C 16.851562 15.550781 17.230469 16.363281 17.578125 16.96875 C 18.363281 18.390625 19.085938 19.40625 20.507812 19.785156 " clip-rule="nonzero"/></clipPath><clipPath id="55bcade3c5"><rect x="0" width="21" y="0" height="21"/></clipPath></defs><g clip-path="url(#75132fa74b)"><g clip-path="url(#cb48797211)"><g transform="matrix(1, 0, 0, 1, 0, 3)"><g clip-path="url(#fc60d1c5dc)"><g clip-path="url(#be2287683a)"><g clip-path="url(#1f0f42bbce)"><rect x="-49.473598" width="323.827186" fill="#999692" height="129.599999" y="-22.8" fill-opacity="1"/></g></g></g></g></g></g><g clip-path="url(#dea22f98bd)"><g clip-path="url(#8d851a1727)"><g transform="matrix(1, 0, 0, 1, 64, 30)"><g clip-path="url(#95790ae212)"><g clip-path="url(#6a0e0dd8a6)"><g clip-path="url(#f0a15db824)"><rect x="-113.473598" width="323.827186" fill="#999692" height="129.599999" y="-49.8" fill-opacity="1"/></g></g></g></g></g></g><g clip-path="url(#e8d992c2ac)"><g clip-path="url(#e89d17bb10)"><g transform="matrix(1, 0, 0, 1, 112, 30)"><g clip-path="url(#3917b40772)"><g clip-path="url(#9c60668e9d)"><g clip-path="url(#64841256b1)"><rect x="-161.473598" width="323.827186" fill="#999692" height="129.599999" y="-49.8" fill-opacity="1"/></g></g></g></g></g></g><g clip-path="url(#7bba97f84b)"><g clip-path="url(#370958aa07)"><g transform="matrix(1, 0, 0, 1, 173, 30)"><g clip-path="url(#644a7bb86a)"><g clip-path="url(#328756fd29)"><g clip-path="url(#5962998f4c)"><rect x="-222.473598" width="323.827186" fill="#999692" height="129.599999" y="-49.8" fill-opacity="1"/></g></g></g></g></g></g><g clip-path="url(#0cc00824f9)"><g clip-path="url(#578f29d520)"><g transform="matrix(1, 0, 0, 1, 79, 7)"><g clip-path="url(#55bcade3c5)"><g clip-path="url(#f74f1bd545)"><g clip-path="url(#c66a870c3e)"><rect x="-128.473598" width="323.827186" fill="#999692" height="129.599999" y="-26.8" fill-opacity="1"/></g></g></g></g></g></g></svg>