<svg width="275" height="275" viewBox="0 0 275 275" fill="none" xmlns="http://www.w3.org/2000/svg">
<g clip-path="url(#clip0_68_1473)">
<path d="M97.16 17.06L94.38 14.28C85.236 5.13788 72.8352 0.00205231 59.905 0.00205231C46.9747 0.00205231 34.574 5.13788 25.43 14.28C20.8958 18.8086 17.2987 24.1865 14.8445 30.1063C12.3902 36.0261 11.127 42.3716 11.127 48.78C11.127 55.1884 12.3902 61.5339 14.8445 67.4537C17.2987 73.3735 20.8958 78.7514 25.43 83.28L83.5 141.3L97.16 127.64C104.422 120.38 110.183 111.76 114.113 102.274C118.044 92.7869 120.067 82.6187 120.067 72.35C120.067 62.0813 118.044 51.9131 114.113 42.4263C110.183 32.9395 104.422 24.32 97.16 17.06Z" fill="url(#paint0_linear_68_1473)"/>
<path d="M249.58 169.47L199.94 119.84C202.889 138.618 201.358 157.827 195.472 175.9C189.586 193.974 179.511 210.4 166.07 223.84L180.62 238.39C189.77 247.54 202.18 252.68 215.12 252.68C228.06 252.68 240.47 247.54 249.62 238.39C258.77 229.24 263.91 216.83 263.91 203.89C263.91 190.95 258.77 178.54 249.62 169.39L249.58 169.47Z" fill="white"/>
<path d="M149.63 69.53L94.34 14.24C101.602 21.5 107.363 30.1195 111.293 39.6063C115.224 49.0931 117.247 59.2613 117.247 69.53C117.247 79.7987 115.224 89.9669 111.293 99.4537C107.363 108.94 101.602 117.56 94.34 124.82L80.68 138.48L27.39 191.77C18.24 200.92 13.0996 213.33 13.0996 226.27C13.0996 232.677 14.3616 239.022 16.8136 244.941C19.2655 250.861 22.8594 256.239 27.39 260.77C31.9206 265.301 37.2992 268.894 43.2187 271.346C49.1382 273.798 55.4827 275.06 61.89 275.06C74.83 275.06 87.24 269.92 96.39 260.77L149.68 207.48C158.739 198.421 165.924 187.666 170.824 175.829C175.725 163.992 178.245 151.306 178.24 138.495C178.235 125.683 175.706 112.999 170.797 101.166C165.888 89.3322 158.695 78.5823 149.63 69.53Z" fill="url(#paint1_linear_68_1473)"/>
</g>
<defs>
<linearGradient id="paint0_linear_68_1473" x1="25.82" y1="14.67" x2="139.03" y2="127.89" gradientUnits="userSpaceOnUse">
<stop stop-color="white"/>
<stop offset="1" stop-color="#AC9FFE"/>
</linearGradient>
<linearGradient id="paint1_linear_68_1473" x1="0.539974" y1="232.28" x2="156.29" y2="76.54" gradientUnits="userSpaceOnUse">
<stop stop-color="#CCC4FE"/>
<stop offset="1" stop-color="white"/>
</linearGradient>
<clipPath id="clip0_68_1473">
<rect width="275" height="275" fill="white"/>
</clipPath>
</defs>
</svg>
